%TF.GenerationSoftware,KiCad,Pcbnew,9.0.7*%
%TF.CreationDate,2026-02-27T21:32:48+09:00*%
%TF.ProjectId,SYS19-3,53595331-392d-4332-9e6b-696361645f70,rev?*%
%TF.SameCoordinates,Original*%
%TF.FileFunction,Legend,Top*%
%TF.FilePolarity,Positive*%
%FSLAX46Y46*%
G04 Gerber Fmt 4.6, Leading zero omitted, Abs format (unit mm)*
G04 Created by KiCad (PCBNEW 9.0.7) date 2026-02-27 21:32:48*
%MOMM*%
%LPD*%
G01*
G04 APERTURE LIST*
%ADD10C,0.150000*%
%ADD11C,0.120000*%
G04 APERTURE END LIST*
D10*
X72437788Y-145615019D02*
X71866360Y-145615019D01*
X72152074Y-145615019D02*
X72152074Y-144615019D01*
X72152074Y-144615019D02*
X72056836Y-144757876D01*
X72056836Y-144757876D02*
X71961598Y-144853114D01*
X71961598Y-144853114D02*
X71866360Y-144900733D01*
X72866360Y-145615019D02*
X72866360Y-144615019D01*
X73437788Y-145615019D02*
X73009217Y-145043590D01*
X73437788Y-144615019D02*
X72866360Y-145186447D01*
X72437788Y-141551019D02*
X71866360Y-141551019D01*
X72152074Y-141551019D02*
X72152074Y-140551019D01*
X72152074Y-140551019D02*
X72056836Y-140693876D01*
X72056836Y-140693876D02*
X71961598Y-140789114D01*
X71961598Y-140789114D02*
X71866360Y-140836733D01*
X72866360Y-141551019D02*
X72866360Y-140551019D01*
X73437788Y-141551019D02*
X73009217Y-140979590D01*
X73437788Y-140551019D02*
X72866360Y-141122447D01*
X65732188Y-136217019D02*
X65160760Y-136217019D01*
X65446474Y-136217019D02*
X65446474Y-135217019D01*
X65446474Y-135217019D02*
X65351236Y-135359876D01*
X65351236Y-135359876D02*
X65255998Y-135455114D01*
X65255998Y-135455114D02*
X65160760Y-135502733D01*
X66160760Y-136217019D02*
X66160760Y-135217019D01*
X66732188Y-136217019D02*
X66303617Y-135645590D01*
X66732188Y-135217019D02*
X66160760Y-135788447D01*
X77670188Y-132915019D02*
X77098760Y-132915019D01*
X77384474Y-132915019D02*
X77384474Y-131915019D01*
X77384474Y-131915019D02*
X77289236Y-132057876D01*
X77289236Y-132057876D02*
X77193998Y-132153114D01*
X77193998Y-132153114D02*
X77098760Y-132200733D01*
X78098760Y-132915019D02*
X78098760Y-131915019D01*
X78670188Y-132915019D02*
X78241617Y-132343590D01*
X78670188Y-131915019D02*
X78098760Y-132486447D01*
X77568588Y-129308219D02*
X76997160Y-129308219D01*
X77282874Y-129308219D02*
X77282874Y-128308219D01*
X77282874Y-128308219D02*
X77187636Y-128451076D01*
X77187636Y-128451076D02*
X77092398Y-128546314D01*
X77092398Y-128546314D02*
X76997160Y-128593933D01*
X77997160Y-129308219D02*
X77997160Y-128308219D01*
X78568588Y-129308219D02*
X78140017Y-128736790D01*
X78568588Y-128308219D02*
X77997160Y-128879647D01*
X68297419Y-120500611D02*
X68297419Y-121072039D01*
X68297419Y-120786325D02*
X67297419Y-120786325D01*
X67297419Y-120786325D02*
X67440276Y-120881563D01*
X67440276Y-120881563D02*
X67535514Y-120976801D01*
X67535514Y-120976801D02*
X67583133Y-121072039D01*
X67297419Y-119881563D02*
X67297419Y-119786325D01*
X67297419Y-119786325D02*
X67345038Y-119691087D01*
X67345038Y-119691087D02*
X67392657Y-119643468D01*
X67392657Y-119643468D02*
X67487895Y-119595849D01*
X67487895Y-119595849D02*
X67678371Y-119548230D01*
X67678371Y-119548230D02*
X67916466Y-119548230D01*
X67916466Y-119548230D02*
X68106942Y-119595849D01*
X68106942Y-119595849D02*
X68202180Y-119643468D01*
X68202180Y-119643468D02*
X68249800Y-119691087D01*
X68249800Y-119691087D02*
X68297419Y-119786325D01*
X68297419Y-119786325D02*
X68297419Y-119881563D01*
X68297419Y-119881563D02*
X68249800Y-119976801D01*
X68249800Y-119976801D02*
X68202180Y-120024420D01*
X68202180Y-120024420D02*
X68106942Y-120072039D01*
X68106942Y-120072039D02*
X67916466Y-120119658D01*
X67916466Y-120119658D02*
X67678371Y-120119658D01*
X67678371Y-120119658D02*
X67487895Y-120072039D01*
X67487895Y-120072039D02*
X67392657Y-120024420D01*
X67392657Y-120024420D02*
X67345038Y-119976801D01*
X67345038Y-119976801D02*
X67297419Y-119881563D01*
X67297419Y-118929182D02*
X67297419Y-118833944D01*
X67297419Y-118833944D02*
X67345038Y-118738706D01*
X67345038Y-118738706D02*
X67392657Y-118691087D01*
X67392657Y-118691087D02*
X67487895Y-118643468D01*
X67487895Y-118643468D02*
X67678371Y-118595849D01*
X67678371Y-118595849D02*
X67916466Y-118595849D01*
X67916466Y-118595849D02*
X68106942Y-118643468D01*
X68106942Y-118643468D02*
X68202180Y-118691087D01*
X68202180Y-118691087D02*
X68249800Y-118738706D01*
X68249800Y-118738706D02*
X68297419Y-118833944D01*
X68297419Y-118833944D02*
X68297419Y-118929182D01*
X68297419Y-118929182D02*
X68249800Y-119024420D01*
X68249800Y-119024420D02*
X68202180Y-119072039D01*
X68202180Y-119072039D02*
X68106942Y-119119658D01*
X68106942Y-119119658D02*
X67916466Y-119167277D01*
X67916466Y-119167277D02*
X67678371Y-119167277D01*
X67678371Y-119167277D02*
X67487895Y-119119658D01*
X67487895Y-119119658D02*
X67392657Y-119072039D01*
X67392657Y-119072039D02*
X67345038Y-119024420D01*
X67345038Y-119024420D02*
X67297419Y-118929182D01*
X61337819Y-108969011D02*
X61337819Y-109540439D01*
X61337819Y-109254725D02*
X60337819Y-109254725D01*
X60337819Y-109254725D02*
X60480676Y-109349963D01*
X60480676Y-109349963D02*
X60575914Y-109445201D01*
X60575914Y-109445201D02*
X60623533Y-109540439D01*
X61337819Y-108540439D02*
X60337819Y-108540439D01*
X60337819Y-108540439D02*
X61052104Y-108207106D01*
X61052104Y-108207106D02*
X60337819Y-107873773D01*
X60337819Y-107873773D02*
X61337819Y-107873773D01*
X134061200Y-146583400D02*
X131521200Y-146583400D01*
X123228100Y-146431000D02*
X120815100Y-146431000D01*
X114550819Y-137645611D02*
X114550819Y-138217039D01*
X114550819Y-137931325D02*
X113550819Y-137931325D01*
X113550819Y-137931325D02*
X113693676Y-138026563D01*
X113693676Y-138026563D02*
X113788914Y-138121801D01*
X113788914Y-138121801D02*
X113836533Y-138217039D01*
X114550819Y-137217039D02*
X113550819Y-137217039D01*
X114550819Y-136645611D02*
X113979390Y-137074182D01*
X113550819Y-136645611D02*
X114122247Y-137217039D01*
X81153809Y-130907424D02*
X81439523Y-131002662D01*
X81439523Y-131002662D02*
X81915714Y-131002662D01*
X81915714Y-131002662D02*
X82106190Y-130907424D01*
X82106190Y-130907424D02*
X82201428Y-130812185D01*
X82201428Y-130812185D02*
X82296666Y-130621709D01*
X82296666Y-130621709D02*
X82296666Y-130431233D01*
X82296666Y-130431233D02*
X82201428Y-130240757D01*
X82201428Y-130240757D02*
X82106190Y-130145519D01*
X82106190Y-130145519D02*
X81915714Y-130050281D01*
X81915714Y-130050281D02*
X81534761Y-129955043D01*
X81534761Y-129955043D02*
X81344285Y-129859804D01*
X81344285Y-129859804D02*
X81249047Y-129764566D01*
X81249047Y-129764566D02*
X81153809Y-129574090D01*
X81153809Y-129574090D02*
X81153809Y-129383614D01*
X81153809Y-129383614D02*
X81249047Y-129193138D01*
X81249047Y-129193138D02*
X81344285Y-129097900D01*
X81344285Y-129097900D02*
X81534761Y-129002662D01*
X81534761Y-129002662D02*
X82010952Y-129002662D01*
X82010952Y-129002662D02*
X82296666Y-129097900D01*
X83534761Y-130050281D02*
X83534761Y-131002662D01*
X82868095Y-129002662D02*
X83534761Y-130050281D01*
X83534761Y-130050281D02*
X84201428Y-129002662D01*
X84772857Y-130907424D02*
X85058571Y-131002662D01*
X85058571Y-131002662D02*
X85534762Y-131002662D01*
X85534762Y-131002662D02*
X85725238Y-130907424D01*
X85725238Y-130907424D02*
X85820476Y-130812185D01*
X85820476Y-130812185D02*
X85915714Y-130621709D01*
X85915714Y-130621709D02*
X85915714Y-130431233D01*
X85915714Y-130431233D02*
X85820476Y-130240757D01*
X85820476Y-130240757D02*
X85725238Y-130145519D01*
X85725238Y-130145519D02*
X85534762Y-130050281D01*
X85534762Y-130050281D02*
X85153809Y-129955043D01*
X85153809Y-129955043D02*
X84963333Y-129859804D01*
X84963333Y-129859804D02*
X84868095Y-129764566D01*
X84868095Y-129764566D02*
X84772857Y-129574090D01*
X84772857Y-129574090D02*
X84772857Y-129383614D01*
X84772857Y-129383614D02*
X84868095Y-129193138D01*
X84868095Y-129193138D02*
X84963333Y-129097900D01*
X84963333Y-129097900D02*
X85153809Y-129002662D01*
X85153809Y-129002662D02*
X85630000Y-129002662D01*
X85630000Y-129002662D02*
X85915714Y-129097900D01*
X87820476Y-131002662D02*
X86677619Y-131002662D01*
X87249047Y-131002662D02*
X87249047Y-129002662D01*
X87249047Y-129002662D02*
X87058571Y-129288376D01*
X87058571Y-129288376D02*
X86868095Y-129478852D01*
X86868095Y-129478852D02*
X86677619Y-129574090D01*
X88772857Y-131002662D02*
X89153809Y-131002662D01*
X89153809Y-131002662D02*
X89344286Y-130907424D01*
X89344286Y-130907424D02*
X89439524Y-130812185D01*
X89439524Y-130812185D02*
X89630000Y-130526471D01*
X89630000Y-130526471D02*
X89725238Y-130145519D01*
X89725238Y-130145519D02*
X89725238Y-129383614D01*
X89725238Y-129383614D02*
X89630000Y-129193138D01*
X89630000Y-129193138D02*
X89534762Y-129097900D01*
X89534762Y-129097900D02*
X89344286Y-129002662D01*
X89344286Y-129002662D02*
X88963333Y-129002662D01*
X88963333Y-129002662D02*
X88772857Y-129097900D01*
X88772857Y-129097900D02*
X88677619Y-129193138D01*
X88677619Y-129193138D02*
X88582381Y-129383614D01*
X88582381Y-129383614D02*
X88582381Y-129859804D01*
X88582381Y-129859804D02*
X88677619Y-130050281D01*
X88677619Y-130050281D02*
X88772857Y-130145519D01*
X88772857Y-130145519D02*
X88963333Y-130240757D01*
X88963333Y-130240757D02*
X89344286Y-130240757D01*
X89344286Y-130240757D02*
X89534762Y-130145519D01*
X89534762Y-130145519D02*
X89630000Y-130050281D01*
X89630000Y-130050281D02*
X89725238Y-129859804D01*
X90582381Y-130240757D02*
X92106191Y-130240757D01*
X92868095Y-129002662D02*
X94106190Y-129002662D01*
X94106190Y-129002662D02*
X93439523Y-129764566D01*
X93439523Y-129764566D02*
X93725238Y-129764566D01*
X93725238Y-129764566D02*
X93915714Y-129859804D01*
X93915714Y-129859804D02*
X94010952Y-129955043D01*
X94010952Y-129955043D02*
X94106190Y-130145519D01*
X94106190Y-130145519D02*
X94106190Y-130621709D01*
X94106190Y-130621709D02*
X94010952Y-130812185D01*
X94010952Y-130812185D02*
X93915714Y-130907424D01*
X93915714Y-130907424D02*
X93725238Y-131002662D01*
X93725238Y-131002662D02*
X93153809Y-131002662D01*
X93153809Y-131002662D02*
X92963333Y-130907424D01*
X92963333Y-130907424D02*
X92868095Y-130812185D01*
X80439523Y-134222550D02*
X80439523Y-132222550D01*
X80439523Y-132222550D02*
X81106190Y-133651121D01*
X81106190Y-133651121D02*
X81772856Y-132222550D01*
X81772856Y-132222550D02*
X81772856Y-134222550D01*
X82725237Y-133174931D02*
X83391904Y-133174931D01*
X83677618Y-134222550D02*
X82725237Y-134222550D01*
X82725237Y-134222550D02*
X82725237Y-132222550D01*
X82725237Y-132222550D02*
X83677618Y-132222550D01*
X85487142Y-134222550D02*
X84534761Y-134222550D01*
X84534761Y-134222550D02*
X84534761Y-132222550D01*
X86153809Y-134222550D02*
X86153809Y-132222550D01*
X86153809Y-132222550D02*
X86915714Y-132222550D01*
X86915714Y-132222550D02*
X87106190Y-132317788D01*
X87106190Y-132317788D02*
X87201428Y-132413026D01*
X87201428Y-132413026D02*
X87296666Y-132603502D01*
X87296666Y-132603502D02*
X87296666Y-132889216D01*
X87296666Y-132889216D02*
X87201428Y-133079692D01*
X87201428Y-133079692D02*
X87106190Y-133174931D01*
X87106190Y-133174931D02*
X86915714Y-133270169D01*
X86915714Y-133270169D02*
X86153809Y-133270169D01*
X88058571Y-134127312D02*
X88344285Y-134222550D01*
X88344285Y-134222550D02*
X88820476Y-134222550D01*
X88820476Y-134222550D02*
X89010952Y-134127312D01*
X89010952Y-134127312D02*
X89106190Y-134032073D01*
X89106190Y-134032073D02*
X89201428Y-133841597D01*
X89201428Y-133841597D02*
X89201428Y-133651121D01*
X89201428Y-133651121D02*
X89106190Y-133460645D01*
X89106190Y-133460645D02*
X89010952Y-133365407D01*
X89010952Y-133365407D02*
X88820476Y-133270169D01*
X88820476Y-133270169D02*
X88439523Y-133174931D01*
X88439523Y-133174931D02*
X88249047Y-133079692D01*
X88249047Y-133079692D02*
X88153809Y-132984454D01*
X88153809Y-132984454D02*
X88058571Y-132793978D01*
X88058571Y-132793978D02*
X88058571Y-132603502D01*
X88058571Y-132603502D02*
X88153809Y-132413026D01*
X88153809Y-132413026D02*
X88249047Y-132317788D01*
X88249047Y-132317788D02*
X88439523Y-132222550D01*
X88439523Y-132222550D02*
X88915714Y-132222550D01*
X88915714Y-132222550D02*
X89201428Y-132317788D01*
X89868095Y-132222550D02*
X91201428Y-132222550D01*
X91201428Y-132222550D02*
X90344285Y-134222550D01*
X92820476Y-132889216D02*
X92820476Y-134222550D01*
X92344285Y-132127312D02*
X91868095Y-133555883D01*
X91868095Y-133555883D02*
X93106190Y-133555883D01*
X94249047Y-132222550D02*
X94439524Y-132222550D01*
X94439524Y-132222550D02*
X94630000Y-132317788D01*
X94630000Y-132317788D02*
X94725238Y-132413026D01*
X94725238Y-132413026D02*
X94820476Y-132603502D01*
X94820476Y-132603502D02*
X94915714Y-132984454D01*
X94915714Y-132984454D02*
X94915714Y-133460645D01*
X94915714Y-133460645D02*
X94820476Y-133841597D01*
X94820476Y-133841597D02*
X94725238Y-134032073D01*
X94725238Y-134032073D02*
X94630000Y-134127312D01*
X94630000Y-134127312D02*
X94439524Y-134222550D01*
X94439524Y-134222550D02*
X94249047Y-134222550D01*
X94249047Y-134222550D02*
X94058571Y-134127312D01*
X94058571Y-134127312D02*
X93963333Y-134032073D01*
X93963333Y-134032073D02*
X93868095Y-133841597D01*
X93868095Y-133841597D02*
X93772857Y-133460645D01*
X93772857Y-133460645D02*
X93772857Y-132984454D01*
X93772857Y-132984454D02*
X93868095Y-132603502D01*
X93868095Y-132603502D02*
X93963333Y-132413026D01*
X93963333Y-132413026D02*
X94058571Y-132317788D01*
X94058571Y-132317788D02*
X94249047Y-132222550D01*
X79249047Y-137442438D02*
X79249047Y-135442438D01*
X79249047Y-135442438D02*
X79915714Y-136871009D01*
X79915714Y-136871009D02*
X80582380Y-135442438D01*
X80582380Y-135442438D02*
X80582380Y-137442438D01*
X82487142Y-135442438D02*
X81534761Y-135442438D01*
X81534761Y-135442438D02*
X81439523Y-136394819D01*
X81439523Y-136394819D02*
X81534761Y-136299580D01*
X81534761Y-136299580D02*
X81725237Y-136204342D01*
X81725237Y-136204342D02*
X82201428Y-136204342D01*
X82201428Y-136204342D02*
X82391904Y-136299580D01*
X82391904Y-136299580D02*
X82487142Y-136394819D01*
X82487142Y-136394819D02*
X82582380Y-136585295D01*
X82582380Y-136585295D02*
X82582380Y-137061485D01*
X82582380Y-137061485D02*
X82487142Y-137251961D01*
X82487142Y-137251961D02*
X82391904Y-137347200D01*
X82391904Y-137347200D02*
X82201428Y-137442438D01*
X82201428Y-137442438D02*
X81725237Y-137442438D01*
X81725237Y-137442438D02*
X81534761Y-137347200D01*
X81534761Y-137347200D02*
X81439523Y-137251961D01*
X83820475Y-135442438D02*
X84010952Y-135442438D01*
X84010952Y-135442438D02*
X84201428Y-135537676D01*
X84201428Y-135537676D02*
X84296666Y-135632914D01*
X84296666Y-135632914D02*
X84391904Y-135823390D01*
X84391904Y-135823390D02*
X84487142Y-136204342D01*
X84487142Y-136204342D02*
X84487142Y-136680533D01*
X84487142Y-136680533D02*
X84391904Y-137061485D01*
X84391904Y-137061485D02*
X84296666Y-137251961D01*
X84296666Y-137251961D02*
X84201428Y-137347200D01*
X84201428Y-137347200D02*
X84010952Y-137442438D01*
X84010952Y-137442438D02*
X83820475Y-137442438D01*
X83820475Y-137442438D02*
X83629999Y-137347200D01*
X83629999Y-137347200D02*
X83534761Y-137251961D01*
X83534761Y-137251961D02*
X83439523Y-137061485D01*
X83439523Y-137061485D02*
X83344285Y-136680533D01*
X83344285Y-136680533D02*
X83344285Y-136204342D01*
X83344285Y-136204342D02*
X83439523Y-135823390D01*
X83439523Y-135823390D02*
X83534761Y-135632914D01*
X83534761Y-135632914D02*
X83629999Y-135537676D01*
X83629999Y-135537676D02*
X83820475Y-135442438D01*
X85153809Y-135442438D02*
X86487142Y-135442438D01*
X86487142Y-135442438D02*
X85629999Y-137442438D01*
X88106190Y-136109104D02*
X88106190Y-137442438D01*
X87629999Y-135347200D02*
X87153809Y-136775771D01*
X87153809Y-136775771D02*
X88391904Y-136775771D01*
X88963333Y-135442438D02*
X90296666Y-135442438D01*
X90296666Y-135442438D02*
X89439523Y-137442438D01*
X90963333Y-137347200D02*
X91249047Y-137442438D01*
X91249047Y-137442438D02*
X91725238Y-137442438D01*
X91725238Y-137442438D02*
X91915714Y-137347200D01*
X91915714Y-137347200D02*
X92010952Y-137251961D01*
X92010952Y-137251961D02*
X92106190Y-137061485D01*
X92106190Y-137061485D02*
X92106190Y-136871009D01*
X92106190Y-136871009D02*
X92010952Y-136680533D01*
X92010952Y-136680533D02*
X91915714Y-136585295D01*
X91915714Y-136585295D02*
X91725238Y-136490057D01*
X91725238Y-136490057D02*
X91344285Y-136394819D01*
X91344285Y-136394819D02*
X91153809Y-136299580D01*
X91153809Y-136299580D02*
X91058571Y-136204342D01*
X91058571Y-136204342D02*
X90963333Y-136013866D01*
X90963333Y-136013866D02*
X90963333Y-135823390D01*
X90963333Y-135823390D02*
X91058571Y-135632914D01*
X91058571Y-135632914D02*
X91153809Y-135537676D01*
X91153809Y-135537676D02*
X91344285Y-135442438D01*
X91344285Y-135442438D02*
X91820476Y-135442438D01*
X91820476Y-135442438D02*
X92106190Y-135537676D01*
X93630000Y-136394819D02*
X93915714Y-136490057D01*
X93915714Y-136490057D02*
X94010952Y-136585295D01*
X94010952Y-136585295D02*
X94106190Y-136775771D01*
X94106190Y-136775771D02*
X94106190Y-137061485D01*
X94106190Y-137061485D02*
X94010952Y-137251961D01*
X94010952Y-137251961D02*
X93915714Y-137347200D01*
X93915714Y-137347200D02*
X93725238Y-137442438D01*
X93725238Y-137442438D02*
X92963333Y-137442438D01*
X92963333Y-137442438D02*
X92963333Y-135442438D01*
X92963333Y-135442438D02*
X93630000Y-135442438D01*
X93630000Y-135442438D02*
X93820476Y-135537676D01*
X93820476Y-135537676D02*
X93915714Y-135632914D01*
X93915714Y-135632914D02*
X94010952Y-135823390D01*
X94010952Y-135823390D02*
X94010952Y-136013866D01*
X94010952Y-136013866D02*
X93915714Y-136204342D01*
X93915714Y-136204342D02*
X93820476Y-136299580D01*
X93820476Y-136299580D02*
X93630000Y-136394819D01*
X93630000Y-136394819D02*
X92963333Y-136394819D01*
X96106190Y-137251961D02*
X96010952Y-137347200D01*
X96010952Y-137347200D02*
X95725238Y-137442438D01*
X95725238Y-137442438D02*
X95534762Y-137442438D01*
X95534762Y-137442438D02*
X95249047Y-137347200D01*
X95249047Y-137347200D02*
X95058571Y-137156723D01*
X95058571Y-137156723D02*
X94963333Y-136966247D01*
X94963333Y-136966247D02*
X94868095Y-136585295D01*
X94868095Y-136585295D02*
X94868095Y-136299580D01*
X94868095Y-136299580D02*
X94963333Y-135918628D01*
X94963333Y-135918628D02*
X95058571Y-135728152D01*
X95058571Y-135728152D02*
X95249047Y-135537676D01*
X95249047Y-135537676D02*
X95534762Y-135442438D01*
X95534762Y-135442438D02*
X95725238Y-135442438D01*
X95725238Y-135442438D02*
X96010952Y-135537676D01*
X96010952Y-135537676D02*
X96106190Y-135632914D01*
X85058571Y-140662326D02*
X84391904Y-139709945D01*
X83915714Y-140662326D02*
X83915714Y-138662326D01*
X83915714Y-138662326D02*
X84677619Y-138662326D01*
X84677619Y-138662326D02*
X84868095Y-138757564D01*
X84868095Y-138757564D02*
X84963333Y-138852802D01*
X84963333Y-138852802D02*
X85058571Y-139043278D01*
X85058571Y-139043278D02*
X85058571Y-139328992D01*
X85058571Y-139328992D02*
X84963333Y-139519468D01*
X84963333Y-139519468D02*
X84868095Y-139614707D01*
X84868095Y-139614707D02*
X84677619Y-139709945D01*
X84677619Y-139709945D02*
X83915714Y-139709945D01*
X85915714Y-139614707D02*
X86582381Y-139614707D01*
X86868095Y-140662326D02*
X85915714Y-140662326D01*
X85915714Y-140662326D02*
X85915714Y-138662326D01*
X85915714Y-138662326D02*
X86868095Y-138662326D01*
X87439524Y-138662326D02*
X88106190Y-140662326D01*
X88106190Y-140662326D02*
X88772857Y-138662326D01*
X89439524Y-140471849D02*
X89534762Y-140567088D01*
X89534762Y-140567088D02*
X89439524Y-140662326D01*
X89439524Y-140662326D02*
X89344286Y-140567088D01*
X89344286Y-140567088D02*
X89439524Y-140471849D01*
X89439524Y-140471849D02*
X89439524Y-140662326D01*
X90201429Y-138662326D02*
X91439524Y-138662326D01*
X91439524Y-138662326D02*
X90772857Y-139424230D01*
X90772857Y-139424230D02*
X91058572Y-139424230D01*
X91058572Y-139424230D02*
X91249048Y-139519468D01*
X91249048Y-139519468D02*
X91344286Y-139614707D01*
X91344286Y-139614707D02*
X91439524Y-139805183D01*
X91439524Y-139805183D02*
X91439524Y-140281373D01*
X91439524Y-140281373D02*
X91344286Y-140471849D01*
X91344286Y-140471849D02*
X91249048Y-140567088D01*
X91249048Y-140567088D02*
X91058572Y-140662326D01*
X91058572Y-140662326D02*
X90487143Y-140662326D01*
X90487143Y-140662326D02*
X90296667Y-140567088D01*
X90296667Y-140567088D02*
X90201429Y-140471849D01*
X79629999Y-142834595D02*
X79915713Y-142929833D01*
X79915713Y-142929833D02*
X80010951Y-143025071D01*
X80010951Y-143025071D02*
X80106189Y-143215547D01*
X80106189Y-143215547D02*
X80106189Y-143501261D01*
X80106189Y-143501261D02*
X80010951Y-143691737D01*
X80010951Y-143691737D02*
X79915713Y-143786976D01*
X79915713Y-143786976D02*
X79725237Y-143882214D01*
X79725237Y-143882214D02*
X78963332Y-143882214D01*
X78963332Y-143882214D02*
X78963332Y-141882214D01*
X78963332Y-141882214D02*
X79629999Y-141882214D01*
X79629999Y-141882214D02*
X79820475Y-141977452D01*
X79820475Y-141977452D02*
X79915713Y-142072690D01*
X79915713Y-142072690D02*
X80010951Y-142263166D01*
X80010951Y-142263166D02*
X80010951Y-142453642D01*
X80010951Y-142453642D02*
X79915713Y-142644118D01*
X79915713Y-142644118D02*
X79820475Y-142739356D01*
X79820475Y-142739356D02*
X79629999Y-142834595D01*
X79629999Y-142834595D02*
X78963332Y-142834595D01*
X81344284Y-142929833D02*
X81344284Y-143882214D01*
X80677618Y-141882214D02*
X81344284Y-142929833D01*
X81344284Y-142929833D02*
X82010951Y-141882214D01*
X84201428Y-142834595D02*
X84868095Y-142834595D01*
X85153809Y-143882214D02*
X84201428Y-143882214D01*
X84201428Y-143882214D02*
X84201428Y-141882214D01*
X84201428Y-141882214D02*
X85153809Y-141882214D01*
X86677619Y-142834595D02*
X86010952Y-142834595D01*
X86010952Y-143882214D02*
X86010952Y-141882214D01*
X86010952Y-141882214D02*
X86963333Y-141882214D01*
X87725238Y-143882214D02*
X87725238Y-141882214D01*
X88582381Y-143310785D02*
X89534762Y-143310785D01*
X88391905Y-143882214D02*
X89058571Y-141882214D01*
X89058571Y-141882214D02*
X89725238Y-143882214D01*
X91344286Y-143882214D02*
X90391905Y-143882214D01*
X90391905Y-143882214D02*
X90391905Y-141882214D01*
X91725239Y-141882214D02*
X92868096Y-141882214D01*
X92296667Y-143882214D02*
X92296667Y-141882214D01*
X93534763Y-142834595D02*
X94201430Y-142834595D01*
X94487144Y-143882214D02*
X93534763Y-143882214D01*
X93534763Y-143882214D02*
X93534763Y-141882214D01*
X93534763Y-141882214D02*
X94487144Y-141882214D01*
X95249049Y-143786976D02*
X95534763Y-143882214D01*
X95534763Y-143882214D02*
X96010954Y-143882214D01*
X96010954Y-143882214D02*
X96201430Y-143786976D01*
X96201430Y-143786976D02*
X96296668Y-143691737D01*
X96296668Y-143691737D02*
X96391906Y-143501261D01*
X96391906Y-143501261D02*
X96391906Y-143310785D01*
X96391906Y-143310785D02*
X96296668Y-143120309D01*
X96296668Y-143120309D02*
X96201430Y-143025071D01*
X96201430Y-143025071D02*
X96010954Y-142929833D01*
X96010954Y-142929833D02*
X95630001Y-142834595D01*
X95630001Y-142834595D02*
X95439525Y-142739356D01*
X95439525Y-142739356D02*
X95344287Y-142644118D01*
X95344287Y-142644118D02*
X95249049Y-142453642D01*
X95249049Y-142453642D02*
X95249049Y-142263166D01*
X95249049Y-142263166D02*
X95344287Y-142072690D01*
X95344287Y-142072690D02*
X95439525Y-141977452D01*
X95439525Y-141977452D02*
X95630001Y-141882214D01*
X95630001Y-141882214D02*
X96106192Y-141882214D01*
X96106192Y-141882214D02*
X96391906Y-141977452D01*
X124828493Y-101517131D02*
X124828493Y-102231416D01*
X124828493Y-102231416D02*
X124780874Y-102374273D01*
X124780874Y-102374273D02*
X124685636Y-102469512D01*
X124685636Y-102469512D02*
X124542779Y-102517131D01*
X124542779Y-102517131D02*
X124447541Y-102517131D01*
X125304684Y-102517131D02*
X125304684Y-101517131D01*
X125304684Y-101517131D02*
X125685636Y-101517131D01*
X125685636Y-101517131D02*
X125780874Y-101564750D01*
X125780874Y-101564750D02*
X125828493Y-101612369D01*
X125828493Y-101612369D02*
X125876112Y-101707607D01*
X125876112Y-101707607D02*
X125876112Y-101850464D01*
X125876112Y-101850464D02*
X125828493Y-101945702D01*
X125828493Y-101945702D02*
X125780874Y-101993321D01*
X125780874Y-101993321D02*
X125685636Y-102040940D01*
X125685636Y-102040940D02*
X125304684Y-102040940D01*
X126828493Y-102517131D02*
X126257065Y-102517131D01*
X126542779Y-102517131D02*
X126542779Y-101517131D01*
X126542779Y-101517131D02*
X126447541Y-101659988D01*
X126447541Y-101659988D02*
X126352303Y-101755226D01*
X126352303Y-101755226D02*
X126257065Y-101802845D01*
X125066588Y-104127075D02*
X124495160Y-104127075D01*
X124780874Y-104127075D02*
X124780874Y-103127075D01*
X124780874Y-103127075D02*
X124685636Y-103269932D01*
X124685636Y-103269932D02*
X124590398Y-103365170D01*
X124590398Y-103365170D02*
X124495160Y-103412789D01*
X125495160Y-103746122D02*
X126257065Y-103746122D01*
X126685636Y-103222313D02*
X126733255Y-103174694D01*
X126733255Y-103174694D02*
X126828493Y-103127075D01*
X126828493Y-103127075D02*
X127066588Y-103127075D01*
X127066588Y-103127075D02*
X127161826Y-103174694D01*
X127161826Y-103174694D02*
X127209445Y-103222313D01*
X127209445Y-103222313D02*
X127257064Y-103317551D01*
X127257064Y-103317551D02*
X127257064Y-103412789D01*
X127257064Y-103412789D02*
X127209445Y-103555646D01*
X127209445Y-103555646D02*
X126638017Y-104127075D01*
X126638017Y-104127075D02*
X127257064Y-104127075D01*
X127685636Y-104031836D02*
X127733255Y-104079456D01*
X127733255Y-104079456D02*
X127685636Y-104127075D01*
X127685636Y-104127075D02*
X127638017Y-104079456D01*
X127638017Y-104079456D02*
X127685636Y-104031836D01*
X127685636Y-104031836D02*
X127685636Y-104127075D01*
X127685636Y-103508027D02*
X127733255Y-103555646D01*
X127733255Y-103555646D02*
X127685636Y-103603265D01*
X127685636Y-103603265D02*
X127638017Y-103555646D01*
X127638017Y-103555646D02*
X127685636Y-103508027D01*
X127685636Y-103508027D02*
X127685636Y-103603265D01*
X128876112Y-103222313D02*
X128923731Y-103174694D01*
X128923731Y-103174694D02*
X129018969Y-103127075D01*
X129018969Y-103127075D02*
X129257064Y-103127075D01*
X129257064Y-103127075D02*
X129352302Y-103174694D01*
X129352302Y-103174694D02*
X129399921Y-103222313D01*
X129399921Y-103222313D02*
X129447540Y-103317551D01*
X129447540Y-103317551D02*
X129447540Y-103412789D01*
X129447540Y-103412789D02*
X129399921Y-103555646D01*
X129399921Y-103555646D02*
X128828493Y-104127075D01*
X128828493Y-104127075D02*
X129447540Y-104127075D01*
X130018969Y-103555646D02*
X129923731Y-103508027D01*
X129923731Y-103508027D02*
X129876112Y-103460408D01*
X129876112Y-103460408D02*
X129828493Y-103365170D01*
X129828493Y-103365170D02*
X129828493Y-103317551D01*
X129828493Y-103317551D02*
X129876112Y-103222313D01*
X129876112Y-103222313D02*
X129923731Y-103174694D01*
X129923731Y-103174694D02*
X130018969Y-103127075D01*
X130018969Y-103127075D02*
X130209445Y-103127075D01*
X130209445Y-103127075D02*
X130304683Y-103174694D01*
X130304683Y-103174694D02*
X130352302Y-103222313D01*
X130352302Y-103222313D02*
X130399921Y-103317551D01*
X130399921Y-103317551D02*
X130399921Y-103365170D01*
X130399921Y-103365170D02*
X130352302Y-103460408D01*
X130352302Y-103460408D02*
X130304683Y-103508027D01*
X130304683Y-103508027D02*
X130209445Y-103555646D01*
X130209445Y-103555646D02*
X130018969Y-103555646D01*
X130018969Y-103555646D02*
X129923731Y-103603265D01*
X129923731Y-103603265D02*
X129876112Y-103650884D01*
X129876112Y-103650884D02*
X129828493Y-103746122D01*
X129828493Y-103746122D02*
X129828493Y-103936598D01*
X129828493Y-103936598D02*
X129876112Y-104031836D01*
X129876112Y-104031836D02*
X129923731Y-104079456D01*
X129923731Y-104079456D02*
X130018969Y-104127075D01*
X130018969Y-104127075D02*
X130209445Y-104127075D01*
X130209445Y-104127075D02*
X130304683Y-104079456D01*
X130304683Y-104079456D02*
X130352302Y-104031836D01*
X130352302Y-104031836D02*
X130399921Y-103936598D01*
X130399921Y-103936598D02*
X130399921Y-103746122D01*
X130399921Y-103746122D02*
X130352302Y-103650884D01*
X130352302Y-103650884D02*
X130304683Y-103603265D01*
X130304683Y-103603265D02*
X130209445Y-103555646D01*
X130780874Y-103222313D02*
X130828493Y-103174694D01*
X130828493Y-103174694D02*
X130923731Y-103127075D01*
X130923731Y-103127075D02*
X131161826Y-103127075D01*
X131161826Y-103127075D02*
X131257064Y-103174694D01*
X131257064Y-103174694D02*
X131304683Y-103222313D01*
X131304683Y-103222313D02*
X131352302Y-103317551D01*
X131352302Y-103317551D02*
X131352302Y-103412789D01*
X131352302Y-103412789D02*
X131304683Y-103555646D01*
X131304683Y-103555646D02*
X130733255Y-104127075D01*
X130733255Y-104127075D02*
X131352302Y-104127075D01*
X132257064Y-103127075D02*
X131780874Y-103127075D01*
X131780874Y-103127075D02*
X131733255Y-103603265D01*
X131733255Y-103603265D02*
X131780874Y-103555646D01*
X131780874Y-103555646D02*
X131876112Y-103508027D01*
X131876112Y-103508027D02*
X132114207Y-103508027D01*
X132114207Y-103508027D02*
X132209445Y-103555646D01*
X132209445Y-103555646D02*
X132257064Y-103603265D01*
X132257064Y-103603265D02*
X132304683Y-103698503D01*
X132304683Y-103698503D02*
X132304683Y-103936598D01*
X132304683Y-103936598D02*
X132257064Y-104031836D01*
X132257064Y-104031836D02*
X132209445Y-104079456D01*
X132209445Y-104079456D02*
X132114207Y-104127075D01*
X132114207Y-104127075D02*
X131876112Y-104127075D01*
X131876112Y-104127075D02*
X131780874Y-104079456D01*
X131780874Y-104079456D02*
X131733255Y-104031836D01*
X133161826Y-103127075D02*
X132971350Y-103127075D01*
X132971350Y-103127075D02*
X132876112Y-103174694D01*
X132876112Y-103174694D02*
X132828493Y-103222313D01*
X132828493Y-103222313D02*
X132733255Y-103365170D01*
X132733255Y-103365170D02*
X132685636Y-103555646D01*
X132685636Y-103555646D02*
X132685636Y-103936598D01*
X132685636Y-103936598D02*
X132733255Y-104031836D01*
X132733255Y-104031836D02*
X132780874Y-104079456D01*
X132780874Y-104079456D02*
X132876112Y-104127075D01*
X132876112Y-104127075D02*
X133066588Y-104127075D01*
X133066588Y-104127075D02*
X133161826Y-104079456D01*
X133161826Y-104079456D02*
X133209445Y-104031836D01*
X133209445Y-104031836D02*
X133257064Y-103936598D01*
X133257064Y-103936598D02*
X133257064Y-103698503D01*
X133257064Y-103698503D02*
X133209445Y-103603265D01*
X133209445Y-103603265D02*
X133161826Y-103555646D01*
X133161826Y-103555646D02*
X133066588Y-103508027D01*
X133066588Y-103508027D02*
X132876112Y-103508027D01*
X132876112Y-103508027D02*
X132780874Y-103555646D01*
X132780874Y-103555646D02*
X132733255Y-103603265D01*
X132733255Y-103603265D02*
X132685636Y-103698503D01*
X124495160Y-104832257D02*
X124542779Y-104784638D01*
X124542779Y-104784638D02*
X124638017Y-104737019D01*
X124638017Y-104737019D02*
X124876112Y-104737019D01*
X124876112Y-104737019D02*
X124971350Y-104784638D01*
X124971350Y-104784638D02*
X125018969Y-104832257D01*
X125018969Y-104832257D02*
X125066588Y-104927495D01*
X125066588Y-104927495D02*
X125066588Y-105022733D01*
X125066588Y-105022733D02*
X125018969Y-105165590D01*
X125018969Y-105165590D02*
X124447541Y-105737019D01*
X124447541Y-105737019D02*
X125066588Y-105737019D01*
X125495160Y-105356066D02*
X126257065Y-105356066D01*
X126638017Y-104737019D02*
X127257064Y-104737019D01*
X127257064Y-104737019D02*
X126923731Y-105117971D01*
X126923731Y-105117971D02*
X127066588Y-105117971D01*
X127066588Y-105117971D02*
X127161826Y-105165590D01*
X127161826Y-105165590D02*
X127209445Y-105213209D01*
X127209445Y-105213209D02*
X127257064Y-105308447D01*
X127257064Y-105308447D02*
X127257064Y-105546542D01*
X127257064Y-105546542D02*
X127209445Y-105641780D01*
X127209445Y-105641780D02*
X127161826Y-105689400D01*
X127161826Y-105689400D02*
X127066588Y-105737019D01*
X127066588Y-105737019D02*
X126780874Y-105737019D01*
X126780874Y-105737019D02*
X126685636Y-105689400D01*
X126685636Y-105689400D02*
X126638017Y-105641780D01*
X127685636Y-105641780D02*
X127733255Y-105689400D01*
X127733255Y-105689400D02*
X127685636Y-105737019D01*
X127685636Y-105737019D02*
X127638017Y-105689400D01*
X127638017Y-105689400D02*
X127685636Y-105641780D01*
X127685636Y-105641780D02*
X127685636Y-105737019D01*
X127685636Y-105117971D02*
X127733255Y-105165590D01*
X127733255Y-105165590D02*
X127685636Y-105213209D01*
X127685636Y-105213209D02*
X127638017Y-105165590D01*
X127638017Y-105165590D02*
X127685636Y-105117971D01*
X127685636Y-105117971D02*
X127685636Y-105213209D01*
X128876112Y-104832257D02*
X128923731Y-104784638D01*
X128923731Y-104784638D02*
X129018969Y-104737019D01*
X129018969Y-104737019D02*
X129257064Y-104737019D01*
X129257064Y-104737019D02*
X129352302Y-104784638D01*
X129352302Y-104784638D02*
X129399921Y-104832257D01*
X129399921Y-104832257D02*
X129447540Y-104927495D01*
X129447540Y-104927495D02*
X129447540Y-105022733D01*
X129447540Y-105022733D02*
X129399921Y-105165590D01*
X129399921Y-105165590D02*
X128828493Y-105737019D01*
X128828493Y-105737019D02*
X129447540Y-105737019D01*
X129780874Y-104737019D02*
X130447540Y-104737019D01*
X130447540Y-104737019D02*
X130018969Y-105737019D01*
X131304683Y-104737019D02*
X130828493Y-104737019D01*
X130828493Y-104737019D02*
X130780874Y-105213209D01*
X130780874Y-105213209D02*
X130828493Y-105165590D01*
X130828493Y-105165590D02*
X130923731Y-105117971D01*
X130923731Y-105117971D02*
X131161826Y-105117971D01*
X131161826Y-105117971D02*
X131257064Y-105165590D01*
X131257064Y-105165590D02*
X131304683Y-105213209D01*
X131304683Y-105213209D02*
X131352302Y-105308447D01*
X131352302Y-105308447D02*
X131352302Y-105546542D01*
X131352302Y-105546542D02*
X131304683Y-105641780D01*
X131304683Y-105641780D02*
X131257064Y-105689400D01*
X131257064Y-105689400D02*
X131161826Y-105737019D01*
X131161826Y-105737019D02*
X130923731Y-105737019D01*
X130923731Y-105737019D02*
X130828493Y-105689400D01*
X130828493Y-105689400D02*
X130780874Y-105641780D01*
X132304683Y-105737019D02*
X131733255Y-105737019D01*
X132018969Y-105737019D02*
X132018969Y-104737019D01*
X132018969Y-104737019D02*
X131923731Y-104879876D01*
X131923731Y-104879876D02*
X131828493Y-104975114D01*
X131828493Y-104975114D02*
X131733255Y-105022733D01*
X132685636Y-104832257D02*
X132733255Y-104784638D01*
X132733255Y-104784638D02*
X132828493Y-104737019D01*
X132828493Y-104737019D02*
X133066588Y-104737019D01*
X133066588Y-104737019D02*
X133161826Y-104784638D01*
X133161826Y-104784638D02*
X133209445Y-104832257D01*
X133209445Y-104832257D02*
X133257064Y-104927495D01*
X133257064Y-104927495D02*
X133257064Y-105022733D01*
X133257064Y-105022733D02*
X133209445Y-105165590D01*
X133209445Y-105165590D02*
X132638017Y-105737019D01*
X132638017Y-105737019D02*
X133257064Y-105737019D01*
X126241324Y-146800219D02*
X126812752Y-146800219D01*
X126527038Y-147800219D02*
X126527038Y-146800219D01*
X127050848Y-147800219D02*
X127574657Y-147133552D01*
X127050848Y-147133552D02*
X127574657Y-147800219D01*
X127955610Y-147800219D02*
X127955610Y-146800219D01*
X127955610Y-146800219D02*
X128193705Y-146800219D01*
X128193705Y-146800219D02*
X128336562Y-146847838D01*
X128336562Y-146847838D02*
X128431800Y-146943076D01*
X128431800Y-146943076D02*
X128479419Y-147038314D01*
X128479419Y-147038314D02*
X128527038Y-147228790D01*
X128527038Y-147228790D02*
X128527038Y-147371647D01*
X128527038Y-147371647D02*
X128479419Y-147562123D01*
X128479419Y-147562123D02*
X128431800Y-147657361D01*
X128431800Y-147657361D02*
X128336562Y-147752600D01*
X128336562Y-147752600D02*
X128193705Y-147800219D01*
X128193705Y-147800219D02*
X127955610Y-147800219D01*
X124837819Y-129584220D02*
X123837819Y-129584220D01*
X123837819Y-129584220D02*
X123837819Y-129203268D01*
X123837819Y-129203268D02*
X123885438Y-129108030D01*
X123885438Y-129108030D02*
X123933057Y-129060411D01*
X123933057Y-129060411D02*
X124028295Y-129012792D01*
X124028295Y-129012792D02*
X124171152Y-129012792D01*
X124171152Y-129012792D02*
X124266390Y-129060411D01*
X124266390Y-129060411D02*
X124314009Y-129108030D01*
X124314009Y-129108030D02*
X124361628Y-129203268D01*
X124361628Y-129203268D02*
X124361628Y-129584220D01*
X124837819Y-128584220D02*
X123837819Y-128584220D01*
X124742580Y-127536602D02*
X124790200Y-127584221D01*
X124790200Y-127584221D02*
X124837819Y-127727078D01*
X124837819Y-127727078D02*
X124837819Y-127822316D01*
X124837819Y-127822316D02*
X124790200Y-127965173D01*
X124790200Y-127965173D02*
X124694961Y-128060411D01*
X124694961Y-128060411D02*
X124599723Y-128108030D01*
X124599723Y-128108030D02*
X124409247Y-128155649D01*
X124409247Y-128155649D02*
X124266390Y-128155649D01*
X124266390Y-128155649D02*
X124075914Y-128108030D01*
X124075914Y-128108030D02*
X123980676Y-128060411D01*
X123980676Y-128060411D02*
X123885438Y-127965173D01*
X123885438Y-127965173D02*
X123837819Y-127822316D01*
X123837819Y-127822316D02*
X123837819Y-127727078D01*
X123837819Y-127727078D02*
X123885438Y-127584221D01*
X123885438Y-127584221D02*
X123933057Y-127536602D01*
X124837819Y-126584221D02*
X124837819Y-127155649D01*
X124837819Y-126869935D02*
X123837819Y-126869935D01*
X123837819Y-126869935D02*
X123980676Y-126965173D01*
X123980676Y-126965173D02*
X124075914Y-127060411D01*
X124075914Y-127060411D02*
X124123533Y-127155649D01*
X124266390Y-126012792D02*
X124218771Y-126108030D01*
X124218771Y-126108030D02*
X124171152Y-126155649D01*
X124171152Y-126155649D02*
X124075914Y-126203268D01*
X124075914Y-126203268D02*
X124028295Y-126203268D01*
X124028295Y-126203268D02*
X123933057Y-126155649D01*
X123933057Y-126155649D02*
X123885438Y-126108030D01*
X123885438Y-126108030D02*
X123837819Y-126012792D01*
X123837819Y-126012792D02*
X123837819Y-125822316D01*
X123837819Y-125822316D02*
X123885438Y-125727078D01*
X123885438Y-125727078D02*
X123933057Y-125679459D01*
X123933057Y-125679459D02*
X124028295Y-125631840D01*
X124028295Y-125631840D02*
X124075914Y-125631840D01*
X124075914Y-125631840D02*
X124171152Y-125679459D01*
X124171152Y-125679459D02*
X124218771Y-125727078D01*
X124218771Y-125727078D02*
X124266390Y-125822316D01*
X124266390Y-125822316D02*
X124266390Y-126012792D01*
X124266390Y-126012792D02*
X124314009Y-126108030D01*
X124314009Y-126108030D02*
X124361628Y-126155649D01*
X124361628Y-126155649D02*
X124456866Y-126203268D01*
X124456866Y-126203268D02*
X124647342Y-126203268D01*
X124647342Y-126203268D02*
X124742580Y-126155649D01*
X124742580Y-126155649D02*
X124790200Y-126108030D01*
X124790200Y-126108030D02*
X124837819Y-126012792D01*
X124837819Y-126012792D02*
X124837819Y-125822316D01*
X124837819Y-125822316D02*
X124790200Y-125727078D01*
X124790200Y-125727078D02*
X124742580Y-125679459D01*
X124742580Y-125679459D02*
X124647342Y-125631840D01*
X124647342Y-125631840D02*
X124456866Y-125631840D01*
X124456866Y-125631840D02*
X124361628Y-125679459D01*
X124361628Y-125679459D02*
X124314009Y-125727078D01*
X124314009Y-125727078D02*
X124266390Y-125822316D01*
X123933057Y-125250887D02*
X123885438Y-125203268D01*
X123885438Y-125203268D02*
X123837819Y-125108030D01*
X123837819Y-125108030D02*
X123837819Y-124869935D01*
X123837819Y-124869935D02*
X123885438Y-124774697D01*
X123885438Y-124774697D02*
X123933057Y-124727078D01*
X123933057Y-124727078D02*
X124028295Y-124679459D01*
X124028295Y-124679459D02*
X124123533Y-124679459D01*
X124123533Y-124679459D02*
X124266390Y-124727078D01*
X124266390Y-124727078D02*
X124837819Y-125298506D01*
X124837819Y-125298506D02*
X124837819Y-124679459D01*
X123933057Y-124298506D02*
X123885438Y-124250887D01*
X123885438Y-124250887D02*
X123837819Y-124155649D01*
X123837819Y-124155649D02*
X123837819Y-123917554D01*
X123837819Y-123917554D02*
X123885438Y-123822316D01*
X123885438Y-123822316D02*
X123933057Y-123774697D01*
X123933057Y-123774697D02*
X124028295Y-123727078D01*
X124028295Y-123727078D02*
X124123533Y-123727078D01*
X124123533Y-123727078D02*
X124266390Y-123774697D01*
X124266390Y-123774697D02*
X124837819Y-124346125D01*
X124837819Y-124346125D02*
X124837819Y-123727078D01*
X113496912Y-54514809D02*
X113639769Y-54562428D01*
X113639769Y-54562428D02*
X113687388Y-54610047D01*
X113687388Y-54610047D02*
X113735007Y-54705285D01*
X113735007Y-54705285D02*
X113735007Y-54848142D01*
X113735007Y-54848142D02*
X113687388Y-54943380D01*
X113687388Y-54943380D02*
X113639769Y-54991000D01*
X113639769Y-54991000D02*
X113544531Y-55038619D01*
X113544531Y-55038619D02*
X113163579Y-55038619D01*
X113163579Y-55038619D02*
X113163579Y-54038619D01*
X113163579Y-54038619D02*
X113496912Y-54038619D01*
X113496912Y-54038619D02*
X113592150Y-54086238D01*
X113592150Y-54086238D02*
X113639769Y-54133857D01*
X113639769Y-54133857D02*
X113687388Y-54229095D01*
X113687388Y-54229095D02*
X113687388Y-54324333D01*
X113687388Y-54324333D02*
X113639769Y-54419571D01*
X113639769Y-54419571D02*
X113592150Y-54467190D01*
X113592150Y-54467190D02*
X113496912Y-54514809D01*
X113496912Y-54514809D02*
X113163579Y-54514809D01*
X114115960Y-54991000D02*
X114258817Y-55038619D01*
X114258817Y-55038619D02*
X114496912Y-55038619D01*
X114496912Y-55038619D02*
X114592150Y-54991000D01*
X114592150Y-54991000D02*
X114639769Y-54943380D01*
X114639769Y-54943380D02*
X114687388Y-54848142D01*
X114687388Y-54848142D02*
X114687388Y-54752904D01*
X114687388Y-54752904D02*
X114639769Y-54657666D01*
X114639769Y-54657666D02*
X114592150Y-54610047D01*
X114592150Y-54610047D02*
X114496912Y-54562428D01*
X114496912Y-54562428D02*
X114306436Y-54514809D01*
X114306436Y-54514809D02*
X114211198Y-54467190D01*
X114211198Y-54467190D02*
X114163579Y-54419571D01*
X114163579Y-54419571D02*
X114115960Y-54324333D01*
X114115960Y-54324333D02*
X114115960Y-54229095D01*
X114115960Y-54229095D02*
X114163579Y-54133857D01*
X114163579Y-54133857D02*
X114211198Y-54086238D01*
X114211198Y-54086238D02*
X114306436Y-54038619D01*
X114306436Y-54038619D02*
X114544531Y-54038619D01*
X114544531Y-54038619D02*
X114687388Y-54086238D01*
X115544531Y-54038619D02*
X115354055Y-54038619D01*
X115354055Y-54038619D02*
X115258817Y-54086238D01*
X115258817Y-54086238D02*
X115211198Y-54133857D01*
X115211198Y-54133857D02*
X115115960Y-54276714D01*
X115115960Y-54276714D02*
X115068341Y-54467190D01*
X115068341Y-54467190D02*
X115068341Y-54848142D01*
X115068341Y-54848142D02*
X115115960Y-54943380D01*
X115115960Y-54943380D02*
X115163579Y-54991000D01*
X115163579Y-54991000D02*
X115258817Y-55038619D01*
X115258817Y-55038619D02*
X115449293Y-55038619D01*
X115449293Y-55038619D02*
X115544531Y-54991000D01*
X115544531Y-54991000D02*
X115592150Y-54943380D01*
X115592150Y-54943380D02*
X115639769Y-54848142D01*
X115639769Y-54848142D02*
X115639769Y-54610047D01*
X115639769Y-54610047D02*
X115592150Y-54514809D01*
X115592150Y-54514809D02*
X115544531Y-54467190D01*
X115544531Y-54467190D02*
X115449293Y-54419571D01*
X115449293Y-54419571D02*
X115258817Y-54419571D01*
X115258817Y-54419571D02*
X115163579Y-54467190D01*
X115163579Y-54467190D02*
X115115960Y-54514809D01*
X115115960Y-54514809D02*
X115068341Y-54610047D01*
X116020722Y-54133857D02*
X116068341Y-54086238D01*
X116068341Y-54086238D02*
X116163579Y-54038619D01*
X116163579Y-54038619D02*
X116401674Y-54038619D01*
X116401674Y-54038619D02*
X116496912Y-54086238D01*
X116496912Y-54086238D02*
X116544531Y-54133857D01*
X116544531Y-54133857D02*
X116592150Y-54229095D01*
X116592150Y-54229095D02*
X116592150Y-54324333D01*
X116592150Y-54324333D02*
X116544531Y-54467190D01*
X116544531Y-54467190D02*
X115973103Y-55038619D01*
X115973103Y-55038619D02*
X116592150Y-55038619D01*
X117496912Y-55038619D02*
X117020722Y-55038619D01*
X117020722Y-55038619D02*
X117020722Y-54038619D01*
X117687389Y-54038619D02*
X118020722Y-55038619D01*
X118020722Y-55038619D02*
X118354055Y-54038619D01*
X118639770Y-54133857D02*
X118687389Y-54086238D01*
X118687389Y-54086238D02*
X118782627Y-54038619D01*
X118782627Y-54038619D02*
X119020722Y-54038619D01*
X119020722Y-54038619D02*
X119115960Y-54086238D01*
X119115960Y-54086238D02*
X119163579Y-54133857D01*
X119163579Y-54133857D02*
X119211198Y-54229095D01*
X119211198Y-54229095D02*
X119211198Y-54324333D01*
X119211198Y-54324333D02*
X119163579Y-54467190D01*
X119163579Y-54467190D02*
X118592151Y-55038619D01*
X118592151Y-55038619D02*
X119211198Y-55038619D01*
X120115960Y-54038619D02*
X119639770Y-54038619D01*
X119639770Y-54038619D02*
X119592151Y-54514809D01*
X119592151Y-54514809D02*
X119639770Y-54467190D01*
X119639770Y-54467190D02*
X119735008Y-54419571D01*
X119735008Y-54419571D02*
X119973103Y-54419571D01*
X119973103Y-54419571D02*
X120068341Y-54467190D01*
X120068341Y-54467190D02*
X120115960Y-54514809D01*
X120115960Y-54514809D02*
X120163579Y-54610047D01*
X120163579Y-54610047D02*
X120163579Y-54848142D01*
X120163579Y-54848142D02*
X120115960Y-54943380D01*
X120115960Y-54943380D02*
X120068341Y-54991000D01*
X120068341Y-54991000D02*
X119973103Y-55038619D01*
X119973103Y-55038619D02*
X119735008Y-55038619D01*
X119735008Y-55038619D02*
X119639770Y-54991000D01*
X119639770Y-54991000D02*
X119592151Y-54943380D01*
X121020722Y-54038619D02*
X120830246Y-54038619D01*
X120830246Y-54038619D02*
X120735008Y-54086238D01*
X120735008Y-54086238D02*
X120687389Y-54133857D01*
X120687389Y-54133857D02*
X120592151Y-54276714D01*
X120592151Y-54276714D02*
X120544532Y-54467190D01*
X120544532Y-54467190D02*
X120544532Y-54848142D01*
X120544532Y-54848142D02*
X120592151Y-54943380D01*
X120592151Y-54943380D02*
X120639770Y-54991000D01*
X120639770Y-54991000D02*
X120735008Y-55038619D01*
X120735008Y-55038619D02*
X120925484Y-55038619D01*
X120925484Y-55038619D02*
X121020722Y-54991000D01*
X121020722Y-54991000D02*
X121068341Y-54943380D01*
X121068341Y-54943380D02*
X121115960Y-54848142D01*
X121115960Y-54848142D02*
X121115960Y-54610047D01*
X121115960Y-54610047D02*
X121068341Y-54514809D01*
X121068341Y-54514809D02*
X121020722Y-54467190D01*
X121020722Y-54467190D02*
X120925484Y-54419571D01*
X120925484Y-54419571D02*
X120735008Y-54419571D01*
X120735008Y-54419571D02*
X120639770Y-54467190D01*
X120639770Y-54467190D02*
X120592151Y-54514809D01*
X120592151Y-54514809D02*
X120544532Y-54610047D01*
X70126219Y-110289811D02*
X70126219Y-110861239D01*
X70126219Y-110575525D02*
X69126219Y-110575525D01*
X69126219Y-110575525D02*
X69269076Y-110670763D01*
X69269076Y-110670763D02*
X69364314Y-110766001D01*
X69364314Y-110766001D02*
X69411933Y-110861239D01*
X69221457Y-109908858D02*
X69173838Y-109861239D01*
X69173838Y-109861239D02*
X69126219Y-109766001D01*
X69126219Y-109766001D02*
X69126219Y-109527906D01*
X69126219Y-109527906D02*
X69173838Y-109432668D01*
X69173838Y-109432668D02*
X69221457Y-109385049D01*
X69221457Y-109385049D02*
X69316695Y-109337430D01*
X69316695Y-109337430D02*
X69411933Y-109337430D01*
X69411933Y-109337430D02*
X69554790Y-109385049D01*
X69554790Y-109385049D02*
X70126219Y-109956477D01*
X70126219Y-109956477D02*
X70126219Y-109337430D01*
X70126219Y-108908858D02*
X69126219Y-108908858D01*
X69126219Y-108908858D02*
X69840504Y-108575525D01*
X69840504Y-108575525D02*
X69126219Y-108242192D01*
X69126219Y-108242192D02*
X70126219Y-108242192D01*
X70126219Y-107766001D02*
X69126219Y-107766001D01*
X69602409Y-107766001D02*
X69602409Y-107194573D01*
X70126219Y-107194573D02*
X69126219Y-107194573D01*
X69459552Y-106813620D02*
X69459552Y-106289811D01*
X69459552Y-106289811D02*
X70126219Y-106813620D01*
X70126219Y-106813620D02*
X70126219Y-106289811D01*
X124634619Y-117195430D02*
X124634619Y-117671620D01*
X124634619Y-117671620D02*
X123634619Y-117671620D01*
X124587000Y-116909715D02*
X124634619Y-116766858D01*
X124634619Y-116766858D02*
X124634619Y-116528763D01*
X124634619Y-116528763D02*
X124587000Y-116433525D01*
X124587000Y-116433525D02*
X124539380Y-116385906D01*
X124539380Y-116385906D02*
X124444142Y-116338287D01*
X124444142Y-116338287D02*
X124348904Y-116338287D01*
X124348904Y-116338287D02*
X124253666Y-116385906D01*
X124253666Y-116385906D02*
X124206047Y-116433525D01*
X124206047Y-116433525D02*
X124158428Y-116528763D01*
X124158428Y-116528763D02*
X124110809Y-116719239D01*
X124110809Y-116719239D02*
X124063190Y-116814477D01*
X124063190Y-116814477D02*
X124015571Y-116862096D01*
X124015571Y-116862096D02*
X123920333Y-116909715D01*
X123920333Y-116909715D02*
X123825095Y-116909715D01*
X123825095Y-116909715D02*
X123729857Y-116862096D01*
X123729857Y-116862096D02*
X123682238Y-116814477D01*
X123682238Y-116814477D02*
X123634619Y-116719239D01*
X123634619Y-116719239D02*
X123634619Y-116481144D01*
X123634619Y-116481144D02*
X123682238Y-116338287D01*
X124634619Y-115385906D02*
X124634619Y-115957334D01*
X124634619Y-115671620D02*
X123634619Y-115671620D01*
X123634619Y-115671620D02*
X123777476Y-115766858D01*
X123777476Y-115766858D02*
X123872714Y-115862096D01*
X123872714Y-115862096D02*
X123920333Y-115957334D01*
X123634619Y-115052572D02*
X123634619Y-114433525D01*
X123634619Y-114433525D02*
X124015571Y-114766858D01*
X124015571Y-114766858D02*
X124015571Y-114624001D01*
X124015571Y-114624001D02*
X124063190Y-114528763D01*
X124063190Y-114528763D02*
X124110809Y-114481144D01*
X124110809Y-114481144D02*
X124206047Y-114433525D01*
X124206047Y-114433525D02*
X124444142Y-114433525D01*
X124444142Y-114433525D02*
X124539380Y-114481144D01*
X124539380Y-114481144D02*
X124587000Y-114528763D01*
X124587000Y-114528763D02*
X124634619Y-114624001D01*
X124634619Y-114624001D02*
X124634619Y-114909715D01*
X124634619Y-114909715D02*
X124587000Y-115004953D01*
X124587000Y-115004953D02*
X124539380Y-115052572D01*
X124634619Y-113957334D02*
X124634619Y-113766858D01*
X124634619Y-113766858D02*
X124587000Y-113671620D01*
X124587000Y-113671620D02*
X124539380Y-113624001D01*
X124539380Y-113624001D02*
X124396523Y-113528763D01*
X124396523Y-113528763D02*
X124206047Y-113481144D01*
X124206047Y-113481144D02*
X123825095Y-113481144D01*
X123825095Y-113481144D02*
X123729857Y-113528763D01*
X123729857Y-113528763D02*
X123682238Y-113576382D01*
X123682238Y-113576382D02*
X123634619Y-113671620D01*
X123634619Y-113671620D02*
X123634619Y-113862096D01*
X123634619Y-113862096D02*
X123682238Y-113957334D01*
X123682238Y-113957334D02*
X123729857Y-114004953D01*
X123729857Y-114004953D02*
X123825095Y-114052572D01*
X123825095Y-114052572D02*
X124063190Y-114052572D01*
X124063190Y-114052572D02*
X124158428Y-114004953D01*
X124158428Y-114004953D02*
X124206047Y-113957334D01*
X124206047Y-113957334D02*
X124253666Y-113862096D01*
X124253666Y-113862096D02*
X124253666Y-113671620D01*
X124253666Y-113671620D02*
X124206047Y-113576382D01*
X124206047Y-113576382D02*
X124158428Y-113528763D01*
X124158428Y-113528763D02*
X124063190Y-113481144D01*
X121410480Y-147774819D02*
X121077147Y-147298628D01*
X120839052Y-147774819D02*
X120839052Y-146774819D01*
X120839052Y-146774819D02*
X121220004Y-146774819D01*
X121220004Y-146774819D02*
X121315242Y-146822438D01*
X121315242Y-146822438D02*
X121362861Y-146870057D01*
X121362861Y-146870057D02*
X121410480Y-146965295D01*
X121410480Y-146965295D02*
X121410480Y-147108152D01*
X121410480Y-147108152D02*
X121362861Y-147203390D01*
X121362861Y-147203390D02*
X121315242Y-147251009D01*
X121315242Y-147251009D02*
X121220004Y-147298628D01*
X121220004Y-147298628D02*
X120839052Y-147298628D01*
X121696195Y-146774819D02*
X122267623Y-146774819D01*
X121981909Y-147774819D02*
X121981909Y-146774819D01*
X122553338Y-147727200D02*
X122696195Y-147774819D01*
X122696195Y-147774819D02*
X122934290Y-147774819D01*
X122934290Y-147774819D02*
X123029528Y-147727200D01*
X123029528Y-147727200D02*
X123077147Y-147679580D01*
X123077147Y-147679580D02*
X123124766Y-147584342D01*
X123124766Y-147584342D02*
X123124766Y-147489104D01*
X123124766Y-147489104D02*
X123077147Y-147393866D01*
X123077147Y-147393866D02*
X123029528Y-147346247D01*
X123029528Y-147346247D02*
X122934290Y-147298628D01*
X122934290Y-147298628D02*
X122743814Y-147251009D01*
X122743814Y-147251009D02*
X122648576Y-147203390D01*
X122648576Y-147203390D02*
X122600957Y-147155771D01*
X122600957Y-147155771D02*
X122553338Y-147060533D01*
X122553338Y-147060533D02*
X122553338Y-146965295D01*
X122553338Y-146965295D02*
X122600957Y-146870057D01*
X122600957Y-146870057D02*
X122648576Y-146822438D01*
X122648576Y-146822438D02*
X122743814Y-146774819D01*
X122743814Y-146774819D02*
X122981909Y-146774819D01*
X122981909Y-146774819D02*
X123124766Y-146822438D01*
X126781160Y-54600504D02*
X127257350Y-54600504D01*
X126685922Y-54886219D02*
X127019255Y-53886219D01*
X127019255Y-53886219D02*
X127352588Y-54886219D01*
X127543065Y-53886219D02*
X128114493Y-53886219D01*
X127828779Y-54886219D02*
X127828779Y-53886219D01*
X128400208Y-53981457D02*
X128447827Y-53933838D01*
X128447827Y-53933838D02*
X128543065Y-53886219D01*
X128543065Y-53886219D02*
X128781160Y-53886219D01*
X128781160Y-53886219D02*
X128876398Y-53933838D01*
X128876398Y-53933838D02*
X128924017Y-53981457D01*
X128924017Y-53981457D02*
X128971636Y-54076695D01*
X128971636Y-54076695D02*
X128971636Y-54171933D01*
X128971636Y-54171933D02*
X128924017Y-54314790D01*
X128924017Y-54314790D02*
X128352589Y-54886219D01*
X128352589Y-54886219D02*
X128971636Y-54886219D01*
X129543065Y-54314790D02*
X129447827Y-54267171D01*
X129447827Y-54267171D02*
X129400208Y-54219552D01*
X129400208Y-54219552D02*
X129352589Y-54124314D01*
X129352589Y-54124314D02*
X129352589Y-54076695D01*
X129352589Y-54076695D02*
X129400208Y-53981457D01*
X129400208Y-53981457D02*
X129447827Y-53933838D01*
X129447827Y-53933838D02*
X129543065Y-53886219D01*
X129543065Y-53886219D02*
X129733541Y-53886219D01*
X129733541Y-53886219D02*
X129828779Y-53933838D01*
X129828779Y-53933838D02*
X129876398Y-53981457D01*
X129876398Y-53981457D02*
X129924017Y-54076695D01*
X129924017Y-54076695D02*
X129924017Y-54124314D01*
X129924017Y-54124314D02*
X129876398Y-54219552D01*
X129876398Y-54219552D02*
X129828779Y-54267171D01*
X129828779Y-54267171D02*
X129733541Y-54314790D01*
X129733541Y-54314790D02*
X129543065Y-54314790D01*
X129543065Y-54314790D02*
X129447827Y-54362409D01*
X129447827Y-54362409D02*
X129400208Y-54410028D01*
X129400208Y-54410028D02*
X129352589Y-54505266D01*
X129352589Y-54505266D02*
X129352589Y-54695742D01*
X129352589Y-54695742D02*
X129400208Y-54790980D01*
X129400208Y-54790980D02*
X129447827Y-54838600D01*
X129447827Y-54838600D02*
X129543065Y-54886219D01*
X129543065Y-54886219D02*
X129733541Y-54886219D01*
X129733541Y-54886219D02*
X129828779Y-54838600D01*
X129828779Y-54838600D02*
X129876398Y-54790980D01*
X129876398Y-54790980D02*
X129924017Y-54695742D01*
X129924017Y-54695742D02*
X129924017Y-54505266D01*
X129924017Y-54505266D02*
X129876398Y-54410028D01*
X129876398Y-54410028D02*
X129828779Y-54362409D01*
X129828779Y-54362409D02*
X129733541Y-54314790D01*
X130924017Y-54790980D02*
X130876398Y-54838600D01*
X130876398Y-54838600D02*
X130733541Y-54886219D01*
X130733541Y-54886219D02*
X130638303Y-54886219D01*
X130638303Y-54886219D02*
X130495446Y-54838600D01*
X130495446Y-54838600D02*
X130400208Y-54743361D01*
X130400208Y-54743361D02*
X130352589Y-54648123D01*
X130352589Y-54648123D02*
X130304970Y-54457647D01*
X130304970Y-54457647D02*
X130304970Y-54314790D01*
X130304970Y-54314790D02*
X130352589Y-54124314D01*
X130352589Y-54124314D02*
X130400208Y-54029076D01*
X130400208Y-54029076D02*
X130495446Y-53933838D01*
X130495446Y-53933838D02*
X130638303Y-53886219D01*
X130638303Y-53886219D02*
X130733541Y-53886219D01*
X130733541Y-53886219D02*
X130876398Y-53933838D01*
X130876398Y-53933838D02*
X130924017Y-53981457D01*
X131304970Y-53981457D02*
X131352589Y-53933838D01*
X131352589Y-53933838D02*
X131447827Y-53886219D01*
X131447827Y-53886219D02*
X131685922Y-53886219D01*
X131685922Y-53886219D02*
X131781160Y-53933838D01*
X131781160Y-53933838D02*
X131828779Y-53981457D01*
X131828779Y-53981457D02*
X131876398Y-54076695D01*
X131876398Y-54076695D02*
X131876398Y-54171933D01*
X131876398Y-54171933D02*
X131828779Y-54314790D01*
X131828779Y-54314790D02*
X131257351Y-54886219D01*
X131257351Y-54886219D02*
X131876398Y-54886219D01*
X132781160Y-53886219D02*
X132304970Y-53886219D01*
X132304970Y-53886219D02*
X132257351Y-54362409D01*
X132257351Y-54362409D02*
X132304970Y-54314790D01*
X132304970Y-54314790D02*
X132400208Y-54267171D01*
X132400208Y-54267171D02*
X132638303Y-54267171D01*
X132638303Y-54267171D02*
X132733541Y-54314790D01*
X132733541Y-54314790D02*
X132781160Y-54362409D01*
X132781160Y-54362409D02*
X132828779Y-54457647D01*
X132828779Y-54457647D02*
X132828779Y-54695742D01*
X132828779Y-54695742D02*
X132781160Y-54790980D01*
X132781160Y-54790980D02*
X132733541Y-54838600D01*
X132733541Y-54838600D02*
X132638303Y-54886219D01*
X132638303Y-54886219D02*
X132400208Y-54886219D01*
X132400208Y-54886219D02*
X132304970Y-54838600D01*
X132304970Y-54838600D02*
X132257351Y-54790980D01*
X133685922Y-53886219D02*
X133495446Y-53886219D01*
X133495446Y-53886219D02*
X133400208Y-53933838D01*
X133400208Y-53933838D02*
X133352589Y-53981457D01*
X133352589Y-53981457D02*
X133257351Y-54124314D01*
X133257351Y-54124314D02*
X133209732Y-54314790D01*
X133209732Y-54314790D02*
X133209732Y-54695742D01*
X133209732Y-54695742D02*
X133257351Y-54790980D01*
X133257351Y-54790980D02*
X133304970Y-54838600D01*
X133304970Y-54838600D02*
X133400208Y-54886219D01*
X133400208Y-54886219D02*
X133590684Y-54886219D01*
X133590684Y-54886219D02*
X133685922Y-54838600D01*
X133685922Y-54838600D02*
X133733541Y-54790980D01*
X133733541Y-54790980D02*
X133781160Y-54695742D01*
X133781160Y-54695742D02*
X133781160Y-54457647D01*
X133781160Y-54457647D02*
X133733541Y-54362409D01*
X133733541Y-54362409D02*
X133685922Y-54314790D01*
X133685922Y-54314790D02*
X133590684Y-54267171D01*
X133590684Y-54267171D02*
X133400208Y-54267171D01*
X133400208Y-54267171D02*
X133304970Y-54314790D01*
X133304970Y-54314790D02*
X133257351Y-54362409D01*
X133257351Y-54362409D02*
X133209732Y-54457647D01*
X103638457Y-110429439D02*
X103590838Y-110381820D01*
X103590838Y-110381820D02*
X103543219Y-110286582D01*
X103543219Y-110286582D02*
X103543219Y-110048487D01*
X103543219Y-110048487D02*
X103590838Y-109953249D01*
X103590838Y-109953249D02*
X103638457Y-109905630D01*
X103638457Y-109905630D02*
X103733695Y-109858011D01*
X103733695Y-109858011D02*
X103828933Y-109858011D01*
X103828933Y-109858011D02*
X103971790Y-109905630D01*
X103971790Y-109905630D02*
X104543219Y-110477058D01*
X104543219Y-110477058D02*
X104543219Y-109858011D01*
X103638457Y-109477058D02*
X103590838Y-109429439D01*
X103590838Y-109429439D02*
X103543219Y-109334201D01*
X103543219Y-109334201D02*
X103543219Y-109096106D01*
X103543219Y-109096106D02*
X103590838Y-109000868D01*
X103590838Y-109000868D02*
X103638457Y-108953249D01*
X103638457Y-108953249D02*
X103733695Y-108905630D01*
X103733695Y-108905630D02*
X103828933Y-108905630D01*
X103828933Y-108905630D02*
X103971790Y-108953249D01*
X103971790Y-108953249D02*
X104543219Y-109524677D01*
X104543219Y-109524677D02*
X104543219Y-108905630D01*
X104543219Y-108477058D02*
X103543219Y-108477058D01*
X104543219Y-107905630D02*
X103971790Y-108334201D01*
X103543219Y-107905630D02*
X104114647Y-108477058D01*
X135026495Y-146898638D02*
X134931257Y-146851019D01*
X134931257Y-146851019D02*
X134788400Y-146851019D01*
X134788400Y-146851019D02*
X134645543Y-146898638D01*
X134645543Y-146898638D02*
X134550305Y-146993876D01*
X134550305Y-146993876D02*
X134502686Y-147089114D01*
X134502686Y-147089114D02*
X134455067Y-147279590D01*
X134455067Y-147279590D02*
X134455067Y-147422447D01*
X134455067Y-147422447D02*
X134502686Y-147612923D01*
X134502686Y-147612923D02*
X134550305Y-147708161D01*
X134550305Y-147708161D02*
X134645543Y-147803400D01*
X134645543Y-147803400D02*
X134788400Y-147851019D01*
X134788400Y-147851019D02*
X134883638Y-147851019D01*
X134883638Y-147851019D02*
X135026495Y-147803400D01*
X135026495Y-147803400D02*
X135074114Y-147755780D01*
X135074114Y-147755780D02*
X135074114Y-147422447D01*
X135074114Y-147422447D02*
X134883638Y-147422447D01*
X135502686Y-147851019D02*
X135502686Y-146851019D01*
X135502686Y-146851019D02*
X136074114Y-147851019D01*
X136074114Y-147851019D02*
X136074114Y-146851019D01*
X136550305Y-147851019D02*
X136550305Y-146851019D01*
X136550305Y-146851019D02*
X136788400Y-146851019D01*
X136788400Y-146851019D02*
X136931257Y-146898638D01*
X136931257Y-146898638D02*
X137026495Y-146993876D01*
X137026495Y-146993876D02*
X137074114Y-147089114D01*
X137074114Y-147089114D02*
X137121733Y-147279590D01*
X137121733Y-147279590D02*
X137121733Y-147422447D01*
X137121733Y-147422447D02*
X137074114Y-147612923D01*
X137074114Y-147612923D02*
X137026495Y-147708161D01*
X137026495Y-147708161D02*
X136931257Y-147803400D01*
X136931257Y-147803400D02*
X136788400Y-147851019D01*
X136788400Y-147851019D02*
X136550305Y-147851019D01*
X132184950Y-137252152D02*
X132184950Y-137918819D01*
X131946855Y-136871200D02*
X131708760Y-137585485D01*
X131708760Y-137585485D02*
X132327807Y-137585485D01*
X132708760Y-137823580D02*
X132756379Y-137871200D01*
X132756379Y-137871200D02*
X132708760Y-137918819D01*
X132708760Y-137918819D02*
X132661141Y-137871200D01*
X132661141Y-137871200D02*
X132708760Y-137823580D01*
X132708760Y-137823580D02*
X132708760Y-137918819D01*
X133089712Y-136918819D02*
X133756378Y-136918819D01*
X133756378Y-136918819D02*
X133327807Y-137918819D01*
X134137331Y-137918819D02*
X134137331Y-136918819D01*
X134708759Y-137918819D02*
X134280188Y-137347390D01*
X134708759Y-136918819D02*
X134137331Y-137490247D01*
X98498188Y-129765419D02*
X97926760Y-129765419D01*
X98212474Y-129765419D02*
X98212474Y-128765419D01*
X98212474Y-128765419D02*
X98117236Y-128908276D01*
X98117236Y-128908276D02*
X98021998Y-129003514D01*
X98021998Y-129003514D02*
X97926760Y-129051133D01*
X99117236Y-128765419D02*
X99212474Y-128765419D01*
X99212474Y-128765419D02*
X99307712Y-128813038D01*
X99307712Y-128813038D02*
X99355331Y-128860657D01*
X99355331Y-128860657D02*
X99402950Y-128955895D01*
X99402950Y-128955895D02*
X99450569Y-129146371D01*
X99450569Y-129146371D02*
X99450569Y-129384466D01*
X99450569Y-129384466D02*
X99402950Y-129574942D01*
X99402950Y-129574942D02*
X99355331Y-129670180D01*
X99355331Y-129670180D02*
X99307712Y-129717800D01*
X99307712Y-129717800D02*
X99212474Y-129765419D01*
X99212474Y-129765419D02*
X99117236Y-129765419D01*
X99117236Y-129765419D02*
X99021998Y-129717800D01*
X99021998Y-129717800D02*
X98974379Y-129670180D01*
X98974379Y-129670180D02*
X98926760Y-129574942D01*
X98926760Y-129574942D02*
X98879141Y-129384466D01*
X98879141Y-129384466D02*
X98879141Y-129146371D01*
X98879141Y-129146371D02*
X98926760Y-128955895D01*
X98926760Y-128955895D02*
X98974379Y-128860657D01*
X98974379Y-128860657D02*
X99021998Y-128813038D01*
X99021998Y-128813038D02*
X99117236Y-128765419D01*
X100069617Y-128765419D02*
X100164855Y-128765419D01*
X100164855Y-128765419D02*
X100260093Y-128813038D01*
X100260093Y-128813038D02*
X100307712Y-128860657D01*
X100307712Y-128860657D02*
X100355331Y-128955895D01*
X100355331Y-128955895D02*
X100402950Y-129146371D01*
X100402950Y-129146371D02*
X100402950Y-129384466D01*
X100402950Y-129384466D02*
X100355331Y-129574942D01*
X100355331Y-129574942D02*
X100307712Y-129670180D01*
X100307712Y-129670180D02*
X100260093Y-129717800D01*
X100260093Y-129717800D02*
X100164855Y-129765419D01*
X100164855Y-129765419D02*
X100069617Y-129765419D01*
X100069617Y-129765419D02*
X99974379Y-129717800D01*
X99974379Y-129717800D02*
X99926760Y-129670180D01*
X99926760Y-129670180D02*
X99879141Y-129574942D01*
X99879141Y-129574942D02*
X99831522Y-129384466D01*
X99831522Y-129384466D02*
X99831522Y-129146371D01*
X99831522Y-129146371D02*
X99879141Y-128955895D01*
X99879141Y-128955895D02*
X99926760Y-128860657D01*
X99926760Y-128860657D02*
X99974379Y-128813038D01*
X99974379Y-128813038D02*
X100069617Y-128765419D01*
X101260093Y-129098752D02*
X101260093Y-129765419D01*
X100831522Y-129098752D02*
X100831522Y-129622561D01*
X100831522Y-129622561D02*
X100879141Y-129717800D01*
X100879141Y-129717800D02*
X100974379Y-129765419D01*
X100974379Y-129765419D02*
X101117236Y-129765419D01*
X101117236Y-129765419D02*
X101212474Y-129717800D01*
X101212474Y-129717800D02*
X101260093Y-129670180D01*
X102069617Y-129241609D02*
X101736284Y-129241609D01*
X101736284Y-129765419D02*
X101736284Y-128765419D01*
X101736284Y-128765419D02*
X102212474Y-128765419D01*
X103879141Y-129765419D02*
X103307713Y-129765419D01*
X103593427Y-129765419D02*
X103593427Y-128765419D01*
X103593427Y-128765419D02*
X103498189Y-128908276D01*
X103498189Y-128908276D02*
X103402951Y-129003514D01*
X103402951Y-129003514D02*
X103307713Y-129051133D01*
X104498189Y-128765419D02*
X104593427Y-128765419D01*
X104593427Y-128765419D02*
X104688665Y-128813038D01*
X104688665Y-128813038D02*
X104736284Y-128860657D01*
X104736284Y-128860657D02*
X104783903Y-128955895D01*
X104783903Y-128955895D02*
X104831522Y-129146371D01*
X104831522Y-129146371D02*
X104831522Y-129384466D01*
X104831522Y-129384466D02*
X104783903Y-129574942D01*
X104783903Y-129574942D02*
X104736284Y-129670180D01*
X104736284Y-129670180D02*
X104688665Y-129717800D01*
X104688665Y-129717800D02*
X104593427Y-129765419D01*
X104593427Y-129765419D02*
X104498189Y-129765419D01*
X104498189Y-129765419D02*
X104402951Y-129717800D01*
X104402951Y-129717800D02*
X104355332Y-129670180D01*
X104355332Y-129670180D02*
X104307713Y-129574942D01*
X104307713Y-129574942D02*
X104260094Y-129384466D01*
X104260094Y-129384466D02*
X104260094Y-129146371D01*
X104260094Y-129146371D02*
X104307713Y-128955895D01*
X104307713Y-128955895D02*
X104355332Y-128860657D01*
X104355332Y-128860657D02*
X104402951Y-128813038D01*
X104402951Y-128813038D02*
X104498189Y-128765419D01*
X105117237Y-128765419D02*
X105450570Y-129765419D01*
X105450570Y-129765419D02*
X105783903Y-128765419D01*
X95313693Y-95217931D02*
X95313693Y-95932216D01*
X95313693Y-95932216D02*
X95266074Y-96075073D01*
X95266074Y-96075073D02*
X95170836Y-96170312D01*
X95170836Y-96170312D02*
X95027979Y-96217931D01*
X95027979Y-96217931D02*
X94932741Y-96217931D01*
X95789884Y-96217931D02*
X95789884Y-95217931D01*
X95789884Y-95217931D02*
X96170836Y-95217931D01*
X96170836Y-95217931D02*
X96266074Y-95265550D01*
X96266074Y-95265550D02*
X96313693Y-95313169D01*
X96313693Y-95313169D02*
X96361312Y-95408407D01*
X96361312Y-95408407D02*
X96361312Y-95551264D01*
X96361312Y-95551264D02*
X96313693Y-95646502D01*
X96313693Y-95646502D02*
X96266074Y-95694121D01*
X96266074Y-95694121D02*
X96170836Y-95741740D01*
X96170836Y-95741740D02*
X95789884Y-95741740D01*
X97313693Y-96217931D02*
X96742265Y-96217931D01*
X97027979Y-96217931D02*
X97027979Y-95217931D01*
X97027979Y-95217931D02*
X96932741Y-95360788D01*
X96932741Y-95360788D02*
X96837503Y-95456026D01*
X96837503Y-95456026D02*
X96742265Y-95503645D01*
X95551788Y-97827875D02*
X94980360Y-97827875D01*
X95266074Y-97827875D02*
X95266074Y-96827875D01*
X95266074Y-96827875D02*
X95170836Y-96970732D01*
X95170836Y-96970732D02*
X95075598Y-97065970D01*
X95075598Y-97065970D02*
X94980360Y-97113589D01*
X95980360Y-97446922D02*
X96742265Y-97446922D01*
X97170836Y-96923113D02*
X97218455Y-96875494D01*
X97218455Y-96875494D02*
X97313693Y-96827875D01*
X97313693Y-96827875D02*
X97551788Y-96827875D01*
X97551788Y-96827875D02*
X97647026Y-96875494D01*
X97647026Y-96875494D02*
X97694645Y-96923113D01*
X97694645Y-96923113D02*
X97742264Y-97018351D01*
X97742264Y-97018351D02*
X97742264Y-97113589D01*
X97742264Y-97113589D02*
X97694645Y-97256446D01*
X97694645Y-97256446D02*
X97123217Y-97827875D01*
X97123217Y-97827875D02*
X97742264Y-97827875D01*
X98170836Y-97732636D02*
X98218455Y-97780256D01*
X98218455Y-97780256D02*
X98170836Y-97827875D01*
X98170836Y-97827875D02*
X98123217Y-97780256D01*
X98123217Y-97780256D02*
X98170836Y-97732636D01*
X98170836Y-97732636D02*
X98170836Y-97827875D01*
X98170836Y-97208827D02*
X98218455Y-97256446D01*
X98218455Y-97256446D02*
X98170836Y-97304065D01*
X98170836Y-97304065D02*
X98123217Y-97256446D01*
X98123217Y-97256446D02*
X98170836Y-97208827D01*
X98170836Y-97208827D02*
X98170836Y-97304065D01*
X99980359Y-97827875D02*
X99647026Y-97351684D01*
X99408931Y-97827875D02*
X99408931Y-96827875D01*
X99408931Y-96827875D02*
X99789883Y-96827875D01*
X99789883Y-96827875D02*
X99885121Y-96875494D01*
X99885121Y-96875494D02*
X99932740Y-96923113D01*
X99932740Y-96923113D02*
X99980359Y-97018351D01*
X99980359Y-97018351D02*
X99980359Y-97161208D01*
X99980359Y-97161208D02*
X99932740Y-97256446D01*
X99932740Y-97256446D02*
X99885121Y-97304065D01*
X99885121Y-97304065D02*
X99789883Y-97351684D01*
X99789883Y-97351684D02*
X99408931Y-97351684D01*
X100599407Y-96827875D02*
X100789883Y-96827875D01*
X100789883Y-96827875D02*
X100885121Y-96875494D01*
X100885121Y-96875494D02*
X100980359Y-96970732D01*
X100980359Y-96970732D02*
X101027978Y-97161208D01*
X101027978Y-97161208D02*
X101027978Y-97494541D01*
X101027978Y-97494541D02*
X100980359Y-97685017D01*
X100980359Y-97685017D02*
X100885121Y-97780256D01*
X100885121Y-97780256D02*
X100789883Y-97827875D01*
X100789883Y-97827875D02*
X100599407Y-97827875D01*
X100599407Y-97827875D02*
X100504169Y-97780256D01*
X100504169Y-97780256D02*
X100408931Y-97685017D01*
X100408931Y-97685017D02*
X100361312Y-97494541D01*
X100361312Y-97494541D02*
X100361312Y-97161208D01*
X100361312Y-97161208D02*
X100408931Y-96970732D01*
X100408931Y-96970732D02*
X100504169Y-96875494D01*
X100504169Y-96875494D02*
X100599407Y-96827875D01*
X101456550Y-97827875D02*
X101456550Y-96827875D01*
X101456550Y-96827875D02*
X101789883Y-97542160D01*
X101789883Y-97542160D02*
X102123216Y-96827875D01*
X102123216Y-96827875D02*
X102123216Y-97827875D01*
X94980360Y-98533057D02*
X95027979Y-98485438D01*
X95027979Y-98485438D02*
X95123217Y-98437819D01*
X95123217Y-98437819D02*
X95361312Y-98437819D01*
X95361312Y-98437819D02*
X95456550Y-98485438D01*
X95456550Y-98485438D02*
X95504169Y-98533057D01*
X95504169Y-98533057D02*
X95551788Y-98628295D01*
X95551788Y-98628295D02*
X95551788Y-98723533D01*
X95551788Y-98723533D02*
X95504169Y-98866390D01*
X95504169Y-98866390D02*
X94932741Y-99437819D01*
X94932741Y-99437819D02*
X95551788Y-99437819D01*
X95980360Y-99056866D02*
X96742265Y-99056866D01*
X97123217Y-98437819D02*
X97742264Y-98437819D01*
X97742264Y-98437819D02*
X97408931Y-98818771D01*
X97408931Y-98818771D02*
X97551788Y-98818771D01*
X97551788Y-98818771D02*
X97647026Y-98866390D01*
X97647026Y-98866390D02*
X97694645Y-98914009D01*
X97694645Y-98914009D02*
X97742264Y-99009247D01*
X97742264Y-99009247D02*
X97742264Y-99247342D01*
X97742264Y-99247342D02*
X97694645Y-99342580D01*
X97694645Y-99342580D02*
X97647026Y-99390200D01*
X97647026Y-99390200D02*
X97551788Y-99437819D01*
X97551788Y-99437819D02*
X97266074Y-99437819D01*
X97266074Y-99437819D02*
X97170836Y-99390200D01*
X97170836Y-99390200D02*
X97123217Y-99342580D01*
X98170836Y-99342580D02*
X98218455Y-99390200D01*
X98218455Y-99390200D02*
X98170836Y-99437819D01*
X98170836Y-99437819D02*
X98123217Y-99390200D01*
X98123217Y-99390200D02*
X98170836Y-99342580D01*
X98170836Y-99342580D02*
X98170836Y-99437819D01*
X98170836Y-98818771D02*
X98218455Y-98866390D01*
X98218455Y-98866390D02*
X98170836Y-98914009D01*
X98170836Y-98914009D02*
X98123217Y-98866390D01*
X98123217Y-98866390D02*
X98170836Y-98818771D01*
X98170836Y-98818771D02*
X98170836Y-98914009D01*
X99980359Y-99437819D02*
X99647026Y-98961628D01*
X99408931Y-99437819D02*
X99408931Y-98437819D01*
X99408931Y-98437819D02*
X99789883Y-98437819D01*
X99789883Y-98437819D02*
X99885121Y-98485438D01*
X99885121Y-98485438D02*
X99932740Y-98533057D01*
X99932740Y-98533057D02*
X99980359Y-98628295D01*
X99980359Y-98628295D02*
X99980359Y-98771152D01*
X99980359Y-98771152D02*
X99932740Y-98866390D01*
X99932740Y-98866390D02*
X99885121Y-98914009D01*
X99885121Y-98914009D02*
X99789883Y-98961628D01*
X99789883Y-98961628D02*
X99408931Y-98961628D01*
X100361312Y-99152104D02*
X100837502Y-99152104D01*
X100266074Y-99437819D02*
X100599407Y-98437819D01*
X100599407Y-98437819D02*
X100932740Y-99437819D01*
X101266074Y-99437819D02*
X101266074Y-98437819D01*
X101266074Y-98437819D02*
X101599407Y-99152104D01*
X101599407Y-99152104D02*
X101932740Y-98437819D01*
X101932740Y-98437819D02*
X101932740Y-99437819D01*
X94757952Y-113280649D02*
X95424619Y-113280649D01*
X94377000Y-113518744D02*
X95091285Y-113756839D01*
X95091285Y-113756839D02*
X95091285Y-113137792D01*
X95329380Y-112756839D02*
X95377000Y-112709220D01*
X95377000Y-112709220D02*
X95424619Y-112756839D01*
X95424619Y-112756839D02*
X95377000Y-112804458D01*
X95377000Y-112804458D02*
X95329380Y-112756839D01*
X95329380Y-112756839D02*
X95424619Y-112756839D01*
X94424619Y-112375887D02*
X94424619Y-111709221D01*
X94424619Y-111709221D02*
X95424619Y-112137792D01*
X95424619Y-111328268D02*
X94424619Y-111328268D01*
X95424619Y-110756840D02*
X94853190Y-111185411D01*
X94424619Y-110756840D02*
X94996047Y-111328268D01*
X120272350Y-137099752D02*
X120272350Y-137766419D01*
X120034255Y-136718800D02*
X119796160Y-137433085D01*
X119796160Y-137433085D02*
X120415207Y-137433085D01*
X120700922Y-136766419D02*
X121367588Y-136766419D01*
X121367588Y-136766419D02*
X120939017Y-137766419D01*
X121748541Y-137766419D02*
X121748541Y-136766419D01*
X122319969Y-137766419D02*
X121891398Y-137194990D01*
X122319969Y-136766419D02*
X121748541Y-137337847D01*
X88322379Y-55318019D02*
X88322379Y-54318019D01*
X88322379Y-54318019D02*
X88655712Y-55032304D01*
X88655712Y-55032304D02*
X88989045Y-54318019D01*
X88989045Y-54318019D02*
X88989045Y-55318019D01*
X89941426Y-54318019D02*
X89465236Y-54318019D01*
X89465236Y-54318019D02*
X89417617Y-54794209D01*
X89417617Y-54794209D02*
X89465236Y-54746590D01*
X89465236Y-54746590D02*
X89560474Y-54698971D01*
X89560474Y-54698971D02*
X89798569Y-54698971D01*
X89798569Y-54698971D02*
X89893807Y-54746590D01*
X89893807Y-54746590D02*
X89941426Y-54794209D01*
X89941426Y-54794209D02*
X89989045Y-54889447D01*
X89989045Y-54889447D02*
X89989045Y-55127542D01*
X89989045Y-55127542D02*
X89941426Y-55222780D01*
X89941426Y-55222780D02*
X89893807Y-55270400D01*
X89893807Y-55270400D02*
X89798569Y-55318019D01*
X89798569Y-55318019D02*
X89560474Y-55318019D01*
X89560474Y-55318019D02*
X89465236Y-55270400D01*
X89465236Y-55270400D02*
X89417617Y-55222780D01*
X90608093Y-54318019D02*
X90703331Y-54318019D01*
X90703331Y-54318019D02*
X90798569Y-54365638D01*
X90798569Y-54365638D02*
X90846188Y-54413257D01*
X90846188Y-54413257D02*
X90893807Y-54508495D01*
X90893807Y-54508495D02*
X90941426Y-54698971D01*
X90941426Y-54698971D02*
X90941426Y-54937066D01*
X90941426Y-54937066D02*
X90893807Y-55127542D01*
X90893807Y-55127542D02*
X90846188Y-55222780D01*
X90846188Y-55222780D02*
X90798569Y-55270400D01*
X90798569Y-55270400D02*
X90703331Y-55318019D01*
X90703331Y-55318019D02*
X90608093Y-55318019D01*
X90608093Y-55318019D02*
X90512855Y-55270400D01*
X90512855Y-55270400D02*
X90465236Y-55222780D01*
X90465236Y-55222780D02*
X90417617Y-55127542D01*
X90417617Y-55127542D02*
X90369998Y-54937066D01*
X90369998Y-54937066D02*
X90369998Y-54698971D01*
X90369998Y-54698971D02*
X90417617Y-54508495D01*
X90417617Y-54508495D02*
X90465236Y-54413257D01*
X90465236Y-54413257D02*
X90512855Y-54365638D01*
X90512855Y-54365638D02*
X90608093Y-54318019D01*
X91274760Y-54318019D02*
X91941426Y-54318019D01*
X91941426Y-54318019D02*
X91512855Y-55318019D01*
X92750950Y-54651352D02*
X92750950Y-55318019D01*
X92512855Y-54270400D02*
X92274760Y-54984685D01*
X92274760Y-54984685D02*
X92893807Y-54984685D01*
X93179522Y-54318019D02*
X93846188Y-54318019D01*
X93846188Y-54318019D02*
X93417617Y-55318019D01*
X94227141Y-54794209D02*
X94560474Y-54794209D01*
X94703331Y-55318019D02*
X94227141Y-55318019D01*
X94227141Y-55318019D02*
X94227141Y-54318019D01*
X94227141Y-54318019D02*
X94703331Y-54318019D01*
X95084284Y-55270400D02*
X95227141Y-55318019D01*
X95227141Y-55318019D02*
X95465236Y-55318019D01*
X95465236Y-55318019D02*
X95560474Y-55270400D01*
X95560474Y-55270400D02*
X95608093Y-55222780D01*
X95608093Y-55222780D02*
X95655712Y-55127542D01*
X95655712Y-55127542D02*
X95655712Y-55032304D01*
X95655712Y-55032304D02*
X95608093Y-54937066D01*
X95608093Y-54937066D02*
X95560474Y-54889447D01*
X95560474Y-54889447D02*
X95465236Y-54841828D01*
X95465236Y-54841828D02*
X95274760Y-54794209D01*
X95274760Y-54794209D02*
X95179522Y-54746590D01*
X95179522Y-54746590D02*
X95131903Y-54698971D01*
X95131903Y-54698971D02*
X95084284Y-54603733D01*
X95084284Y-54603733D02*
X95084284Y-54508495D01*
X95084284Y-54508495D02*
X95131903Y-54413257D01*
X95131903Y-54413257D02*
X95179522Y-54365638D01*
X95179522Y-54365638D02*
X95274760Y-54318019D01*
X95274760Y-54318019D02*
X95512855Y-54318019D01*
X95512855Y-54318019D02*
X95655712Y-54365638D01*
X96084284Y-55318019D02*
X96084284Y-54318019D01*
X96084284Y-54318019D02*
X96465236Y-54318019D01*
X96465236Y-54318019D02*
X96560474Y-54365638D01*
X96560474Y-54365638D02*
X96608093Y-54413257D01*
X96608093Y-54413257D02*
X96655712Y-54508495D01*
X96655712Y-54508495D02*
X96655712Y-54651352D01*
X96655712Y-54651352D02*
X96608093Y-54746590D01*
X96608093Y-54746590D02*
X96560474Y-54794209D01*
X96560474Y-54794209D02*
X96465236Y-54841828D01*
X96465236Y-54841828D02*
X96084284Y-54841828D01*
X87084093Y-118458931D02*
X87084093Y-119173216D01*
X87084093Y-119173216D02*
X87036474Y-119316073D01*
X87036474Y-119316073D02*
X86941236Y-119411312D01*
X86941236Y-119411312D02*
X86798379Y-119458931D01*
X86798379Y-119458931D02*
X86703141Y-119458931D01*
X87560284Y-119458931D02*
X87560284Y-118458931D01*
X87560284Y-118458931D02*
X87941236Y-118458931D01*
X87941236Y-118458931D02*
X88036474Y-118506550D01*
X88036474Y-118506550D02*
X88084093Y-118554169D01*
X88084093Y-118554169D02*
X88131712Y-118649407D01*
X88131712Y-118649407D02*
X88131712Y-118792264D01*
X88131712Y-118792264D02*
X88084093Y-118887502D01*
X88084093Y-118887502D02*
X88036474Y-118935121D01*
X88036474Y-118935121D02*
X87941236Y-118982740D01*
X87941236Y-118982740D02*
X87560284Y-118982740D01*
X88465046Y-118458931D02*
X89084093Y-118458931D01*
X89084093Y-118458931D02*
X88750760Y-118839883D01*
X88750760Y-118839883D02*
X88893617Y-118839883D01*
X88893617Y-118839883D02*
X88988855Y-118887502D01*
X88988855Y-118887502D02*
X89036474Y-118935121D01*
X89036474Y-118935121D02*
X89084093Y-119030359D01*
X89084093Y-119030359D02*
X89084093Y-119268454D01*
X89084093Y-119268454D02*
X89036474Y-119363692D01*
X89036474Y-119363692D02*
X88988855Y-119411312D01*
X88988855Y-119411312D02*
X88893617Y-119458931D01*
X88893617Y-119458931D02*
X88607903Y-119458931D01*
X88607903Y-119458931D02*
X88512665Y-119411312D01*
X88512665Y-119411312D02*
X88465046Y-119363692D01*
X87322188Y-121068875D02*
X86750760Y-121068875D01*
X87036474Y-121068875D02*
X87036474Y-120068875D01*
X87036474Y-120068875D02*
X86941236Y-120211732D01*
X86941236Y-120211732D02*
X86845998Y-120306970D01*
X86845998Y-120306970D02*
X86750760Y-120354589D01*
X87750760Y-120687922D02*
X88512665Y-120687922D01*
X88941236Y-120164113D02*
X88988855Y-120116494D01*
X88988855Y-120116494D02*
X89084093Y-120068875D01*
X89084093Y-120068875D02*
X89322188Y-120068875D01*
X89322188Y-120068875D02*
X89417426Y-120116494D01*
X89417426Y-120116494D02*
X89465045Y-120164113D01*
X89465045Y-120164113D02*
X89512664Y-120259351D01*
X89512664Y-120259351D02*
X89512664Y-120354589D01*
X89512664Y-120354589D02*
X89465045Y-120497446D01*
X89465045Y-120497446D02*
X88893617Y-121068875D01*
X88893617Y-121068875D02*
X89512664Y-121068875D01*
X89941236Y-120973636D02*
X89988855Y-121021256D01*
X89988855Y-121021256D02*
X89941236Y-121068875D01*
X89941236Y-121068875D02*
X89893617Y-121021256D01*
X89893617Y-121021256D02*
X89941236Y-120973636D01*
X89941236Y-120973636D02*
X89941236Y-121068875D01*
X89941236Y-120449827D02*
X89988855Y-120497446D01*
X89988855Y-120497446D02*
X89941236Y-120545065D01*
X89941236Y-120545065D02*
X89893617Y-120497446D01*
X89893617Y-120497446D02*
X89941236Y-120449827D01*
X89941236Y-120449827D02*
X89941236Y-120545065D01*
X91560283Y-121021256D02*
X91465045Y-121068875D01*
X91465045Y-121068875D02*
X91274569Y-121068875D01*
X91274569Y-121068875D02*
X91179331Y-121021256D01*
X91179331Y-121021256D02*
X91131712Y-120926017D01*
X91131712Y-120926017D02*
X91131712Y-120545065D01*
X91131712Y-120545065D02*
X91179331Y-120449827D01*
X91179331Y-120449827D02*
X91274569Y-120402208D01*
X91274569Y-120402208D02*
X91465045Y-120402208D01*
X91465045Y-120402208D02*
X91560283Y-120449827D01*
X91560283Y-120449827D02*
X91607902Y-120545065D01*
X91607902Y-120545065D02*
X91607902Y-120640303D01*
X91607902Y-120640303D02*
X91131712Y-120735541D01*
X91941236Y-121068875D02*
X92465045Y-120402208D01*
X91941236Y-120402208D02*
X92465045Y-121068875D01*
X92703141Y-120402208D02*
X93084093Y-120402208D01*
X92845998Y-120068875D02*
X92845998Y-120926017D01*
X92845998Y-120926017D02*
X92893617Y-121021256D01*
X92893617Y-121021256D02*
X92988855Y-121068875D01*
X92988855Y-121068875D02*
X93084093Y-121068875D01*
X93417427Y-121068875D02*
X93417427Y-120068875D01*
X93417427Y-120068875D02*
X93750760Y-120783160D01*
X93750760Y-120783160D02*
X94084093Y-120068875D01*
X94084093Y-120068875D02*
X94084093Y-121068875D01*
X94560284Y-120545065D02*
X94893617Y-120545065D01*
X95036474Y-121068875D02*
X94560284Y-121068875D01*
X94560284Y-121068875D02*
X94560284Y-120068875D01*
X94560284Y-120068875D02*
X95036474Y-120068875D01*
X95465046Y-121068875D02*
X95465046Y-120068875D01*
X95465046Y-120068875D02*
X95798379Y-120783160D01*
X95798379Y-120783160D02*
X96131712Y-120068875D01*
X96131712Y-120068875D02*
X96131712Y-121068875D01*
X86750760Y-121774057D02*
X86798379Y-121726438D01*
X86798379Y-121726438D02*
X86893617Y-121678819D01*
X86893617Y-121678819D02*
X87131712Y-121678819D01*
X87131712Y-121678819D02*
X87226950Y-121726438D01*
X87226950Y-121726438D02*
X87274569Y-121774057D01*
X87274569Y-121774057D02*
X87322188Y-121869295D01*
X87322188Y-121869295D02*
X87322188Y-121964533D01*
X87322188Y-121964533D02*
X87274569Y-122107390D01*
X87274569Y-122107390D02*
X86703141Y-122678819D01*
X86703141Y-122678819D02*
X87322188Y-122678819D01*
X87750760Y-122297866D02*
X88512665Y-122297866D01*
X88893617Y-121678819D02*
X89512664Y-121678819D01*
X89512664Y-121678819D02*
X89179331Y-122059771D01*
X89179331Y-122059771D02*
X89322188Y-122059771D01*
X89322188Y-122059771D02*
X89417426Y-122107390D01*
X89417426Y-122107390D02*
X89465045Y-122155009D01*
X89465045Y-122155009D02*
X89512664Y-122250247D01*
X89512664Y-122250247D02*
X89512664Y-122488342D01*
X89512664Y-122488342D02*
X89465045Y-122583580D01*
X89465045Y-122583580D02*
X89417426Y-122631200D01*
X89417426Y-122631200D02*
X89322188Y-122678819D01*
X89322188Y-122678819D02*
X89036474Y-122678819D01*
X89036474Y-122678819D02*
X88941236Y-122631200D01*
X88941236Y-122631200D02*
X88893617Y-122583580D01*
X89941236Y-122583580D02*
X89988855Y-122631200D01*
X89988855Y-122631200D02*
X89941236Y-122678819D01*
X89941236Y-122678819D02*
X89893617Y-122631200D01*
X89893617Y-122631200D02*
X89941236Y-122583580D01*
X89941236Y-122583580D02*
X89941236Y-122678819D01*
X89941236Y-122059771D02*
X89988855Y-122107390D01*
X89988855Y-122107390D02*
X89941236Y-122155009D01*
X89941236Y-122155009D02*
X89893617Y-122107390D01*
X89893617Y-122107390D02*
X89941236Y-122059771D01*
X89941236Y-122059771D02*
X89941236Y-122155009D01*
X91179331Y-122678819D02*
X91179331Y-121678819D01*
X91655521Y-122012152D02*
X91655521Y-122678819D01*
X91655521Y-122107390D02*
X91703140Y-122059771D01*
X91703140Y-122059771D02*
X91798378Y-122012152D01*
X91798378Y-122012152D02*
X91941235Y-122012152D01*
X91941235Y-122012152D02*
X92036473Y-122059771D01*
X92036473Y-122059771D02*
X92084092Y-122155009D01*
X92084092Y-122155009D02*
X92084092Y-122678819D01*
X92417426Y-122012152D02*
X92798378Y-122012152D01*
X92560283Y-121678819D02*
X92560283Y-122535961D01*
X92560283Y-122535961D02*
X92607902Y-122631200D01*
X92607902Y-122631200D02*
X92703140Y-122678819D01*
X92703140Y-122678819D02*
X92798378Y-122678819D01*
X93131712Y-122678819D02*
X93131712Y-121678819D01*
X93131712Y-121678819D02*
X93465045Y-122393104D01*
X93465045Y-122393104D02*
X93798378Y-121678819D01*
X93798378Y-121678819D02*
X93798378Y-122678819D01*
X94274569Y-122155009D02*
X94607902Y-122155009D01*
X94750759Y-122678819D02*
X94274569Y-122678819D01*
X94274569Y-122678819D02*
X94274569Y-121678819D01*
X94274569Y-121678819D02*
X94750759Y-121678819D01*
X95179331Y-122678819D02*
X95179331Y-121678819D01*
X95179331Y-121678819D02*
X95512664Y-122393104D01*
X95512664Y-122393104D02*
X95845997Y-121678819D01*
X95845997Y-121678819D02*
X95845997Y-122678819D01*
X132243580Y-147831980D02*
X132195961Y-147879600D01*
X132195961Y-147879600D02*
X132053104Y-147927219D01*
X132053104Y-147927219D02*
X131957866Y-147927219D01*
X131957866Y-147927219D02*
X131815009Y-147879600D01*
X131815009Y-147879600D02*
X131719771Y-147784361D01*
X131719771Y-147784361D02*
X131672152Y-147689123D01*
X131672152Y-147689123D02*
X131624533Y-147498647D01*
X131624533Y-147498647D02*
X131624533Y-147355790D01*
X131624533Y-147355790D02*
X131672152Y-147165314D01*
X131672152Y-147165314D02*
X131719771Y-147070076D01*
X131719771Y-147070076D02*
X131815009Y-146974838D01*
X131815009Y-146974838D02*
X131957866Y-146927219D01*
X131957866Y-146927219D02*
X132053104Y-146927219D01*
X132053104Y-146927219D02*
X132195961Y-146974838D01*
X132195961Y-146974838D02*
X132243580Y-147022457D01*
X132529295Y-146927219D02*
X133100723Y-146927219D01*
X132815009Y-147927219D02*
X132815009Y-146927219D01*
X133386438Y-147879600D02*
X133529295Y-147927219D01*
X133529295Y-147927219D02*
X133767390Y-147927219D01*
X133767390Y-147927219D02*
X133862628Y-147879600D01*
X133862628Y-147879600D02*
X133910247Y-147831980D01*
X133910247Y-147831980D02*
X133957866Y-147736742D01*
X133957866Y-147736742D02*
X133957866Y-147641504D01*
X133957866Y-147641504D02*
X133910247Y-147546266D01*
X133910247Y-147546266D02*
X133862628Y-147498647D01*
X133862628Y-147498647D02*
X133767390Y-147451028D01*
X133767390Y-147451028D02*
X133576914Y-147403409D01*
X133576914Y-147403409D02*
X133481676Y-147355790D01*
X133481676Y-147355790D02*
X133434057Y-147308171D01*
X133434057Y-147308171D02*
X133386438Y-147212933D01*
X133386438Y-147212933D02*
X133386438Y-147117695D01*
X133386438Y-147117695D02*
X133434057Y-147022457D01*
X133434057Y-147022457D02*
X133481676Y-146974838D01*
X133481676Y-146974838D02*
X133576914Y-146927219D01*
X133576914Y-146927219D02*
X133815009Y-146927219D01*
X133815009Y-146927219D02*
X133957866Y-146974838D01*
X109328179Y-144386075D02*
X109328179Y-143386075D01*
X109328179Y-143386075D02*
X109709131Y-143386075D01*
X109709131Y-143386075D02*
X109804369Y-143433694D01*
X109804369Y-143433694D02*
X109851988Y-143481313D01*
X109851988Y-143481313D02*
X109899607Y-143576551D01*
X109899607Y-143576551D02*
X109899607Y-143719408D01*
X109899607Y-143719408D02*
X109851988Y-143814646D01*
X109851988Y-143814646D02*
X109804369Y-143862265D01*
X109804369Y-143862265D02*
X109709131Y-143909884D01*
X109709131Y-143909884D02*
X109328179Y-143909884D01*
X110518655Y-143386075D02*
X110709131Y-143386075D01*
X110709131Y-143386075D02*
X110804369Y-143433694D01*
X110804369Y-143433694D02*
X110899607Y-143528932D01*
X110899607Y-143528932D02*
X110947226Y-143719408D01*
X110947226Y-143719408D02*
X110947226Y-144052741D01*
X110947226Y-144052741D02*
X110899607Y-144243217D01*
X110899607Y-144243217D02*
X110804369Y-144338456D01*
X110804369Y-144338456D02*
X110709131Y-144386075D01*
X110709131Y-144386075D02*
X110518655Y-144386075D01*
X110518655Y-144386075D02*
X110423417Y-144338456D01*
X110423417Y-144338456D02*
X110328179Y-144243217D01*
X110328179Y-144243217D02*
X110280560Y-144052741D01*
X110280560Y-144052741D02*
X110280560Y-143719408D01*
X110280560Y-143719408D02*
X110328179Y-143528932D01*
X110328179Y-143528932D02*
X110423417Y-143433694D01*
X110423417Y-143433694D02*
X110518655Y-143386075D01*
X111280560Y-143386075D02*
X111518655Y-144386075D01*
X111518655Y-144386075D02*
X111709131Y-143671789D01*
X111709131Y-143671789D02*
X111899607Y-144386075D01*
X111899607Y-144386075D02*
X112137703Y-143386075D01*
X112518655Y-143862265D02*
X112851988Y-143862265D01*
X112994845Y-144386075D02*
X112518655Y-144386075D01*
X112518655Y-144386075D02*
X112518655Y-143386075D01*
X112518655Y-143386075D02*
X112994845Y-143386075D01*
X113994845Y-144386075D02*
X113661512Y-143909884D01*
X113423417Y-144386075D02*
X113423417Y-143386075D01*
X113423417Y-143386075D02*
X113804369Y-143386075D01*
X113804369Y-143386075D02*
X113899607Y-143433694D01*
X113899607Y-143433694D02*
X113947226Y-143481313D01*
X113947226Y-143481313D02*
X113994845Y-143576551D01*
X113994845Y-143576551D02*
X113994845Y-143719408D01*
X113994845Y-143719408D02*
X113947226Y-143814646D01*
X113947226Y-143814646D02*
X113899607Y-143862265D01*
X113899607Y-143862265D02*
X113804369Y-143909884D01*
X113804369Y-143909884D02*
X113423417Y-143909884D01*
X109804369Y-144996019D02*
X109328179Y-144996019D01*
X109328179Y-144996019D02*
X109280560Y-145472209D01*
X109280560Y-145472209D02*
X109328179Y-145424590D01*
X109328179Y-145424590D02*
X109423417Y-145376971D01*
X109423417Y-145376971D02*
X109661512Y-145376971D01*
X109661512Y-145376971D02*
X109756750Y-145424590D01*
X109756750Y-145424590D02*
X109804369Y-145472209D01*
X109804369Y-145472209D02*
X109851988Y-145567447D01*
X109851988Y-145567447D02*
X109851988Y-145805542D01*
X109851988Y-145805542D02*
X109804369Y-145900780D01*
X109804369Y-145900780D02*
X109756750Y-145948400D01*
X109756750Y-145948400D02*
X109661512Y-145996019D01*
X109661512Y-145996019D02*
X109423417Y-145996019D01*
X109423417Y-145996019D02*
X109328179Y-145948400D01*
X109328179Y-145948400D02*
X109280560Y-145900780D01*
X110137703Y-144996019D02*
X110471036Y-145996019D01*
X110471036Y-145996019D02*
X110804369Y-144996019D01*
X112423417Y-145996019D02*
X111851989Y-145996019D01*
X112137703Y-145996019D02*
X112137703Y-144996019D01*
X112137703Y-144996019D02*
X112042465Y-145138876D01*
X112042465Y-145138876D02*
X111947227Y-145234114D01*
X111947227Y-145234114D02*
X111851989Y-145281733D01*
X112804370Y-145710304D02*
X113280560Y-145710304D01*
X112709132Y-145996019D02*
X113042465Y-144996019D01*
X113042465Y-144996019D02*
X113375798Y-145996019D01*
X73580788Y-123313819D02*
X73009360Y-123313819D01*
X73295074Y-123313819D02*
X73295074Y-122313819D01*
X73295074Y-122313819D02*
X73199836Y-122456676D01*
X73199836Y-122456676D02*
X73104598Y-122551914D01*
X73104598Y-122551914D02*
X73009360Y-122599533D01*
X74199836Y-122313819D02*
X74295074Y-122313819D01*
X74295074Y-122313819D02*
X74390312Y-122361438D01*
X74390312Y-122361438D02*
X74437931Y-122409057D01*
X74437931Y-122409057D02*
X74485550Y-122504295D01*
X74485550Y-122504295D02*
X74533169Y-122694771D01*
X74533169Y-122694771D02*
X74533169Y-122932866D01*
X74533169Y-122932866D02*
X74485550Y-123123342D01*
X74485550Y-123123342D02*
X74437931Y-123218580D01*
X74437931Y-123218580D02*
X74390312Y-123266200D01*
X74390312Y-123266200D02*
X74295074Y-123313819D01*
X74295074Y-123313819D02*
X74199836Y-123313819D01*
X74199836Y-123313819D02*
X74104598Y-123266200D01*
X74104598Y-123266200D02*
X74056979Y-123218580D01*
X74056979Y-123218580D02*
X74009360Y-123123342D01*
X74009360Y-123123342D02*
X73961741Y-122932866D01*
X73961741Y-122932866D02*
X73961741Y-122694771D01*
X73961741Y-122694771D02*
X74009360Y-122504295D01*
X74009360Y-122504295D02*
X74056979Y-122409057D01*
X74056979Y-122409057D02*
X74104598Y-122361438D01*
X74104598Y-122361438D02*
X74199836Y-122313819D01*
X75390312Y-122647152D02*
X75390312Y-123313819D01*
X74961741Y-122647152D02*
X74961741Y-123170961D01*
X74961741Y-123170961D02*
X75009360Y-123266200D01*
X75009360Y-123266200D02*
X75104598Y-123313819D01*
X75104598Y-123313819D02*
X75247455Y-123313819D01*
X75247455Y-123313819D02*
X75342693Y-123266200D01*
X75342693Y-123266200D02*
X75390312Y-123218580D01*
X76199836Y-122790009D02*
X75866503Y-122790009D01*
X75866503Y-123313819D02*
X75866503Y-122313819D01*
X75866503Y-122313819D02*
X76342693Y-122313819D01*
X78009360Y-123313819D02*
X77437932Y-123313819D01*
X77723646Y-123313819D02*
X77723646Y-122313819D01*
X77723646Y-122313819D02*
X77628408Y-122456676D01*
X77628408Y-122456676D02*
X77533170Y-122551914D01*
X77533170Y-122551914D02*
X77437932Y-122599533D01*
X78866503Y-122313819D02*
X78676027Y-122313819D01*
X78676027Y-122313819D02*
X78580789Y-122361438D01*
X78580789Y-122361438D02*
X78533170Y-122409057D01*
X78533170Y-122409057D02*
X78437932Y-122551914D01*
X78437932Y-122551914D02*
X78390313Y-122742390D01*
X78390313Y-122742390D02*
X78390313Y-123123342D01*
X78390313Y-123123342D02*
X78437932Y-123218580D01*
X78437932Y-123218580D02*
X78485551Y-123266200D01*
X78485551Y-123266200D02*
X78580789Y-123313819D01*
X78580789Y-123313819D02*
X78771265Y-123313819D01*
X78771265Y-123313819D02*
X78866503Y-123266200D01*
X78866503Y-123266200D02*
X78914122Y-123218580D01*
X78914122Y-123218580D02*
X78961741Y-123123342D01*
X78961741Y-123123342D02*
X78961741Y-122885247D01*
X78961741Y-122885247D02*
X78914122Y-122790009D01*
X78914122Y-122790009D02*
X78866503Y-122742390D01*
X78866503Y-122742390D02*
X78771265Y-122694771D01*
X78771265Y-122694771D02*
X78580789Y-122694771D01*
X78580789Y-122694771D02*
X78485551Y-122742390D01*
X78485551Y-122742390D02*
X78437932Y-122790009D01*
X78437932Y-122790009D02*
X78390313Y-122885247D01*
X79247456Y-122313819D02*
X79580789Y-123313819D01*
X79580789Y-123313819D02*
X79914122Y-122313819D01*
X124245761Y-147800219D02*
X123912428Y-147324028D01*
X123674333Y-147800219D02*
X123674333Y-146800219D01*
X123674333Y-146800219D02*
X124055285Y-146800219D01*
X124055285Y-146800219D02*
X124150523Y-146847838D01*
X124150523Y-146847838D02*
X124198142Y-146895457D01*
X124198142Y-146895457D02*
X124245761Y-146990695D01*
X124245761Y-146990695D02*
X124245761Y-147133552D01*
X124245761Y-147133552D02*
X124198142Y-147228790D01*
X124198142Y-147228790D02*
X124150523Y-147276409D01*
X124150523Y-147276409D02*
X124055285Y-147324028D01*
X124055285Y-147324028D02*
X123674333Y-147324028D01*
X124579095Y-147800219D02*
X125102904Y-147133552D01*
X124579095Y-147133552D02*
X125102904Y-147800219D01*
X125483857Y-147800219D02*
X125483857Y-146800219D01*
X125483857Y-146800219D02*
X125721952Y-146800219D01*
X125721952Y-146800219D02*
X125864809Y-146847838D01*
X125864809Y-146847838D02*
X125960047Y-146943076D01*
X125960047Y-146943076D02*
X126007666Y-147038314D01*
X126007666Y-147038314D02*
X126055285Y-147228790D01*
X126055285Y-147228790D02*
X126055285Y-147371647D01*
X126055285Y-147371647D02*
X126007666Y-147562123D01*
X126007666Y-147562123D02*
X125960047Y-147657361D01*
X125960047Y-147657361D02*
X125864809Y-147752600D01*
X125864809Y-147752600D02*
X125721952Y-147800219D01*
X125721952Y-147800219D02*
X125483857Y-147800219D01*
X72488419Y-122253211D02*
X72488419Y-122824639D01*
X72488419Y-122538925D02*
X71488419Y-122538925D01*
X71488419Y-122538925D02*
X71631276Y-122634163D01*
X71631276Y-122634163D02*
X71726514Y-122729401D01*
X71726514Y-122729401D02*
X71774133Y-122824639D01*
X72440800Y-121872258D02*
X72488419Y-121729401D01*
X72488419Y-121729401D02*
X72488419Y-121491306D01*
X72488419Y-121491306D02*
X72440800Y-121396068D01*
X72440800Y-121396068D02*
X72393180Y-121348449D01*
X72393180Y-121348449D02*
X72297942Y-121300830D01*
X72297942Y-121300830D02*
X72202704Y-121300830D01*
X72202704Y-121300830D02*
X72107466Y-121348449D01*
X72107466Y-121348449D02*
X72059847Y-121396068D01*
X72059847Y-121396068D02*
X72012228Y-121491306D01*
X72012228Y-121491306D02*
X71964609Y-121681782D01*
X71964609Y-121681782D02*
X71916990Y-121777020D01*
X71916990Y-121777020D02*
X71869371Y-121824639D01*
X71869371Y-121824639D02*
X71774133Y-121872258D01*
X71774133Y-121872258D02*
X71678895Y-121872258D01*
X71678895Y-121872258D02*
X71583657Y-121824639D01*
X71583657Y-121824639D02*
X71536038Y-121777020D01*
X71536038Y-121777020D02*
X71488419Y-121681782D01*
X71488419Y-121681782D02*
X71488419Y-121443687D01*
X71488419Y-121443687D02*
X71536038Y-121300830D01*
X71583657Y-120919877D02*
X71536038Y-120872258D01*
X71536038Y-120872258D02*
X71488419Y-120777020D01*
X71488419Y-120777020D02*
X71488419Y-120538925D01*
X71488419Y-120538925D02*
X71536038Y-120443687D01*
X71536038Y-120443687D02*
X71583657Y-120396068D01*
X71583657Y-120396068D02*
X71678895Y-120348449D01*
X71678895Y-120348449D02*
X71774133Y-120348449D01*
X71774133Y-120348449D02*
X71916990Y-120396068D01*
X71916990Y-120396068D02*
X72488419Y-120967496D01*
X72488419Y-120967496D02*
X72488419Y-120348449D01*
X71488419Y-119729401D02*
X71488419Y-119634163D01*
X71488419Y-119634163D02*
X71536038Y-119538925D01*
X71536038Y-119538925D02*
X71583657Y-119491306D01*
X71583657Y-119491306D02*
X71678895Y-119443687D01*
X71678895Y-119443687D02*
X71869371Y-119396068D01*
X71869371Y-119396068D02*
X72107466Y-119396068D01*
X72107466Y-119396068D02*
X72297942Y-119443687D01*
X72297942Y-119443687D02*
X72393180Y-119491306D01*
X72393180Y-119491306D02*
X72440800Y-119538925D01*
X72440800Y-119538925D02*
X72488419Y-119634163D01*
X72488419Y-119634163D02*
X72488419Y-119729401D01*
X72488419Y-119729401D02*
X72440800Y-119824639D01*
X72440800Y-119824639D02*
X72393180Y-119872258D01*
X72393180Y-119872258D02*
X72297942Y-119919877D01*
X72297942Y-119919877D02*
X72107466Y-119967496D01*
X72107466Y-119967496D02*
X71869371Y-119967496D01*
X71869371Y-119967496D02*
X71678895Y-119919877D01*
X71678895Y-119919877D02*
X71583657Y-119872258D01*
X71583657Y-119872258D02*
X71536038Y-119824639D01*
X71536038Y-119824639D02*
X71488419Y-119729401D01*
X71488419Y-119062734D02*
X71488419Y-118396068D01*
X71488419Y-118396068D02*
X72488419Y-118824639D01*
X71488419Y-117586544D02*
X71488419Y-117777020D01*
X71488419Y-117777020D02*
X71536038Y-117872258D01*
X71536038Y-117872258D02*
X71583657Y-117919877D01*
X71583657Y-117919877D02*
X71726514Y-118015115D01*
X71726514Y-118015115D02*
X71916990Y-118062734D01*
X71916990Y-118062734D02*
X72297942Y-118062734D01*
X72297942Y-118062734D02*
X72393180Y-118015115D01*
X72393180Y-118015115D02*
X72440800Y-117967496D01*
X72440800Y-117967496D02*
X72488419Y-117872258D01*
X72488419Y-117872258D02*
X72488419Y-117681782D01*
X72488419Y-117681782D02*
X72440800Y-117586544D01*
X72440800Y-117586544D02*
X72393180Y-117538925D01*
X72393180Y-117538925D02*
X72297942Y-117491306D01*
X72297942Y-117491306D02*
X72059847Y-117491306D01*
X72059847Y-117491306D02*
X71964609Y-117538925D01*
X71964609Y-117538925D02*
X71916990Y-117586544D01*
X71916990Y-117586544D02*
X71869371Y-117681782D01*
X71869371Y-117681782D02*
X71869371Y-117872258D01*
X71869371Y-117872258D02*
X71916990Y-117967496D01*
X71916990Y-117967496D02*
X71964609Y-118015115D01*
X71964609Y-118015115D02*
X72059847Y-118062734D01*
X71588333Y-129359819D02*
X71255000Y-128883628D01*
X71016905Y-129359819D02*
X71016905Y-128359819D01*
X71016905Y-128359819D02*
X71397857Y-128359819D01*
X71397857Y-128359819D02*
X71493095Y-128407438D01*
X71493095Y-128407438D02*
X71540714Y-128455057D01*
X71540714Y-128455057D02*
X71588333Y-128550295D01*
X71588333Y-128550295D02*
X71588333Y-128693152D01*
X71588333Y-128693152D02*
X71540714Y-128788390D01*
X71540714Y-128788390D02*
X71493095Y-128836009D01*
X71493095Y-128836009D02*
X71397857Y-128883628D01*
X71397857Y-128883628D02*
X71016905Y-128883628D01*
X72445476Y-128359819D02*
X72255000Y-128359819D01*
X72255000Y-128359819D02*
X72159762Y-128407438D01*
X72159762Y-128407438D02*
X72112143Y-128455057D01*
X72112143Y-128455057D02*
X72016905Y-128597914D01*
X72016905Y-128597914D02*
X71969286Y-128788390D01*
X71969286Y-128788390D02*
X71969286Y-129169342D01*
X71969286Y-129169342D02*
X72016905Y-129264580D01*
X72016905Y-129264580D02*
X72064524Y-129312200D01*
X72064524Y-129312200D02*
X72159762Y-129359819D01*
X72159762Y-129359819D02*
X72350238Y-129359819D01*
X72350238Y-129359819D02*
X72445476Y-129312200D01*
X72445476Y-129312200D02*
X72493095Y-129264580D01*
X72493095Y-129264580D02*
X72540714Y-129169342D01*
X72540714Y-129169342D02*
X72540714Y-128931247D01*
X72540714Y-128931247D02*
X72493095Y-128836009D01*
X72493095Y-128836009D02*
X72445476Y-128788390D01*
X72445476Y-128788390D02*
X72350238Y-128740771D01*
X72350238Y-128740771D02*
X72159762Y-128740771D01*
X72159762Y-128740771D02*
X72064524Y-128788390D01*
X72064524Y-128788390D02*
X72016905Y-128836009D01*
X72016905Y-128836009D02*
X71969286Y-128931247D01*
X101244495Y-53810819D02*
X101244495Y-54620342D01*
X101244495Y-54620342D02*
X101292114Y-54715580D01*
X101292114Y-54715580D02*
X101339733Y-54763200D01*
X101339733Y-54763200D02*
X101434971Y-54810819D01*
X101434971Y-54810819D02*
X101625447Y-54810819D01*
X101625447Y-54810819D02*
X101720685Y-54763200D01*
X101720685Y-54763200D02*
X101768304Y-54715580D01*
X101768304Y-54715580D02*
X101815923Y-54620342D01*
X101815923Y-54620342D02*
X101815923Y-53810819D01*
X102244495Y-53906057D02*
X102292114Y-53858438D01*
X102292114Y-53858438D02*
X102387352Y-53810819D01*
X102387352Y-53810819D02*
X102625447Y-53810819D01*
X102625447Y-53810819D02*
X102720685Y-53858438D01*
X102720685Y-53858438D02*
X102768304Y-53906057D01*
X102768304Y-53906057D02*
X102815923Y-54001295D01*
X102815923Y-54001295D02*
X102815923Y-54096533D01*
X102815923Y-54096533D02*
X102768304Y-54239390D01*
X102768304Y-54239390D02*
X102196876Y-54810819D01*
X102196876Y-54810819D02*
X102815923Y-54810819D01*
X131278333Y-133789819D02*
X130945000Y-133313628D01*
X130706905Y-133789819D02*
X130706905Y-132789819D01*
X130706905Y-132789819D02*
X131087857Y-132789819D01*
X131087857Y-132789819D02*
X131183095Y-132837438D01*
X131183095Y-132837438D02*
X131230714Y-132885057D01*
X131230714Y-132885057D02*
X131278333Y-132980295D01*
X131278333Y-132980295D02*
X131278333Y-133123152D01*
X131278333Y-133123152D02*
X131230714Y-133218390D01*
X131230714Y-133218390D02*
X131183095Y-133266009D01*
X131183095Y-133266009D02*
X131087857Y-133313628D01*
X131087857Y-133313628D02*
X130706905Y-133313628D01*
X131611667Y-132789819D02*
X132278333Y-132789819D01*
X132278333Y-132789819D02*
X131849762Y-133789819D01*
X59160580Y-89463476D02*
X59208200Y-89511095D01*
X59208200Y-89511095D02*
X59255819Y-89653952D01*
X59255819Y-89653952D02*
X59255819Y-89749190D01*
X59255819Y-89749190D02*
X59208200Y-89892047D01*
X59208200Y-89892047D02*
X59112961Y-89987285D01*
X59112961Y-89987285D02*
X59017723Y-90034904D01*
X59017723Y-90034904D02*
X58827247Y-90082523D01*
X58827247Y-90082523D02*
X58684390Y-90082523D01*
X58684390Y-90082523D02*
X58493914Y-90034904D01*
X58493914Y-90034904D02*
X58398676Y-89987285D01*
X58398676Y-89987285D02*
X58303438Y-89892047D01*
X58303438Y-89892047D02*
X58255819Y-89749190D01*
X58255819Y-89749190D02*
X58255819Y-89653952D01*
X58255819Y-89653952D02*
X58303438Y-89511095D01*
X58303438Y-89511095D02*
X58351057Y-89463476D01*
X59255819Y-89034904D02*
X58255819Y-89034904D01*
X58255819Y-89034904D02*
X59255819Y-88463476D01*
X59255819Y-88463476D02*
X58255819Y-88463476D01*
X58589152Y-87558714D02*
X59255819Y-87558714D01*
X58208200Y-87796809D02*
X58922485Y-88034904D01*
X58922485Y-88034904D02*
X58922485Y-87415857D01*
X111194580Y-115101666D02*
X111242200Y-115149285D01*
X111242200Y-115149285D02*
X111289819Y-115292142D01*
X111289819Y-115292142D02*
X111289819Y-115387380D01*
X111289819Y-115387380D02*
X111242200Y-115530237D01*
X111242200Y-115530237D02*
X111146961Y-115625475D01*
X111146961Y-115625475D02*
X111051723Y-115673094D01*
X111051723Y-115673094D02*
X110861247Y-115720713D01*
X110861247Y-115720713D02*
X110718390Y-115720713D01*
X110718390Y-115720713D02*
X110527914Y-115673094D01*
X110527914Y-115673094D02*
X110432676Y-115625475D01*
X110432676Y-115625475D02*
X110337438Y-115530237D01*
X110337438Y-115530237D02*
X110289819Y-115387380D01*
X110289819Y-115387380D02*
X110289819Y-115292142D01*
X110289819Y-115292142D02*
X110337438Y-115149285D01*
X110337438Y-115149285D02*
X110385057Y-115101666D01*
X110289819Y-114768332D02*
X110289819Y-114149285D01*
X110289819Y-114149285D02*
X110670771Y-114482618D01*
X110670771Y-114482618D02*
X110670771Y-114339761D01*
X110670771Y-114339761D02*
X110718390Y-114244523D01*
X110718390Y-114244523D02*
X110766009Y-114196904D01*
X110766009Y-114196904D02*
X110861247Y-114149285D01*
X110861247Y-114149285D02*
X111099342Y-114149285D01*
X111099342Y-114149285D02*
X111194580Y-114196904D01*
X111194580Y-114196904D02*
X111242200Y-114244523D01*
X111242200Y-114244523D02*
X111289819Y-114339761D01*
X111289819Y-114339761D02*
X111289819Y-114625475D01*
X111289819Y-114625475D02*
X111242200Y-114720713D01*
X111242200Y-114720713D02*
X111194580Y-114768332D01*
X105954533Y-54004380D02*
X105906914Y-54052000D01*
X105906914Y-54052000D02*
X105764057Y-54099619D01*
X105764057Y-54099619D02*
X105668819Y-54099619D01*
X105668819Y-54099619D02*
X105525962Y-54052000D01*
X105525962Y-54052000D02*
X105430724Y-53956761D01*
X105430724Y-53956761D02*
X105383105Y-53861523D01*
X105383105Y-53861523D02*
X105335486Y-53671047D01*
X105335486Y-53671047D02*
X105335486Y-53528190D01*
X105335486Y-53528190D02*
X105383105Y-53337714D01*
X105383105Y-53337714D02*
X105430724Y-53242476D01*
X105430724Y-53242476D02*
X105525962Y-53147238D01*
X105525962Y-53147238D02*
X105668819Y-53099619D01*
X105668819Y-53099619D02*
X105764057Y-53099619D01*
X105764057Y-53099619D02*
X105906914Y-53147238D01*
X105906914Y-53147238D02*
X105954533Y-53194857D01*
X106335486Y-53194857D02*
X106383105Y-53147238D01*
X106383105Y-53147238D02*
X106478343Y-53099619D01*
X106478343Y-53099619D02*
X106716438Y-53099619D01*
X106716438Y-53099619D02*
X106811676Y-53147238D01*
X106811676Y-53147238D02*
X106859295Y-53194857D01*
X106859295Y-53194857D02*
X106906914Y-53290095D01*
X106906914Y-53290095D02*
X106906914Y-53385333D01*
X106906914Y-53385333D02*
X106859295Y-53528190D01*
X106859295Y-53528190D02*
X106287867Y-54099619D01*
X106287867Y-54099619D02*
X106906914Y-54099619D01*
X96948666Y-130772819D02*
X96948666Y-131487104D01*
X96948666Y-131487104D02*
X96901047Y-131629961D01*
X96901047Y-131629961D02*
X96805809Y-131725200D01*
X96805809Y-131725200D02*
X96662952Y-131772819D01*
X96662952Y-131772819D02*
X96567714Y-131772819D01*
X97948666Y-131772819D02*
X97377238Y-131772819D01*
X97662952Y-131772819D02*
X97662952Y-130772819D01*
X97662952Y-130772819D02*
X97567714Y-130915676D01*
X97567714Y-130915676D02*
X97472476Y-131010914D01*
X97472476Y-131010914D02*
X97377238Y-131058533D01*
X106608666Y-96079819D02*
X106608666Y-96794104D01*
X106608666Y-96794104D02*
X106561047Y-96936961D01*
X106561047Y-96936961D02*
X106465809Y-97032200D01*
X106465809Y-97032200D02*
X106322952Y-97079819D01*
X106322952Y-97079819D02*
X106227714Y-97079819D01*
X107084857Y-97079819D02*
X107084857Y-96079819D01*
X107084857Y-96079819D02*
X107465809Y-96079819D01*
X107465809Y-96079819D02*
X107561047Y-96127438D01*
X107561047Y-96127438D02*
X107608666Y-96175057D01*
X107608666Y-96175057D02*
X107656285Y-96270295D01*
X107656285Y-96270295D02*
X107656285Y-96413152D01*
X107656285Y-96413152D02*
X107608666Y-96508390D01*
X107608666Y-96508390D02*
X107561047Y-96556009D01*
X107561047Y-96556009D02*
X107465809Y-96603628D01*
X107465809Y-96603628D02*
X107084857Y-96603628D01*
X108608666Y-97079819D02*
X108037238Y-97079819D01*
X108322952Y-97079819D02*
X108322952Y-96079819D01*
X108322952Y-96079819D02*
X108227714Y-96222676D01*
X108227714Y-96222676D02*
X108132476Y-96317914D01*
X108132476Y-96317914D02*
X108037238Y-96365533D01*
X111321580Y-108624666D02*
X111369200Y-108672285D01*
X111369200Y-108672285D02*
X111416819Y-108815142D01*
X111416819Y-108815142D02*
X111416819Y-108910380D01*
X111416819Y-108910380D02*
X111369200Y-109053237D01*
X111369200Y-109053237D02*
X111273961Y-109148475D01*
X111273961Y-109148475D02*
X111178723Y-109196094D01*
X111178723Y-109196094D02*
X110988247Y-109243713D01*
X110988247Y-109243713D02*
X110845390Y-109243713D01*
X110845390Y-109243713D02*
X110654914Y-109196094D01*
X110654914Y-109196094D02*
X110559676Y-109148475D01*
X110559676Y-109148475D02*
X110464438Y-109053237D01*
X110464438Y-109053237D02*
X110416819Y-108910380D01*
X110416819Y-108910380D02*
X110416819Y-108815142D01*
X110416819Y-108815142D02*
X110464438Y-108672285D01*
X110464438Y-108672285D02*
X110512057Y-108624666D01*
X110750152Y-107767523D02*
X111416819Y-107767523D01*
X110369200Y-108005618D02*
X111083485Y-108243713D01*
X111083485Y-108243713D02*
X111083485Y-107624666D01*
X75374819Y-104663666D02*
X74374819Y-104663666D01*
X74374819Y-104663666D02*
X74374819Y-104282714D01*
X74374819Y-104282714D02*
X74422438Y-104187476D01*
X74422438Y-104187476D02*
X74470057Y-104139857D01*
X74470057Y-104139857D02*
X74565295Y-104092238D01*
X74565295Y-104092238D02*
X74708152Y-104092238D01*
X74708152Y-104092238D02*
X74803390Y-104139857D01*
X74803390Y-104139857D02*
X74851009Y-104187476D01*
X74851009Y-104187476D02*
X74898628Y-104282714D01*
X74898628Y-104282714D02*
X74898628Y-104663666D01*
X75089104Y-103711285D02*
X75089104Y-103235095D01*
X75374819Y-103806523D02*
X74374819Y-103473190D01*
X74374819Y-103473190D02*
X75374819Y-103139857D01*
X75374819Y-102806523D02*
X74374819Y-102806523D01*
X74374819Y-102806523D02*
X74374819Y-102568428D01*
X74374819Y-102568428D02*
X74422438Y-102425571D01*
X74422438Y-102425571D02*
X74517676Y-102330333D01*
X74517676Y-102330333D02*
X74612914Y-102282714D01*
X74612914Y-102282714D02*
X74803390Y-102235095D01*
X74803390Y-102235095D02*
X74946247Y-102235095D01*
X74946247Y-102235095D02*
X75136723Y-102282714D01*
X75136723Y-102282714D02*
X75231961Y-102330333D01*
X75231961Y-102330333D02*
X75327200Y-102425571D01*
X75327200Y-102425571D02*
X75374819Y-102568428D01*
X75374819Y-102568428D02*
X75374819Y-102806523D01*
X75374819Y-101282714D02*
X75374819Y-101854142D01*
X75374819Y-101568428D02*
X74374819Y-101568428D01*
X74374819Y-101568428D02*
X74517676Y-101663666D01*
X74517676Y-101663666D02*
X74612914Y-101758904D01*
X74612914Y-101758904D02*
X74660533Y-101854142D01*
X60576619Y-90377876D02*
X60100428Y-90711209D01*
X60576619Y-90949304D02*
X59576619Y-90949304D01*
X59576619Y-90949304D02*
X59576619Y-90568352D01*
X59576619Y-90568352D02*
X59624238Y-90473114D01*
X59624238Y-90473114D02*
X59671857Y-90425495D01*
X59671857Y-90425495D02*
X59767095Y-90377876D01*
X59767095Y-90377876D02*
X59909952Y-90377876D01*
X59909952Y-90377876D02*
X60005190Y-90425495D01*
X60005190Y-90425495D02*
X60052809Y-90473114D01*
X60052809Y-90473114D02*
X60100428Y-90568352D01*
X60100428Y-90568352D02*
X60100428Y-90949304D01*
X60576619Y-89949304D02*
X59576619Y-89949304D01*
X59576619Y-89949304D02*
X60576619Y-89377876D01*
X60576619Y-89377876D02*
X59576619Y-89377876D01*
X59671857Y-88949304D02*
X59624238Y-88901685D01*
X59624238Y-88901685D02*
X59576619Y-88806447D01*
X59576619Y-88806447D02*
X59576619Y-88568352D01*
X59576619Y-88568352D02*
X59624238Y-88473114D01*
X59624238Y-88473114D02*
X59671857Y-88425495D01*
X59671857Y-88425495D02*
X59767095Y-88377876D01*
X59767095Y-88377876D02*
X59862333Y-88377876D01*
X59862333Y-88377876D02*
X60005190Y-88425495D01*
X60005190Y-88425495D02*
X60576619Y-88996923D01*
X60576619Y-88996923D02*
X60576619Y-88377876D01*
X57086667Y-114902200D02*
X57229524Y-114949819D01*
X57229524Y-114949819D02*
X57467619Y-114949819D01*
X57467619Y-114949819D02*
X57562857Y-114902200D01*
X57562857Y-114902200D02*
X57610476Y-114854580D01*
X57610476Y-114854580D02*
X57658095Y-114759342D01*
X57658095Y-114759342D02*
X57658095Y-114664104D01*
X57658095Y-114664104D02*
X57610476Y-114568866D01*
X57610476Y-114568866D02*
X57562857Y-114521247D01*
X57562857Y-114521247D02*
X57467619Y-114473628D01*
X57467619Y-114473628D02*
X57277143Y-114426009D01*
X57277143Y-114426009D02*
X57181905Y-114378390D01*
X57181905Y-114378390D02*
X57134286Y-114330771D01*
X57134286Y-114330771D02*
X57086667Y-114235533D01*
X57086667Y-114235533D02*
X57086667Y-114140295D01*
X57086667Y-114140295D02*
X57134286Y-114045057D01*
X57134286Y-114045057D02*
X57181905Y-113997438D01*
X57181905Y-113997438D02*
X57277143Y-113949819D01*
X57277143Y-113949819D02*
X57515238Y-113949819D01*
X57515238Y-113949819D02*
X57658095Y-113997438D01*
X57991429Y-113949819D02*
X58229524Y-114949819D01*
X58229524Y-114949819D02*
X58420000Y-114235533D01*
X58420000Y-114235533D02*
X58610476Y-114949819D01*
X58610476Y-114949819D02*
X58848572Y-113949819D01*
X59753333Y-114949819D02*
X59181905Y-114949819D01*
X59467619Y-114949819D02*
X59467619Y-113949819D01*
X59467619Y-113949819D02*
X59372381Y-114092676D01*
X59372381Y-114092676D02*
X59277143Y-114187914D01*
X59277143Y-114187914D02*
X59181905Y-114235533D01*
X143449523Y-84354580D02*
X143401904Y-84402200D01*
X143401904Y-84402200D02*
X143259047Y-84449819D01*
X143259047Y-84449819D02*
X143163809Y-84449819D01*
X143163809Y-84449819D02*
X143020952Y-84402200D01*
X143020952Y-84402200D02*
X142925714Y-84306961D01*
X142925714Y-84306961D02*
X142878095Y-84211723D01*
X142878095Y-84211723D02*
X142830476Y-84021247D01*
X142830476Y-84021247D02*
X142830476Y-83878390D01*
X142830476Y-83878390D02*
X142878095Y-83687914D01*
X142878095Y-83687914D02*
X142925714Y-83592676D01*
X142925714Y-83592676D02*
X143020952Y-83497438D01*
X143020952Y-83497438D02*
X143163809Y-83449819D01*
X143163809Y-83449819D02*
X143259047Y-83449819D01*
X143259047Y-83449819D02*
X143401904Y-83497438D01*
X143401904Y-83497438D02*
X143449523Y-83545057D01*
X143878095Y-84449819D02*
X143878095Y-83449819D01*
X143878095Y-83449819D02*
X144449523Y-84449819D01*
X144449523Y-84449819D02*
X144449523Y-83449819D01*
X144830476Y-83449819D02*
X145449523Y-83449819D01*
X145449523Y-83449819D02*
X145116190Y-83830771D01*
X145116190Y-83830771D02*
X145259047Y-83830771D01*
X145259047Y-83830771D02*
X145354285Y-83878390D01*
X145354285Y-83878390D02*
X145401904Y-83926009D01*
X145401904Y-83926009D02*
X145449523Y-84021247D01*
X145449523Y-84021247D02*
X145449523Y-84259342D01*
X145449523Y-84259342D02*
X145401904Y-84354580D01*
X145401904Y-84354580D02*
X145354285Y-84402200D01*
X145354285Y-84402200D02*
X145259047Y-84449819D01*
X145259047Y-84449819D02*
X144973333Y-84449819D01*
X144973333Y-84449819D02*
X144878095Y-84402200D01*
X144878095Y-84402200D02*
X144830476Y-84354580D01*
X57935952Y-124489819D02*
X57459762Y-124489819D01*
X57459762Y-124489819D02*
X57459762Y-123489819D01*
X58269286Y-123966009D02*
X58602619Y-123966009D01*
X58745476Y-124489819D02*
X58269286Y-124489819D01*
X58269286Y-124489819D02*
X58269286Y-123489819D01*
X58269286Y-123489819D02*
X58745476Y-123489819D01*
X59174048Y-124489819D02*
X59174048Y-123489819D01*
X59174048Y-123489819D02*
X59412143Y-123489819D01*
X59412143Y-123489819D02*
X59555000Y-123537438D01*
X59555000Y-123537438D02*
X59650238Y-123632676D01*
X59650238Y-123632676D02*
X59697857Y-123727914D01*
X59697857Y-123727914D02*
X59745476Y-123918390D01*
X59745476Y-123918390D02*
X59745476Y-124061247D01*
X59745476Y-124061247D02*
X59697857Y-124251723D01*
X59697857Y-124251723D02*
X59650238Y-124346961D01*
X59650238Y-124346961D02*
X59555000Y-124442200D01*
X59555000Y-124442200D02*
X59412143Y-124489819D01*
X59412143Y-124489819D02*
X59174048Y-124489819D01*
X60697857Y-124489819D02*
X60126429Y-124489819D01*
X60412143Y-124489819D02*
X60412143Y-123489819D01*
X60412143Y-123489819D02*
X60316905Y-123632676D01*
X60316905Y-123632676D02*
X60221667Y-123727914D01*
X60221667Y-123727914D02*
X60126429Y-123775533D01*
X71588333Y-132788819D02*
X71255000Y-132312628D01*
X71016905Y-132788819D02*
X71016905Y-131788819D01*
X71016905Y-131788819D02*
X71397857Y-131788819D01*
X71397857Y-131788819D02*
X71493095Y-131836438D01*
X71493095Y-131836438D02*
X71540714Y-131884057D01*
X71540714Y-131884057D02*
X71588333Y-131979295D01*
X71588333Y-131979295D02*
X71588333Y-132122152D01*
X71588333Y-132122152D02*
X71540714Y-132217390D01*
X71540714Y-132217390D02*
X71493095Y-132265009D01*
X71493095Y-132265009D02*
X71397857Y-132312628D01*
X71397857Y-132312628D02*
X71016905Y-132312628D01*
X71969286Y-131884057D02*
X72016905Y-131836438D01*
X72016905Y-131836438D02*
X72112143Y-131788819D01*
X72112143Y-131788819D02*
X72350238Y-131788819D01*
X72350238Y-131788819D02*
X72445476Y-131836438D01*
X72445476Y-131836438D02*
X72493095Y-131884057D01*
X72493095Y-131884057D02*
X72540714Y-131979295D01*
X72540714Y-131979295D02*
X72540714Y-132074533D01*
X72540714Y-132074533D02*
X72493095Y-132217390D01*
X72493095Y-132217390D02*
X71921667Y-132788819D01*
X71921667Y-132788819D02*
X72540714Y-132788819D01*
X60475019Y-67365476D02*
X59998828Y-67698809D01*
X60475019Y-67936904D02*
X59475019Y-67936904D01*
X59475019Y-67936904D02*
X59475019Y-67555952D01*
X59475019Y-67555952D02*
X59522638Y-67460714D01*
X59522638Y-67460714D02*
X59570257Y-67413095D01*
X59570257Y-67413095D02*
X59665495Y-67365476D01*
X59665495Y-67365476D02*
X59808352Y-67365476D01*
X59808352Y-67365476D02*
X59903590Y-67413095D01*
X59903590Y-67413095D02*
X59951209Y-67460714D01*
X59951209Y-67460714D02*
X59998828Y-67555952D01*
X59998828Y-67555952D02*
X59998828Y-67936904D01*
X60475019Y-66936904D02*
X59475019Y-66936904D01*
X59475019Y-66936904D02*
X60475019Y-66365476D01*
X60475019Y-66365476D02*
X59475019Y-66365476D01*
X60475019Y-65365476D02*
X60475019Y-65936904D01*
X60475019Y-65651190D02*
X59475019Y-65651190D01*
X59475019Y-65651190D02*
X59617876Y-65746428D01*
X59617876Y-65746428D02*
X59713114Y-65841666D01*
X59713114Y-65841666D02*
X59760733Y-65936904D01*
X71588333Y-143710819D02*
X71255000Y-143234628D01*
X71016905Y-143710819D02*
X71016905Y-142710819D01*
X71016905Y-142710819D02*
X71397857Y-142710819D01*
X71397857Y-142710819D02*
X71493095Y-142758438D01*
X71493095Y-142758438D02*
X71540714Y-142806057D01*
X71540714Y-142806057D02*
X71588333Y-142901295D01*
X71588333Y-142901295D02*
X71588333Y-143044152D01*
X71588333Y-143044152D02*
X71540714Y-143139390D01*
X71540714Y-143139390D02*
X71493095Y-143187009D01*
X71493095Y-143187009D02*
X71397857Y-143234628D01*
X71397857Y-143234628D02*
X71016905Y-143234628D01*
X72159762Y-143139390D02*
X72064524Y-143091771D01*
X72064524Y-143091771D02*
X72016905Y-143044152D01*
X72016905Y-143044152D02*
X71969286Y-142948914D01*
X71969286Y-142948914D02*
X71969286Y-142901295D01*
X71969286Y-142901295D02*
X72016905Y-142806057D01*
X72016905Y-142806057D02*
X72064524Y-142758438D01*
X72064524Y-142758438D02*
X72159762Y-142710819D01*
X72159762Y-142710819D02*
X72350238Y-142710819D01*
X72350238Y-142710819D02*
X72445476Y-142758438D01*
X72445476Y-142758438D02*
X72493095Y-142806057D01*
X72493095Y-142806057D02*
X72540714Y-142901295D01*
X72540714Y-142901295D02*
X72540714Y-142948914D01*
X72540714Y-142948914D02*
X72493095Y-143044152D01*
X72493095Y-143044152D02*
X72445476Y-143091771D01*
X72445476Y-143091771D02*
X72350238Y-143139390D01*
X72350238Y-143139390D02*
X72159762Y-143139390D01*
X72159762Y-143139390D02*
X72064524Y-143187009D01*
X72064524Y-143187009D02*
X72016905Y-143234628D01*
X72016905Y-143234628D02*
X71969286Y-143329866D01*
X71969286Y-143329866D02*
X71969286Y-143520342D01*
X71969286Y-143520342D02*
X72016905Y-143615580D01*
X72016905Y-143615580D02*
X72064524Y-143663200D01*
X72064524Y-143663200D02*
X72159762Y-143710819D01*
X72159762Y-143710819D02*
X72350238Y-143710819D01*
X72350238Y-143710819D02*
X72445476Y-143663200D01*
X72445476Y-143663200D02*
X72493095Y-143615580D01*
X72493095Y-143615580D02*
X72540714Y-143520342D01*
X72540714Y-143520342D02*
X72540714Y-143329866D01*
X72540714Y-143329866D02*
X72493095Y-143234628D01*
X72493095Y-143234628D02*
X72445476Y-143187009D01*
X72445476Y-143187009D02*
X72350238Y-143139390D01*
X110919419Y-138088666D02*
X110443228Y-138421999D01*
X110919419Y-138660094D02*
X109919419Y-138660094D01*
X109919419Y-138660094D02*
X109919419Y-138279142D01*
X109919419Y-138279142D02*
X109967038Y-138183904D01*
X109967038Y-138183904D02*
X110014657Y-138136285D01*
X110014657Y-138136285D02*
X110109895Y-138088666D01*
X110109895Y-138088666D02*
X110252752Y-138088666D01*
X110252752Y-138088666D02*
X110347990Y-138136285D01*
X110347990Y-138136285D02*
X110395609Y-138183904D01*
X110395609Y-138183904D02*
X110443228Y-138279142D01*
X110443228Y-138279142D02*
X110443228Y-138660094D01*
X110919419Y-137612475D02*
X110919419Y-137421999D01*
X110919419Y-137421999D02*
X110871800Y-137326761D01*
X110871800Y-137326761D02*
X110824180Y-137279142D01*
X110824180Y-137279142D02*
X110681323Y-137183904D01*
X110681323Y-137183904D02*
X110490847Y-137136285D01*
X110490847Y-137136285D02*
X110109895Y-137136285D01*
X110109895Y-137136285D02*
X110014657Y-137183904D01*
X110014657Y-137183904D02*
X109967038Y-137231523D01*
X109967038Y-137231523D02*
X109919419Y-137326761D01*
X109919419Y-137326761D02*
X109919419Y-137517237D01*
X109919419Y-137517237D02*
X109967038Y-137612475D01*
X109967038Y-137612475D02*
X110014657Y-137660094D01*
X110014657Y-137660094D02*
X110109895Y-137707713D01*
X110109895Y-137707713D02*
X110347990Y-137707713D01*
X110347990Y-137707713D02*
X110443228Y-137660094D01*
X110443228Y-137660094D02*
X110490847Y-137612475D01*
X110490847Y-137612475D02*
X110538466Y-137517237D01*
X110538466Y-137517237D02*
X110538466Y-137326761D01*
X110538466Y-137326761D02*
X110490847Y-137231523D01*
X110490847Y-137231523D02*
X110443228Y-137183904D01*
X110443228Y-137183904D02*
X110347990Y-137136285D01*
X143454523Y-60894580D02*
X143406904Y-60942200D01*
X143406904Y-60942200D02*
X143264047Y-60989819D01*
X143264047Y-60989819D02*
X143168809Y-60989819D01*
X143168809Y-60989819D02*
X143025952Y-60942200D01*
X143025952Y-60942200D02*
X142930714Y-60846961D01*
X142930714Y-60846961D02*
X142883095Y-60751723D01*
X142883095Y-60751723D02*
X142835476Y-60561247D01*
X142835476Y-60561247D02*
X142835476Y-60418390D01*
X142835476Y-60418390D02*
X142883095Y-60227914D01*
X142883095Y-60227914D02*
X142930714Y-60132676D01*
X142930714Y-60132676D02*
X143025952Y-60037438D01*
X143025952Y-60037438D02*
X143168809Y-59989819D01*
X143168809Y-59989819D02*
X143264047Y-59989819D01*
X143264047Y-59989819D02*
X143406904Y-60037438D01*
X143406904Y-60037438D02*
X143454523Y-60085057D01*
X143883095Y-60989819D02*
X143883095Y-59989819D01*
X143883095Y-59989819D02*
X144454523Y-60989819D01*
X144454523Y-60989819D02*
X144454523Y-59989819D01*
X145454523Y-60989819D02*
X144883095Y-60989819D01*
X145168809Y-60989819D02*
X145168809Y-59989819D01*
X145168809Y-59989819D02*
X145073571Y-60132676D01*
X145073571Y-60132676D02*
X144978333Y-60227914D01*
X144978333Y-60227914D02*
X144883095Y-60275533D01*
X75374819Y-109743666D02*
X74374819Y-109743666D01*
X74374819Y-109743666D02*
X74374819Y-109362714D01*
X74374819Y-109362714D02*
X74422438Y-109267476D01*
X74422438Y-109267476D02*
X74470057Y-109219857D01*
X74470057Y-109219857D02*
X74565295Y-109172238D01*
X74565295Y-109172238D02*
X74708152Y-109172238D01*
X74708152Y-109172238D02*
X74803390Y-109219857D01*
X74803390Y-109219857D02*
X74851009Y-109267476D01*
X74851009Y-109267476D02*
X74898628Y-109362714D01*
X74898628Y-109362714D02*
X74898628Y-109743666D01*
X75089104Y-108791285D02*
X75089104Y-108315095D01*
X75374819Y-108886523D02*
X74374819Y-108553190D01*
X74374819Y-108553190D02*
X75374819Y-108219857D01*
X75374819Y-107886523D02*
X74374819Y-107886523D01*
X74374819Y-107886523D02*
X74374819Y-107648428D01*
X74374819Y-107648428D02*
X74422438Y-107505571D01*
X74422438Y-107505571D02*
X74517676Y-107410333D01*
X74517676Y-107410333D02*
X74612914Y-107362714D01*
X74612914Y-107362714D02*
X74803390Y-107315095D01*
X74803390Y-107315095D02*
X74946247Y-107315095D01*
X74946247Y-107315095D02*
X75136723Y-107362714D01*
X75136723Y-107362714D02*
X75231961Y-107410333D01*
X75231961Y-107410333D02*
X75327200Y-107505571D01*
X75327200Y-107505571D02*
X75374819Y-107648428D01*
X75374819Y-107648428D02*
X75374819Y-107886523D01*
X74470057Y-106934142D02*
X74422438Y-106886523D01*
X74422438Y-106886523D02*
X74374819Y-106791285D01*
X74374819Y-106791285D02*
X74374819Y-106553190D01*
X74374819Y-106553190D02*
X74422438Y-106457952D01*
X74422438Y-106457952D02*
X74470057Y-106410333D01*
X74470057Y-106410333D02*
X74565295Y-106362714D01*
X74565295Y-106362714D02*
X74660533Y-106362714D01*
X74660533Y-106362714D02*
X74803390Y-106410333D01*
X74803390Y-106410333D02*
X75374819Y-106981761D01*
X75374819Y-106981761D02*
X75374819Y-106362714D01*
X119626142Y-133815219D02*
X119292809Y-133339028D01*
X119054714Y-133815219D02*
X119054714Y-132815219D01*
X119054714Y-132815219D02*
X119435666Y-132815219D01*
X119435666Y-132815219D02*
X119530904Y-132862838D01*
X119530904Y-132862838D02*
X119578523Y-132910457D01*
X119578523Y-132910457D02*
X119626142Y-133005695D01*
X119626142Y-133005695D02*
X119626142Y-133148552D01*
X119626142Y-133148552D02*
X119578523Y-133243790D01*
X119578523Y-133243790D02*
X119530904Y-133291409D01*
X119530904Y-133291409D02*
X119435666Y-133339028D01*
X119435666Y-133339028D02*
X119054714Y-133339028D01*
X120578523Y-133815219D02*
X120007095Y-133815219D01*
X120292809Y-133815219D02*
X120292809Y-132815219D01*
X120292809Y-132815219D02*
X120197571Y-132958076D01*
X120197571Y-132958076D02*
X120102333Y-133053314D01*
X120102333Y-133053314D02*
X120007095Y-133100933D01*
X121197571Y-132815219D02*
X121292809Y-132815219D01*
X121292809Y-132815219D02*
X121388047Y-132862838D01*
X121388047Y-132862838D02*
X121435666Y-132910457D01*
X121435666Y-132910457D02*
X121483285Y-133005695D01*
X121483285Y-133005695D02*
X121530904Y-133196171D01*
X121530904Y-133196171D02*
X121530904Y-133434266D01*
X121530904Y-133434266D02*
X121483285Y-133624742D01*
X121483285Y-133624742D02*
X121435666Y-133719980D01*
X121435666Y-133719980D02*
X121388047Y-133767600D01*
X121388047Y-133767600D02*
X121292809Y-133815219D01*
X121292809Y-133815219D02*
X121197571Y-133815219D01*
X121197571Y-133815219D02*
X121102333Y-133767600D01*
X121102333Y-133767600D02*
X121054714Y-133719980D01*
X121054714Y-133719980D02*
X121007095Y-133624742D01*
X121007095Y-133624742D02*
X120959476Y-133434266D01*
X120959476Y-133434266D02*
X120959476Y-133196171D01*
X120959476Y-133196171D02*
X121007095Y-133005695D01*
X121007095Y-133005695D02*
X121054714Y-132910457D01*
X121054714Y-132910457D02*
X121102333Y-132862838D01*
X121102333Y-132862838D02*
X121197571Y-132815219D01*
X125817333Y-97006580D02*
X125769714Y-97054200D01*
X125769714Y-97054200D02*
X125626857Y-97101819D01*
X125626857Y-97101819D02*
X125531619Y-97101819D01*
X125531619Y-97101819D02*
X125388762Y-97054200D01*
X125388762Y-97054200D02*
X125293524Y-96958961D01*
X125293524Y-96958961D02*
X125245905Y-96863723D01*
X125245905Y-96863723D02*
X125198286Y-96673247D01*
X125198286Y-96673247D02*
X125198286Y-96530390D01*
X125198286Y-96530390D02*
X125245905Y-96339914D01*
X125245905Y-96339914D02*
X125293524Y-96244676D01*
X125293524Y-96244676D02*
X125388762Y-96149438D01*
X125388762Y-96149438D02*
X125531619Y-96101819D01*
X125531619Y-96101819D02*
X125626857Y-96101819D01*
X125626857Y-96101819D02*
X125769714Y-96149438D01*
X125769714Y-96149438D02*
X125817333Y-96197057D01*
X126722095Y-96101819D02*
X126245905Y-96101819D01*
X126245905Y-96101819D02*
X126198286Y-96578009D01*
X126198286Y-96578009D02*
X126245905Y-96530390D01*
X126245905Y-96530390D02*
X126341143Y-96482771D01*
X126341143Y-96482771D02*
X126579238Y-96482771D01*
X126579238Y-96482771D02*
X126674476Y-96530390D01*
X126674476Y-96530390D02*
X126722095Y-96578009D01*
X126722095Y-96578009D02*
X126769714Y-96673247D01*
X126769714Y-96673247D02*
X126769714Y-96911342D01*
X126769714Y-96911342D02*
X126722095Y-97006580D01*
X126722095Y-97006580D02*
X126674476Y-97054200D01*
X126674476Y-97054200D02*
X126579238Y-97101819D01*
X126579238Y-97101819D02*
X126341143Y-97101819D01*
X126341143Y-97101819D02*
X126245905Y-97054200D01*
X126245905Y-97054200D02*
X126198286Y-97006580D01*
X82732666Y-124930819D02*
X82732666Y-125645104D01*
X82732666Y-125645104D02*
X82685047Y-125787961D01*
X82685047Y-125787961D02*
X82589809Y-125883200D01*
X82589809Y-125883200D02*
X82446952Y-125930819D01*
X82446952Y-125930819D02*
X82351714Y-125930819D01*
X83208857Y-125930819D02*
X83208857Y-124930819D01*
X83208857Y-124930819D02*
X83589809Y-124930819D01*
X83589809Y-124930819D02*
X83685047Y-124978438D01*
X83685047Y-124978438D02*
X83732666Y-125026057D01*
X83732666Y-125026057D02*
X83780285Y-125121295D01*
X83780285Y-125121295D02*
X83780285Y-125264152D01*
X83780285Y-125264152D02*
X83732666Y-125359390D01*
X83732666Y-125359390D02*
X83685047Y-125407009D01*
X83685047Y-125407009D02*
X83589809Y-125454628D01*
X83589809Y-125454628D02*
X83208857Y-125454628D01*
X84113619Y-124930819D02*
X84732666Y-124930819D01*
X84732666Y-124930819D02*
X84399333Y-125311771D01*
X84399333Y-125311771D02*
X84542190Y-125311771D01*
X84542190Y-125311771D02*
X84637428Y-125359390D01*
X84637428Y-125359390D02*
X84685047Y-125407009D01*
X84685047Y-125407009D02*
X84732666Y-125502247D01*
X84732666Y-125502247D02*
X84732666Y-125740342D01*
X84732666Y-125740342D02*
X84685047Y-125835580D01*
X84685047Y-125835580D02*
X84637428Y-125883200D01*
X84637428Y-125883200D02*
X84542190Y-125930819D01*
X84542190Y-125930819D02*
X84256476Y-125930819D01*
X84256476Y-125930819D02*
X84161238Y-125883200D01*
X84161238Y-125883200D02*
X84113619Y-125835580D01*
X129087666Y-97426019D02*
X129087666Y-98140304D01*
X129087666Y-98140304D02*
X129040047Y-98283161D01*
X129040047Y-98283161D02*
X128944809Y-98378400D01*
X128944809Y-98378400D02*
X128801952Y-98426019D01*
X128801952Y-98426019D02*
X128706714Y-98426019D01*
X129563857Y-98426019D02*
X129563857Y-97426019D01*
X129563857Y-97426019D02*
X129944809Y-97426019D01*
X129944809Y-97426019D02*
X130040047Y-97473638D01*
X130040047Y-97473638D02*
X130087666Y-97521257D01*
X130087666Y-97521257D02*
X130135285Y-97616495D01*
X130135285Y-97616495D02*
X130135285Y-97759352D01*
X130135285Y-97759352D02*
X130087666Y-97854590D01*
X130087666Y-97854590D02*
X130040047Y-97902209D01*
X130040047Y-97902209D02*
X129944809Y-97949828D01*
X129944809Y-97949828D02*
X129563857Y-97949828D01*
X130516238Y-97521257D02*
X130563857Y-97473638D01*
X130563857Y-97473638D02*
X130659095Y-97426019D01*
X130659095Y-97426019D02*
X130897190Y-97426019D01*
X130897190Y-97426019D02*
X130992428Y-97473638D01*
X130992428Y-97473638D02*
X131040047Y-97521257D01*
X131040047Y-97521257D02*
X131087666Y-97616495D01*
X131087666Y-97616495D02*
X131087666Y-97711733D01*
X131087666Y-97711733D02*
X131040047Y-97854590D01*
X131040047Y-97854590D02*
X130468619Y-98426019D01*
X130468619Y-98426019D02*
X131087666Y-98426019D01*
X77684333Y-117453580D02*
X77636714Y-117501200D01*
X77636714Y-117501200D02*
X77493857Y-117548819D01*
X77493857Y-117548819D02*
X77398619Y-117548819D01*
X77398619Y-117548819D02*
X77255762Y-117501200D01*
X77255762Y-117501200D02*
X77160524Y-117405961D01*
X77160524Y-117405961D02*
X77112905Y-117310723D01*
X77112905Y-117310723D02*
X77065286Y-117120247D01*
X77065286Y-117120247D02*
X77065286Y-116977390D01*
X77065286Y-116977390D02*
X77112905Y-116786914D01*
X77112905Y-116786914D02*
X77160524Y-116691676D01*
X77160524Y-116691676D02*
X77255762Y-116596438D01*
X77255762Y-116596438D02*
X77398619Y-116548819D01*
X77398619Y-116548819D02*
X77493857Y-116548819D01*
X77493857Y-116548819D02*
X77636714Y-116596438D01*
X77636714Y-116596438D02*
X77684333Y-116644057D01*
X78541476Y-116548819D02*
X78351000Y-116548819D01*
X78351000Y-116548819D02*
X78255762Y-116596438D01*
X78255762Y-116596438D02*
X78208143Y-116644057D01*
X78208143Y-116644057D02*
X78112905Y-116786914D01*
X78112905Y-116786914D02*
X78065286Y-116977390D01*
X78065286Y-116977390D02*
X78065286Y-117358342D01*
X78065286Y-117358342D02*
X78112905Y-117453580D01*
X78112905Y-117453580D02*
X78160524Y-117501200D01*
X78160524Y-117501200D02*
X78255762Y-117548819D01*
X78255762Y-117548819D02*
X78446238Y-117548819D01*
X78446238Y-117548819D02*
X78541476Y-117501200D01*
X78541476Y-117501200D02*
X78589095Y-117453580D01*
X78589095Y-117453580D02*
X78636714Y-117358342D01*
X78636714Y-117358342D02*
X78636714Y-117120247D01*
X78636714Y-117120247D02*
X78589095Y-117025009D01*
X78589095Y-117025009D02*
X78541476Y-116977390D01*
X78541476Y-116977390D02*
X78446238Y-116929771D01*
X78446238Y-116929771D02*
X78255762Y-116929771D01*
X78255762Y-116929771D02*
X78160524Y-116977390D01*
X78160524Y-116977390D02*
X78112905Y-117025009D01*
X78112905Y-117025009D02*
X78065286Y-117120247D01*
X64574819Y-120181666D02*
X64098628Y-120514999D01*
X64574819Y-120753094D02*
X63574819Y-120753094D01*
X63574819Y-120753094D02*
X63574819Y-120372142D01*
X63574819Y-120372142D02*
X63622438Y-120276904D01*
X63622438Y-120276904D02*
X63670057Y-120229285D01*
X63670057Y-120229285D02*
X63765295Y-120181666D01*
X63765295Y-120181666D02*
X63908152Y-120181666D01*
X63908152Y-120181666D02*
X64003390Y-120229285D01*
X64003390Y-120229285D02*
X64051009Y-120276904D01*
X64051009Y-120276904D02*
X64098628Y-120372142D01*
X64098628Y-120372142D02*
X64098628Y-120753094D01*
X63574819Y-119848332D02*
X63574819Y-119229285D01*
X63574819Y-119229285D02*
X63955771Y-119562618D01*
X63955771Y-119562618D02*
X63955771Y-119419761D01*
X63955771Y-119419761D02*
X64003390Y-119324523D01*
X64003390Y-119324523D02*
X64051009Y-119276904D01*
X64051009Y-119276904D02*
X64146247Y-119229285D01*
X64146247Y-119229285D02*
X64384342Y-119229285D01*
X64384342Y-119229285D02*
X64479580Y-119276904D01*
X64479580Y-119276904D02*
X64527200Y-119324523D01*
X64527200Y-119324523D02*
X64574819Y-119419761D01*
X64574819Y-119419761D02*
X64574819Y-119705475D01*
X64574819Y-119705475D02*
X64527200Y-119800713D01*
X64527200Y-119800713D02*
X64479580Y-119848332D01*
X128571666Y-137829819D02*
X128571666Y-138544104D01*
X128571666Y-138544104D02*
X128524047Y-138686961D01*
X128524047Y-138686961D02*
X128428809Y-138782200D01*
X128428809Y-138782200D02*
X128285952Y-138829819D01*
X128285952Y-138829819D02*
X128190714Y-138829819D01*
X129000238Y-137925057D02*
X129047857Y-137877438D01*
X129047857Y-137877438D02*
X129143095Y-137829819D01*
X129143095Y-137829819D02*
X129381190Y-137829819D01*
X129381190Y-137829819D02*
X129476428Y-137877438D01*
X129476428Y-137877438D02*
X129524047Y-137925057D01*
X129524047Y-137925057D02*
X129571666Y-138020295D01*
X129571666Y-138020295D02*
X129571666Y-138115533D01*
X129571666Y-138115533D02*
X129524047Y-138258390D01*
X129524047Y-138258390D02*
X128952619Y-138829819D01*
X128952619Y-138829819D02*
X129571666Y-138829819D01*
X59084380Y-64368276D02*
X59132000Y-64415895D01*
X59132000Y-64415895D02*
X59179619Y-64558752D01*
X59179619Y-64558752D02*
X59179619Y-64653990D01*
X59179619Y-64653990D02*
X59132000Y-64796847D01*
X59132000Y-64796847D02*
X59036761Y-64892085D01*
X59036761Y-64892085D02*
X58941523Y-64939704D01*
X58941523Y-64939704D02*
X58751047Y-64987323D01*
X58751047Y-64987323D02*
X58608190Y-64987323D01*
X58608190Y-64987323D02*
X58417714Y-64939704D01*
X58417714Y-64939704D02*
X58322476Y-64892085D01*
X58322476Y-64892085D02*
X58227238Y-64796847D01*
X58227238Y-64796847D02*
X58179619Y-64653990D01*
X58179619Y-64653990D02*
X58179619Y-64558752D01*
X58179619Y-64558752D02*
X58227238Y-64415895D01*
X58227238Y-64415895D02*
X58274857Y-64368276D01*
X59179619Y-63939704D02*
X58179619Y-63939704D01*
X58179619Y-63939704D02*
X59179619Y-63368276D01*
X59179619Y-63368276D02*
X58179619Y-63368276D01*
X58274857Y-62939704D02*
X58227238Y-62892085D01*
X58227238Y-62892085D02*
X58179619Y-62796847D01*
X58179619Y-62796847D02*
X58179619Y-62558752D01*
X58179619Y-62558752D02*
X58227238Y-62463514D01*
X58227238Y-62463514D02*
X58274857Y-62415895D01*
X58274857Y-62415895D02*
X58370095Y-62368276D01*
X58370095Y-62368276D02*
X58465333Y-62368276D01*
X58465333Y-62368276D02*
X58608190Y-62415895D01*
X58608190Y-62415895D02*
X59179619Y-62987323D01*
X59179619Y-62987323D02*
X59179619Y-62368276D01*
X83907333Y-119231580D02*
X83859714Y-119279200D01*
X83859714Y-119279200D02*
X83716857Y-119326819D01*
X83716857Y-119326819D02*
X83621619Y-119326819D01*
X83621619Y-119326819D02*
X83478762Y-119279200D01*
X83478762Y-119279200D02*
X83383524Y-119183961D01*
X83383524Y-119183961D02*
X83335905Y-119088723D01*
X83335905Y-119088723D02*
X83288286Y-118898247D01*
X83288286Y-118898247D02*
X83288286Y-118755390D01*
X83288286Y-118755390D02*
X83335905Y-118564914D01*
X83335905Y-118564914D02*
X83383524Y-118469676D01*
X83383524Y-118469676D02*
X83478762Y-118374438D01*
X83478762Y-118374438D02*
X83621619Y-118326819D01*
X83621619Y-118326819D02*
X83716857Y-118326819D01*
X83716857Y-118326819D02*
X83859714Y-118374438D01*
X83859714Y-118374438D02*
X83907333Y-118422057D01*
X84240667Y-118326819D02*
X84907333Y-118326819D01*
X84907333Y-118326819D02*
X84478762Y-119326819D01*
X71588333Y-139646819D02*
X71255000Y-139170628D01*
X71016905Y-139646819D02*
X71016905Y-138646819D01*
X71016905Y-138646819D02*
X71397857Y-138646819D01*
X71397857Y-138646819D02*
X71493095Y-138694438D01*
X71493095Y-138694438D02*
X71540714Y-138742057D01*
X71540714Y-138742057D02*
X71588333Y-138837295D01*
X71588333Y-138837295D02*
X71588333Y-138980152D01*
X71588333Y-138980152D02*
X71540714Y-139075390D01*
X71540714Y-139075390D02*
X71493095Y-139123009D01*
X71493095Y-139123009D02*
X71397857Y-139170628D01*
X71397857Y-139170628D02*
X71016905Y-139170628D01*
X72493095Y-138646819D02*
X72016905Y-138646819D01*
X72016905Y-138646819D02*
X71969286Y-139123009D01*
X71969286Y-139123009D02*
X72016905Y-139075390D01*
X72016905Y-139075390D02*
X72112143Y-139027771D01*
X72112143Y-139027771D02*
X72350238Y-139027771D01*
X72350238Y-139027771D02*
X72445476Y-139075390D01*
X72445476Y-139075390D02*
X72493095Y-139123009D01*
X72493095Y-139123009D02*
X72540714Y-139218247D01*
X72540714Y-139218247D02*
X72540714Y-139456342D01*
X72540714Y-139456342D02*
X72493095Y-139551580D01*
X72493095Y-139551580D02*
X72445476Y-139599200D01*
X72445476Y-139599200D02*
X72350238Y-139646819D01*
X72350238Y-139646819D02*
X72112143Y-139646819D01*
X72112143Y-139646819D02*
X72016905Y-139599200D01*
X72016905Y-139599200D02*
X71969286Y-139551580D01*
X123850495Y-53861619D02*
X123850495Y-54671142D01*
X123850495Y-54671142D02*
X123898114Y-54766380D01*
X123898114Y-54766380D02*
X123945733Y-54814000D01*
X123945733Y-54814000D02*
X124040971Y-54861619D01*
X124040971Y-54861619D02*
X124231447Y-54861619D01*
X124231447Y-54861619D02*
X124326685Y-54814000D01*
X124326685Y-54814000D02*
X124374304Y-54766380D01*
X124374304Y-54766380D02*
X124421923Y-54671142D01*
X124421923Y-54671142D02*
X124421923Y-53861619D01*
X124802876Y-53861619D02*
X125421923Y-53861619D01*
X125421923Y-53861619D02*
X125088590Y-54242571D01*
X125088590Y-54242571D02*
X125231447Y-54242571D01*
X125231447Y-54242571D02*
X125326685Y-54290190D01*
X125326685Y-54290190D02*
X125374304Y-54337809D01*
X125374304Y-54337809D02*
X125421923Y-54433047D01*
X125421923Y-54433047D02*
X125421923Y-54671142D01*
X125421923Y-54671142D02*
X125374304Y-54766380D01*
X125374304Y-54766380D02*
X125326685Y-54814000D01*
X125326685Y-54814000D02*
X125231447Y-54861619D01*
X125231447Y-54861619D02*
X124945733Y-54861619D01*
X124945733Y-54861619D02*
X124850495Y-54814000D01*
X124850495Y-54814000D02*
X124802876Y-54766380D01*
X143327523Y-107547580D02*
X143279904Y-107595200D01*
X143279904Y-107595200D02*
X143137047Y-107642819D01*
X143137047Y-107642819D02*
X143041809Y-107642819D01*
X143041809Y-107642819D02*
X142898952Y-107595200D01*
X142898952Y-107595200D02*
X142803714Y-107499961D01*
X142803714Y-107499961D02*
X142756095Y-107404723D01*
X142756095Y-107404723D02*
X142708476Y-107214247D01*
X142708476Y-107214247D02*
X142708476Y-107071390D01*
X142708476Y-107071390D02*
X142756095Y-106880914D01*
X142756095Y-106880914D02*
X142803714Y-106785676D01*
X142803714Y-106785676D02*
X142898952Y-106690438D01*
X142898952Y-106690438D02*
X143041809Y-106642819D01*
X143041809Y-106642819D02*
X143137047Y-106642819D01*
X143137047Y-106642819D02*
X143279904Y-106690438D01*
X143279904Y-106690438D02*
X143327523Y-106738057D01*
X143756095Y-107642819D02*
X143756095Y-106642819D01*
X143756095Y-106642819D02*
X144327523Y-107642819D01*
X144327523Y-107642819D02*
X144327523Y-106642819D01*
X145232285Y-106642819D02*
X145041809Y-106642819D01*
X145041809Y-106642819D02*
X144946571Y-106690438D01*
X144946571Y-106690438D02*
X144898952Y-106738057D01*
X144898952Y-106738057D02*
X144803714Y-106880914D01*
X144803714Y-106880914D02*
X144756095Y-107071390D01*
X144756095Y-107071390D02*
X144756095Y-107452342D01*
X144756095Y-107452342D02*
X144803714Y-107547580D01*
X144803714Y-107547580D02*
X144851333Y-107595200D01*
X144851333Y-107595200D02*
X144946571Y-107642819D01*
X144946571Y-107642819D02*
X145137047Y-107642819D01*
X145137047Y-107642819D02*
X145232285Y-107595200D01*
X145232285Y-107595200D02*
X145279904Y-107547580D01*
X145279904Y-107547580D02*
X145327523Y-107452342D01*
X145327523Y-107452342D02*
X145327523Y-107214247D01*
X145327523Y-107214247D02*
X145279904Y-107119009D01*
X145279904Y-107119009D02*
X145232285Y-107071390D01*
X145232285Y-107071390D02*
X145137047Y-107023771D01*
X145137047Y-107023771D02*
X144946571Y-107023771D01*
X144946571Y-107023771D02*
X144851333Y-107071390D01*
X144851333Y-107071390D02*
X144803714Y-107119009D01*
X144803714Y-107119009D02*
X144756095Y-107214247D01*
X100782523Y-105255219D02*
X100449190Y-104779028D01*
X100211095Y-105255219D02*
X100211095Y-104255219D01*
X100211095Y-104255219D02*
X100592047Y-104255219D01*
X100592047Y-104255219D02*
X100687285Y-104302838D01*
X100687285Y-104302838D02*
X100734904Y-104350457D01*
X100734904Y-104350457D02*
X100782523Y-104445695D01*
X100782523Y-104445695D02*
X100782523Y-104588552D01*
X100782523Y-104588552D02*
X100734904Y-104683790D01*
X100734904Y-104683790D02*
X100687285Y-104731409D01*
X100687285Y-104731409D02*
X100592047Y-104779028D01*
X100592047Y-104779028D02*
X100211095Y-104779028D01*
X101211095Y-105255219D02*
X101211095Y-104255219D01*
X101211095Y-104255219D02*
X101782523Y-105255219D01*
X101782523Y-105255219D02*
X101782523Y-104255219D01*
X102163476Y-104255219D02*
X102782523Y-104255219D01*
X102782523Y-104255219D02*
X102449190Y-104636171D01*
X102449190Y-104636171D02*
X102592047Y-104636171D01*
X102592047Y-104636171D02*
X102687285Y-104683790D01*
X102687285Y-104683790D02*
X102734904Y-104731409D01*
X102734904Y-104731409D02*
X102782523Y-104826647D01*
X102782523Y-104826647D02*
X102782523Y-105064742D01*
X102782523Y-105064742D02*
X102734904Y-105159980D01*
X102734904Y-105159980D02*
X102687285Y-105207600D01*
X102687285Y-105207600D02*
X102592047Y-105255219D01*
X102592047Y-105255219D02*
X102306333Y-105255219D01*
X102306333Y-105255219D02*
X102211095Y-105207600D01*
X102211095Y-105207600D02*
X102163476Y-105159980D01*
X69701628Y-112566390D02*
X70177819Y-112566390D01*
X69177819Y-112899723D02*
X69701628Y-112566390D01*
X69701628Y-112566390D02*
X69177819Y-112233057D01*
X70177819Y-111375914D02*
X70177819Y-111947342D01*
X70177819Y-111661628D02*
X69177819Y-111661628D01*
X69177819Y-111661628D02*
X69320676Y-111756866D01*
X69320676Y-111756866D02*
X69415914Y-111852104D01*
X69415914Y-111852104D02*
X69463533Y-111947342D01*
X118618095Y-95564819D02*
X118618095Y-96374342D01*
X118618095Y-96374342D02*
X118665714Y-96469580D01*
X118665714Y-96469580D02*
X118713333Y-96517200D01*
X118713333Y-96517200D02*
X118808571Y-96564819D01*
X118808571Y-96564819D02*
X118999047Y-96564819D01*
X118999047Y-96564819D02*
X119094285Y-96517200D01*
X119094285Y-96517200D02*
X119141904Y-96469580D01*
X119141904Y-96469580D02*
X119189523Y-96374342D01*
X119189523Y-96374342D02*
X119189523Y-95564819D01*
X120094285Y-95898152D02*
X120094285Y-96564819D01*
X119856190Y-95517200D02*
X119618095Y-96231485D01*
X119618095Y-96231485D02*
X120237142Y-96231485D01*
X131897523Y-107884580D02*
X131849904Y-107932200D01*
X131849904Y-107932200D02*
X131707047Y-107979819D01*
X131707047Y-107979819D02*
X131611809Y-107979819D01*
X131611809Y-107979819D02*
X131468952Y-107932200D01*
X131468952Y-107932200D02*
X131373714Y-107836961D01*
X131373714Y-107836961D02*
X131326095Y-107741723D01*
X131326095Y-107741723D02*
X131278476Y-107551247D01*
X131278476Y-107551247D02*
X131278476Y-107408390D01*
X131278476Y-107408390D02*
X131326095Y-107217914D01*
X131326095Y-107217914D02*
X131373714Y-107122676D01*
X131373714Y-107122676D02*
X131468952Y-107027438D01*
X131468952Y-107027438D02*
X131611809Y-106979819D01*
X131611809Y-106979819D02*
X131707047Y-106979819D01*
X131707047Y-106979819D02*
X131849904Y-107027438D01*
X131849904Y-107027438D02*
X131897523Y-107075057D01*
X132326095Y-107979819D02*
X132326095Y-106979819D01*
X132326095Y-106979819D02*
X132897523Y-107979819D01*
X132897523Y-107979819D02*
X132897523Y-106979819D01*
X133849904Y-106979819D02*
X133373714Y-106979819D01*
X133373714Y-106979819D02*
X133326095Y-107456009D01*
X133326095Y-107456009D02*
X133373714Y-107408390D01*
X133373714Y-107408390D02*
X133468952Y-107360771D01*
X133468952Y-107360771D02*
X133707047Y-107360771D01*
X133707047Y-107360771D02*
X133802285Y-107408390D01*
X133802285Y-107408390D02*
X133849904Y-107456009D01*
X133849904Y-107456009D02*
X133897523Y-107551247D01*
X133897523Y-107551247D02*
X133897523Y-107789342D01*
X133897523Y-107789342D02*
X133849904Y-107884580D01*
X133849904Y-107884580D02*
X133802285Y-107932200D01*
X133802285Y-107932200D02*
X133707047Y-107979819D01*
X133707047Y-107979819D02*
X133468952Y-107979819D01*
X133468952Y-107979819D02*
X133373714Y-107932200D01*
X133373714Y-107932200D02*
X133326095Y-107884580D01*
X117475095Y-124549819D02*
X117475095Y-125359342D01*
X117475095Y-125359342D02*
X117522714Y-125454580D01*
X117522714Y-125454580D02*
X117570333Y-125502200D01*
X117570333Y-125502200D02*
X117665571Y-125549819D01*
X117665571Y-125549819D02*
X117856047Y-125549819D01*
X117856047Y-125549819D02*
X117951285Y-125502200D01*
X117951285Y-125502200D02*
X117998904Y-125454580D01*
X117998904Y-125454580D02*
X118046523Y-125359342D01*
X118046523Y-125359342D02*
X118046523Y-124549819D01*
X118998904Y-124549819D02*
X118522714Y-124549819D01*
X118522714Y-124549819D02*
X118475095Y-125026009D01*
X118475095Y-125026009D02*
X118522714Y-124978390D01*
X118522714Y-124978390D02*
X118617952Y-124930771D01*
X118617952Y-124930771D02*
X118856047Y-124930771D01*
X118856047Y-124930771D02*
X118951285Y-124978390D01*
X118951285Y-124978390D02*
X118998904Y-125026009D01*
X118998904Y-125026009D02*
X119046523Y-125121247D01*
X119046523Y-125121247D02*
X119046523Y-125359342D01*
X119046523Y-125359342D02*
X118998904Y-125454580D01*
X118998904Y-125454580D02*
X118951285Y-125502200D01*
X118951285Y-125502200D02*
X118856047Y-125549819D01*
X118856047Y-125549819D02*
X118617952Y-125549819D01*
X118617952Y-125549819D02*
X118522714Y-125502200D01*
X118522714Y-125502200D02*
X118475095Y-125454580D01*
X74422095Y-54826819D02*
X74422095Y-55636342D01*
X74422095Y-55636342D02*
X74469714Y-55731580D01*
X74469714Y-55731580D02*
X74517333Y-55779200D01*
X74517333Y-55779200D02*
X74612571Y-55826819D01*
X74612571Y-55826819D02*
X74803047Y-55826819D01*
X74803047Y-55826819D02*
X74898285Y-55779200D01*
X74898285Y-55779200D02*
X74945904Y-55731580D01*
X74945904Y-55731580D02*
X74993523Y-55636342D01*
X74993523Y-55636342D02*
X74993523Y-54826819D01*
X75993523Y-55826819D02*
X75422095Y-55826819D01*
X75707809Y-55826819D02*
X75707809Y-54826819D01*
X75707809Y-54826819D02*
X75612571Y-54969676D01*
X75612571Y-54969676D02*
X75517333Y-55064914D01*
X75517333Y-55064914D02*
X75422095Y-55112533D01*
X86193333Y-54334580D02*
X86145714Y-54382200D01*
X86145714Y-54382200D02*
X86002857Y-54429819D01*
X86002857Y-54429819D02*
X85907619Y-54429819D01*
X85907619Y-54429819D02*
X85764762Y-54382200D01*
X85764762Y-54382200D02*
X85669524Y-54286961D01*
X85669524Y-54286961D02*
X85621905Y-54191723D01*
X85621905Y-54191723D02*
X85574286Y-54001247D01*
X85574286Y-54001247D02*
X85574286Y-53858390D01*
X85574286Y-53858390D02*
X85621905Y-53667914D01*
X85621905Y-53667914D02*
X85669524Y-53572676D01*
X85669524Y-53572676D02*
X85764762Y-53477438D01*
X85764762Y-53477438D02*
X85907619Y-53429819D01*
X85907619Y-53429819D02*
X86002857Y-53429819D01*
X86002857Y-53429819D02*
X86145714Y-53477438D01*
X86145714Y-53477438D02*
X86193333Y-53525057D01*
X87145714Y-54429819D02*
X86574286Y-54429819D01*
X86860000Y-54429819D02*
X86860000Y-53429819D01*
X86860000Y-53429819D02*
X86764762Y-53572676D01*
X86764762Y-53572676D02*
X86669524Y-53667914D01*
X86669524Y-53667914D02*
X86574286Y-53715533D01*
X100143333Y-121054580D02*
X100095714Y-121102200D01*
X100095714Y-121102200D02*
X99952857Y-121149819D01*
X99952857Y-121149819D02*
X99857619Y-121149819D01*
X99857619Y-121149819D02*
X99714762Y-121102200D01*
X99714762Y-121102200D02*
X99619524Y-121006961D01*
X99619524Y-121006961D02*
X99571905Y-120911723D01*
X99571905Y-120911723D02*
X99524286Y-120721247D01*
X99524286Y-120721247D02*
X99524286Y-120578390D01*
X99524286Y-120578390D02*
X99571905Y-120387914D01*
X99571905Y-120387914D02*
X99619524Y-120292676D01*
X99619524Y-120292676D02*
X99714762Y-120197438D01*
X99714762Y-120197438D02*
X99857619Y-120149819D01*
X99857619Y-120149819D02*
X99952857Y-120149819D01*
X99952857Y-120149819D02*
X100095714Y-120197438D01*
X100095714Y-120197438D02*
X100143333Y-120245057D01*
X100714762Y-120578390D02*
X100619524Y-120530771D01*
X100619524Y-120530771D02*
X100571905Y-120483152D01*
X100571905Y-120483152D02*
X100524286Y-120387914D01*
X100524286Y-120387914D02*
X100524286Y-120340295D01*
X100524286Y-120340295D02*
X100571905Y-120245057D01*
X100571905Y-120245057D02*
X100619524Y-120197438D01*
X100619524Y-120197438D02*
X100714762Y-120149819D01*
X100714762Y-120149819D02*
X100905238Y-120149819D01*
X100905238Y-120149819D02*
X101000476Y-120197438D01*
X101000476Y-120197438D02*
X101048095Y-120245057D01*
X101048095Y-120245057D02*
X101095714Y-120340295D01*
X101095714Y-120340295D02*
X101095714Y-120387914D01*
X101095714Y-120387914D02*
X101048095Y-120483152D01*
X101048095Y-120483152D02*
X101000476Y-120530771D01*
X101000476Y-120530771D02*
X100905238Y-120578390D01*
X100905238Y-120578390D02*
X100714762Y-120578390D01*
X100714762Y-120578390D02*
X100619524Y-120626009D01*
X100619524Y-120626009D02*
X100571905Y-120673628D01*
X100571905Y-120673628D02*
X100524286Y-120768866D01*
X100524286Y-120768866D02*
X100524286Y-120959342D01*
X100524286Y-120959342D02*
X100571905Y-121054580D01*
X100571905Y-121054580D02*
X100619524Y-121102200D01*
X100619524Y-121102200D02*
X100714762Y-121149819D01*
X100714762Y-121149819D02*
X100905238Y-121149819D01*
X100905238Y-121149819D02*
X101000476Y-121102200D01*
X101000476Y-121102200D02*
X101048095Y-121054580D01*
X101048095Y-121054580D02*
X101095714Y-120959342D01*
X101095714Y-120959342D02*
X101095714Y-120768866D01*
X101095714Y-120768866D02*
X101048095Y-120673628D01*
X101048095Y-120673628D02*
X101000476Y-120626009D01*
X101000476Y-120626009D02*
X100905238Y-120578390D01*
X71588333Y-136217819D02*
X71255000Y-135741628D01*
X71016905Y-136217819D02*
X71016905Y-135217819D01*
X71016905Y-135217819D02*
X71397857Y-135217819D01*
X71397857Y-135217819D02*
X71493095Y-135265438D01*
X71493095Y-135265438D02*
X71540714Y-135313057D01*
X71540714Y-135313057D02*
X71588333Y-135408295D01*
X71588333Y-135408295D02*
X71588333Y-135551152D01*
X71588333Y-135551152D02*
X71540714Y-135646390D01*
X71540714Y-135646390D02*
X71493095Y-135694009D01*
X71493095Y-135694009D02*
X71397857Y-135741628D01*
X71397857Y-135741628D02*
X71016905Y-135741628D01*
X72445476Y-135551152D02*
X72445476Y-136217819D01*
X72207381Y-135170200D02*
X71969286Y-135884485D01*
X71969286Y-135884485D02*
X72588333Y-135884485D01*
X96769323Y-105255219D02*
X96435990Y-104779028D01*
X96197895Y-105255219D02*
X96197895Y-104255219D01*
X96197895Y-104255219D02*
X96578847Y-104255219D01*
X96578847Y-104255219D02*
X96674085Y-104302838D01*
X96674085Y-104302838D02*
X96721704Y-104350457D01*
X96721704Y-104350457D02*
X96769323Y-104445695D01*
X96769323Y-104445695D02*
X96769323Y-104588552D01*
X96769323Y-104588552D02*
X96721704Y-104683790D01*
X96721704Y-104683790D02*
X96674085Y-104731409D01*
X96674085Y-104731409D02*
X96578847Y-104779028D01*
X96578847Y-104779028D02*
X96197895Y-104779028D01*
X97197895Y-105255219D02*
X97197895Y-104255219D01*
X97197895Y-104255219D02*
X97769323Y-105255219D01*
X97769323Y-105255219D02*
X97769323Y-104255219D01*
X98674085Y-104588552D02*
X98674085Y-105255219D01*
X98435990Y-104207600D02*
X98197895Y-104921885D01*
X98197895Y-104921885D02*
X98816942Y-104921885D01*
X65239819Y-108751666D02*
X64763628Y-109084999D01*
X65239819Y-109323094D02*
X64239819Y-109323094D01*
X64239819Y-109323094D02*
X64239819Y-108942142D01*
X64239819Y-108942142D02*
X64287438Y-108846904D01*
X64287438Y-108846904D02*
X64335057Y-108799285D01*
X64335057Y-108799285D02*
X64430295Y-108751666D01*
X64430295Y-108751666D02*
X64573152Y-108751666D01*
X64573152Y-108751666D02*
X64668390Y-108799285D01*
X64668390Y-108799285D02*
X64716009Y-108846904D01*
X64716009Y-108846904D02*
X64763628Y-108942142D01*
X64763628Y-108942142D02*
X64763628Y-109323094D01*
X65239819Y-107799285D02*
X65239819Y-108370713D01*
X65239819Y-108084999D02*
X64239819Y-108084999D01*
X64239819Y-108084999D02*
X64382676Y-108180237D01*
X64382676Y-108180237D02*
X64477914Y-108275475D01*
X64477914Y-108275475D02*
X64525533Y-108370713D01*
X72387619Y-125375894D02*
X71387619Y-125375894D01*
X71387619Y-125375894D02*
X71387619Y-125137799D01*
X71387619Y-125137799D02*
X71435238Y-124994942D01*
X71435238Y-124994942D02*
X71530476Y-124899704D01*
X71530476Y-124899704D02*
X71625714Y-124852085D01*
X71625714Y-124852085D02*
X71816190Y-124804466D01*
X71816190Y-124804466D02*
X71959047Y-124804466D01*
X71959047Y-124804466D02*
X72149523Y-124852085D01*
X72149523Y-124852085D02*
X72244761Y-124899704D01*
X72244761Y-124899704D02*
X72340000Y-124994942D01*
X72340000Y-124994942D02*
X72387619Y-125137799D01*
X72387619Y-125137799D02*
X72387619Y-125375894D01*
X72387619Y-123852085D02*
X72387619Y-124423513D01*
X72387619Y-124137799D02*
X71387619Y-124137799D01*
X71387619Y-124137799D02*
X71530476Y-124233037D01*
X71530476Y-124233037D02*
X71625714Y-124328275D01*
X71625714Y-124328275D02*
X71673333Y-124423513D01*
X72387619Y-116085904D02*
X71387619Y-116085904D01*
X72387619Y-115514476D02*
X71816190Y-115943047D01*
X71387619Y-115514476D02*
X71959047Y-116085904D01*
D11*
X68885000Y-128905000D02*
X69835000Y-128905000D01*
X74625000Y-128905000D02*
X73675000Y-128905000D01*
X69835000Y-127985000D02*
X73675000Y-127985000D01*
X73675000Y-129825000D01*
X69835000Y-129825000D01*
X69835000Y-127985000D01*
X103400000Y-56445000D02*
X103400000Y-92125000D01*
X103400000Y-92125000D02*
X108860000Y-92125000D01*
X110860000Y-92125000D02*
X116320000Y-92125000D01*
X116320000Y-56445000D02*
X103400000Y-56445000D01*
X116320000Y-92125000D02*
X116320000Y-56445000D01*
X108860000Y-92125000D02*
G75*
G02*
X110860000Y-92125000I1000000J0D01*
G01*
X128575000Y-135255000D02*
X129525000Y-135255000D01*
X134315000Y-135255000D02*
X133365000Y-135255000D01*
X129525000Y-134335000D02*
X133365000Y-134335000D01*
X133365000Y-136175000D01*
X129525000Y-136175000D01*
X129525000Y-134335000D01*
X52170000Y-112384000D02*
X52170000Y-109974000D01*
X52470000Y-86544000D02*
X52470000Y-112084000D01*
X52470000Y-112084000D02*
X55000000Y-112084000D01*
X54580000Y-112384000D02*
X52170000Y-112384000D01*
X55000000Y-86544000D02*
X52470000Y-86544000D01*
X55000000Y-86674000D02*
X55000000Y-86544000D01*
X55000000Y-111954000D02*
X56810000Y-111954000D01*
X55000000Y-112084000D02*
X55000000Y-111954000D01*
X56810000Y-86544000D02*
X56810000Y-86674000D01*
X56810000Y-86674000D02*
X55000000Y-86674000D01*
X56810000Y-111954000D02*
X56810000Y-112084000D01*
X56810000Y-112084000D02*
X57790000Y-112084000D01*
X57790000Y-86544000D02*
X56810000Y-86544000D01*
X57790000Y-95394000D02*
X57790000Y-86544000D01*
X57790000Y-103234000D02*
X59290000Y-103234000D01*
X57790000Y-112084000D02*
X57790000Y-103234000D01*
X59290000Y-95394000D02*
X57790000Y-95394000D01*
X59290000Y-103234000D02*
X59290000Y-95394000D01*
X107465000Y-113315000D02*
X107613000Y-113315000D01*
X107465000Y-116555000D02*
X107465000Y-113315000D01*
X107613000Y-116555000D02*
X107465000Y-116555000D01*
X109557000Y-113315000D02*
X109705000Y-113315000D01*
X109705000Y-113315000D02*
X109705000Y-116555000D01*
X109705000Y-116555000D02*
X109557000Y-116555000D01*
X108215000Y-52855000D02*
X111455000Y-52855000D01*
X108215000Y-53003000D02*
X108215000Y-52855000D01*
X108215000Y-55095000D02*
X108215000Y-54947000D01*
X111455000Y-52855000D02*
X111455000Y-53003000D01*
X111455000Y-54947000D02*
X111455000Y-55095000D01*
X111455000Y-55095000D02*
X108215000Y-55095000D01*
X98920000Y-132530000D02*
X98920000Y-147270000D01*
X98920000Y-147270000D02*
X108160000Y-147270000D01*
X100590000Y-132530000D02*
X98920000Y-132530000D01*
X108160000Y-132530000D02*
X106490000Y-132530000D01*
X108160000Y-133750000D02*
X108160000Y-132530000D01*
X108160000Y-147270000D02*
X108160000Y-139150000D01*
X105392000Y-98725000D02*
X105392000Y-98125000D01*
X105942000Y-99925000D02*
X106542000Y-99925000D01*
X106042000Y-97425000D02*
X108842000Y-97425000D01*
X106242000Y-99625000D02*
X105942000Y-99925000D01*
X106242000Y-99625000D02*
X106542000Y-99925000D01*
X108842000Y-99425000D02*
X106042000Y-99425000D01*
X109492000Y-98125000D02*
X109492000Y-98725000D01*
X105392000Y-98125000D02*
G75*
G02*
X106092000Y-97425000I699999J1D01*
G01*
X106092000Y-99425000D02*
G75*
G02*
X105392000Y-98725000I-1J699999D01*
G01*
X108792000Y-97425000D02*
G75*
G02*
X109492000Y-98125000I0J-700000D01*
G01*
X109492000Y-98725000D02*
G75*
G02*
X108792000Y-99425000I-700000J0D01*
G01*
X107592000Y-106838000D02*
X107740000Y-106838000D01*
X107592000Y-110078000D02*
X107592000Y-106838000D01*
X107740000Y-110078000D02*
X107592000Y-110078000D01*
X109684000Y-106838000D02*
X109832000Y-106838000D01*
X109832000Y-106838000D02*
X109832000Y-110078000D01*
X109832000Y-110078000D02*
X109684000Y-110078000D01*
X76050000Y-100977000D02*
X76771000Y-100977000D01*
X76050000Y-105017000D02*
X76050000Y-100977000D01*
X76771000Y-105017000D02*
X76050000Y-105017000D01*
X78169000Y-100977000D02*
X78890000Y-100977000D01*
X78890000Y-100977000D02*
X78890000Y-105017000D01*
X78890000Y-105017000D02*
X78169000Y-105017000D01*
X60920000Y-79437000D02*
X60920000Y-102457000D01*
X60920000Y-99837000D02*
X63540000Y-99837000D01*
X60920000Y-102457000D02*
X63540000Y-102457000D01*
X63540000Y-79437000D02*
X60920000Y-79437000D01*
X63540000Y-102457000D02*
X63540000Y-79437000D01*
X54920000Y-117995000D02*
X54920000Y-119495000D01*
X56170000Y-121995000D02*
X60670000Y-121995000D01*
X60670000Y-115495000D02*
X56170000Y-115495000D01*
X61920000Y-119495000D02*
X61920000Y-117995000D01*
X141490000Y-84995000D02*
X142870000Y-84995000D01*
X141490000Y-86375000D02*
X141490000Y-84995000D01*
X141490000Y-87645000D02*
X141490000Y-105535000D01*
X141490000Y-87645000D02*
X144140000Y-87645000D01*
X141490000Y-105535000D02*
X146790000Y-105535000D01*
X144140000Y-84995000D02*
X146790000Y-84995000D01*
X144140000Y-87645000D02*
X144140000Y-84995000D01*
X146790000Y-84995000D02*
X146790000Y-105535000D01*
X64245000Y-137765000D02*
X53945000Y-137765000D01*
X53945000Y-125565000D01*
X54445000Y-125065000D01*
X64245000Y-125065000D01*
X64245000Y-137765000D01*
X68885000Y-132334000D02*
X69835000Y-132334000D01*
X74625000Y-132334000D02*
X73675000Y-132334000D01*
X69835000Y-131414000D02*
X73675000Y-131414000D01*
X73675000Y-133254000D01*
X69835000Y-133254000D01*
X69835000Y-131414000D01*
X60920000Y-55307000D02*
X60920000Y-78327000D01*
X60920000Y-75707000D02*
X63540000Y-75707000D01*
X60920000Y-78327000D02*
X63540000Y-78327000D01*
X63540000Y-55307000D02*
X60920000Y-55307000D01*
X63540000Y-78327000D02*
X63540000Y-55307000D01*
X68885000Y-143256000D02*
X69835000Y-143256000D01*
X74625000Y-143256000D02*
X73675000Y-143256000D01*
X69835000Y-142336000D02*
X73675000Y-142336000D01*
X73675000Y-144176000D01*
X69835000Y-144176000D01*
X69835000Y-142336000D01*
X112141000Y-135052000D02*
X112141000Y-136002000D01*
X112141000Y-140792000D02*
X112141000Y-139842000D01*
X111221000Y-139842000D02*
X113061000Y-139842000D01*
X113061000Y-136002000D01*
X111221000Y-136002000D01*
X111221000Y-139842000D01*
X141495000Y-61485000D02*
X142875000Y-61485000D01*
X141495000Y-62865000D02*
X141495000Y-61485000D01*
X141495000Y-64135000D02*
X141495000Y-82025000D01*
X141495000Y-64135000D02*
X144145000Y-64135000D01*
X141495000Y-82025000D02*
X146795000Y-82025000D01*
X144145000Y-61485000D02*
X146795000Y-61485000D01*
X144145000Y-64135000D02*
X144145000Y-61485000D01*
X146795000Y-61485000D02*
X146795000Y-82025000D01*
X76050000Y-106057000D02*
X76771000Y-106057000D01*
X76050000Y-110097000D02*
X76050000Y-106057000D01*
X76771000Y-110097000D02*
X76050000Y-110097000D01*
X78169000Y-106057000D02*
X78890000Y-106057000D01*
X78890000Y-106057000D02*
X78890000Y-110097000D01*
X78890000Y-110097000D02*
X78169000Y-110097000D01*
X117399000Y-135280400D02*
X118349000Y-135280400D01*
X123139000Y-135280400D02*
X122189000Y-135280400D01*
X118349000Y-134360400D02*
X122189000Y-134360400D01*
X122189000Y-136200400D01*
X118349000Y-136200400D01*
X118349000Y-134360400D01*
X124352000Y-93368000D02*
X127592000Y-93368000D01*
X124352000Y-93516000D02*
X124352000Y-93368000D01*
X124352000Y-95608000D02*
X124352000Y-95460000D01*
X127592000Y-93368000D02*
X127592000Y-93516000D01*
X127592000Y-95460000D02*
X127592000Y-95608000D01*
X127592000Y-95608000D02*
X124352000Y-95608000D01*
X80565000Y-123455000D02*
X80565000Y-122855000D01*
X81115000Y-124655000D02*
X81715000Y-124655000D01*
X81215000Y-122155000D02*
X84015000Y-122155000D01*
X81415000Y-124355000D02*
X81115000Y-124655000D01*
X81415000Y-124355000D02*
X81715000Y-124655000D01*
X84015000Y-124155000D02*
X81215000Y-124155000D01*
X84665000Y-122855000D02*
X84665000Y-123455000D01*
X80565000Y-122855000D02*
G75*
G02*
X81265000Y-122155000I699999J1D01*
G01*
X81265000Y-124155000D02*
G75*
G02*
X80565000Y-123455000I-1J699999D01*
G01*
X83965000Y-122155000D02*
G75*
G02*
X84665000Y-122855000I0J-700000D01*
G01*
X84665000Y-123455000D02*
G75*
G02*
X83965000Y-124155000I-700000J0D01*
G01*
X127871000Y-100071200D02*
X127871000Y-99471200D01*
X128421000Y-101271200D02*
X129021000Y-101271200D01*
X128521000Y-98771200D02*
X131321000Y-98771200D01*
X128721000Y-100971200D02*
X128421000Y-101271200D01*
X128721000Y-100971200D02*
X129021000Y-101271200D01*
X131321000Y-100771200D02*
X128521000Y-100771200D01*
X131971000Y-99471200D02*
X131971000Y-100071200D01*
X127871000Y-99471200D02*
G75*
G02*
X128571000Y-98771200I699999J1D01*
G01*
X128571000Y-100771200D02*
G75*
G02*
X127871000Y-100071200I-1J699999D01*
G01*
X131271000Y-98771200D02*
G75*
G02*
X131971000Y-99471200I0J-700000D01*
G01*
X131971000Y-100071200D02*
G75*
G02*
X131271000Y-100771200I-700000J0D01*
G01*
X73045199Y-118185000D02*
X73445199Y-118185000D01*
X73245199Y-117985000D02*
X73245199Y-118385000D01*
X75315000Y-117300000D02*
X75315000Y-121460000D01*
X75355000Y-117300000D02*
X75355000Y-121460000D01*
X75395000Y-117302000D02*
X75395000Y-121458000D01*
X75435000Y-117303000D02*
X75435000Y-121457000D01*
X75475000Y-117306000D02*
X75475000Y-121454000D01*
X75515000Y-117309000D02*
X75515000Y-118540000D01*
X75515000Y-120220000D02*
X75515000Y-121451000D01*
X75555000Y-117314000D02*
X75555000Y-118540000D01*
X75555000Y-120220000D02*
X75555000Y-121446000D01*
X75595000Y-117319000D02*
X75595000Y-118540000D01*
X75595000Y-120220000D02*
X75595000Y-121441000D01*
X75635000Y-117324000D02*
X75635000Y-118540000D01*
X75635000Y-120220000D02*
X75635000Y-121436000D01*
X75675000Y-117331000D02*
X75675000Y-118540000D01*
X75675000Y-120220000D02*
X75675000Y-121429000D01*
X75715000Y-117338000D02*
X75715000Y-118540000D01*
X75715000Y-120220000D02*
X75715000Y-121422000D01*
X75755000Y-117346000D02*
X75755000Y-118540000D01*
X75755000Y-120220000D02*
X75755000Y-121414000D01*
X75795000Y-117355000D02*
X75795000Y-118540000D01*
X75795000Y-120220000D02*
X75795000Y-121405000D01*
X75835000Y-117365000D02*
X75835000Y-118540000D01*
X75835000Y-120220000D02*
X75835000Y-121395000D01*
X75875000Y-117375000D02*
X75875000Y-118540000D01*
X75875000Y-120220000D02*
X75875000Y-121385000D01*
X75915000Y-117387000D02*
X75915000Y-118540000D01*
X75915000Y-120220000D02*
X75915000Y-121373000D01*
X75955000Y-117399000D02*
X75955000Y-118540000D01*
X75955000Y-120220000D02*
X75955000Y-121361000D01*
X75995000Y-117412000D02*
X75995000Y-118540000D01*
X75995000Y-120220000D02*
X75995000Y-121348000D01*
X76035000Y-117426000D02*
X76035000Y-118540000D01*
X76035000Y-120220000D02*
X76035000Y-121334000D01*
X76075000Y-117441000D02*
X76075000Y-118540000D01*
X76075000Y-120220000D02*
X76075000Y-121319000D01*
X76115000Y-117457000D02*
X76115000Y-118540000D01*
X76115000Y-120220000D02*
X76115000Y-121303000D01*
X76155000Y-117474000D02*
X76155000Y-118540000D01*
X76155000Y-120220000D02*
X76155000Y-121286000D01*
X76195000Y-117491000D02*
X76195000Y-118540000D01*
X76195000Y-120220000D02*
X76195000Y-121269000D01*
X76235000Y-117510000D02*
X76235000Y-118540000D01*
X76235000Y-120220000D02*
X76235000Y-121250000D01*
X76275000Y-117530000D02*
X76275000Y-118540000D01*
X76275000Y-120220000D02*
X76275000Y-121230000D01*
X76315000Y-117551000D02*
X76315000Y-118540000D01*
X76315000Y-120220000D02*
X76315000Y-121209000D01*
X76355000Y-117573000D02*
X76355000Y-118540000D01*
X76355000Y-120220000D02*
X76355000Y-121187000D01*
X76395000Y-117596000D02*
X76395000Y-118540000D01*
X76395000Y-120220000D02*
X76395000Y-121164000D01*
X76435000Y-117620000D02*
X76435000Y-118540000D01*
X76435000Y-120220000D02*
X76435000Y-121140000D01*
X76475000Y-117646000D02*
X76475000Y-118540000D01*
X76475000Y-120220000D02*
X76475000Y-121114000D01*
X76515000Y-117672000D02*
X76515000Y-118540000D01*
X76515000Y-120220000D02*
X76515000Y-121088000D01*
X76555000Y-117700000D02*
X76555000Y-118540000D01*
X76555000Y-120220000D02*
X76555000Y-121060000D01*
X76595000Y-117730000D02*
X76595000Y-118540000D01*
X76595000Y-120220000D02*
X76595000Y-121030000D01*
X76635000Y-117761000D02*
X76635000Y-118540000D01*
X76635000Y-120220000D02*
X76635000Y-120999000D01*
X76675000Y-117794000D02*
X76675000Y-118540000D01*
X76675000Y-120220000D02*
X76675000Y-120966000D01*
X76715000Y-117828000D02*
X76715000Y-118540000D01*
X76715000Y-120220000D02*
X76715000Y-120932000D01*
X76755000Y-117864000D02*
X76755000Y-118540000D01*
X76755000Y-120220000D02*
X76755000Y-120896000D01*
X76795000Y-117902000D02*
X76795000Y-118540000D01*
X76795000Y-120220000D02*
X76795000Y-120858000D01*
X76835000Y-117942000D02*
X76835000Y-118540000D01*
X76835000Y-120220000D02*
X76835000Y-120818000D01*
X76875000Y-117984000D02*
X76875000Y-118540000D01*
X76875000Y-120220000D02*
X76875000Y-120776000D01*
X76915000Y-118029000D02*
X76915000Y-118540000D01*
X76915000Y-120220000D02*
X76915000Y-120731000D01*
X76955000Y-118077000D02*
X76955000Y-118540000D01*
X76955000Y-120220000D02*
X76955000Y-120683000D01*
X76995000Y-118127000D02*
X76995000Y-118540000D01*
X76995000Y-120220000D02*
X76995000Y-120633000D01*
X77035000Y-118181000D02*
X77035000Y-118540000D01*
X77035000Y-120220000D02*
X77035000Y-120579000D01*
X77075000Y-118238000D02*
X77075000Y-118540000D01*
X77075000Y-120220000D02*
X77075000Y-120522000D01*
X77115000Y-118300000D02*
X77115000Y-118540000D01*
X77115000Y-120220000D02*
X77115000Y-120460000D01*
X77155000Y-118367000D02*
X77155000Y-120393000D01*
X77195000Y-118440000D02*
X77195000Y-120320000D01*
X77235000Y-118521000D02*
X77235000Y-120239000D01*
X77275000Y-118612000D02*
X77275000Y-120148000D01*
X77315000Y-118717000D02*
X77315000Y-120043000D01*
X77355000Y-118843000D02*
X77355000Y-119917000D01*
X77395000Y-119010000D02*
X77395000Y-119750000D01*
X77435000Y-119380000D02*
G75*
G02*
X73195000Y-119380000I-2120000J0D01*
G01*
X73195000Y-119380000D02*
G75*
G02*
X77435000Y-119380000I2120000J0D01*
G01*
X66040000Y-117145000D02*
X66040000Y-118095000D01*
X66040000Y-122885000D02*
X66040000Y-121935000D01*
X65120000Y-121935000D02*
X66960000Y-121935000D01*
X66960000Y-118095000D01*
X65120000Y-118095000D01*
X65120000Y-121935000D01*
X119645000Y-139165000D02*
X122055000Y-139165000D01*
X119645000Y-141575000D02*
X119645000Y-139165000D01*
X119945000Y-139465000D02*
X119945000Y-141995000D01*
X119945000Y-141995000D02*
X120075000Y-141995000D01*
X119945000Y-143805000D02*
X119945000Y-144785000D01*
X119945000Y-144785000D02*
X124985000Y-144785000D01*
X120075000Y-141995000D02*
X120075000Y-143805000D01*
X120075000Y-143805000D02*
X119945000Y-143805000D01*
X124985000Y-144785000D02*
X124985000Y-146285000D01*
X124985000Y-146285000D02*
X132825000Y-146285000D01*
X132825000Y-144785000D02*
X137865000Y-144785000D01*
X132825000Y-146285000D02*
X132825000Y-144785000D01*
X137735000Y-141995000D02*
X137865000Y-141995000D01*
X137735000Y-143805000D02*
X137735000Y-141995000D01*
X137865000Y-139465000D02*
X119945000Y-139465000D01*
X137865000Y-141995000D02*
X137865000Y-139465000D01*
X137865000Y-143805000D02*
X137735000Y-143805000D01*
X137865000Y-144785000D02*
X137865000Y-143805000D01*
X52170000Y-85460000D02*
X52170000Y-83050000D01*
X52470000Y-59620000D02*
X52470000Y-85160000D01*
X52470000Y-85160000D02*
X55000000Y-85160000D01*
X54580000Y-85460000D02*
X52170000Y-85460000D01*
X55000000Y-59620000D02*
X52470000Y-59620000D01*
X55000000Y-59750000D02*
X55000000Y-59620000D01*
X55000000Y-85030000D02*
X56810000Y-85030000D01*
X55000000Y-85160000D02*
X55000000Y-85030000D01*
X56810000Y-59620000D02*
X56810000Y-59750000D01*
X56810000Y-59750000D02*
X55000000Y-59750000D01*
X56810000Y-85030000D02*
X56810000Y-85160000D01*
X56810000Y-85160000D02*
X57790000Y-85160000D01*
X57790000Y-59620000D02*
X56810000Y-59620000D01*
X57790000Y-68470000D02*
X57790000Y-59620000D01*
X57790000Y-76310000D02*
X59290000Y-76310000D01*
X57790000Y-85160000D02*
X57790000Y-76310000D01*
X59290000Y-68470000D02*
X57790000Y-68470000D01*
X59290000Y-76310000D02*
X59290000Y-68470000D01*
X80676000Y-115466000D02*
X83916000Y-115466000D01*
X80676000Y-115614000D02*
X80676000Y-115466000D01*
X80676000Y-117706000D02*
X80676000Y-117558000D01*
X83916000Y-115466000D02*
X83916000Y-115614000D01*
X83916000Y-117558000D02*
X83916000Y-117706000D01*
X83916000Y-117706000D02*
X80676000Y-117706000D01*
X68885000Y-139192000D02*
X69835000Y-139192000D01*
X74625000Y-139192000D02*
X73675000Y-139192000D01*
X69835000Y-138272000D02*
X73675000Y-138272000D01*
X73675000Y-140112000D01*
X69835000Y-140112000D01*
X69835000Y-138272000D01*
X121180000Y-56445000D02*
X121180000Y-92125000D01*
X121180000Y-92125000D02*
X126640000Y-92125000D01*
X128640000Y-92125000D02*
X134100000Y-92125000D01*
X134100000Y-56445000D02*
X121180000Y-56445000D01*
X134100000Y-92125000D02*
X134100000Y-56445000D01*
X126640000Y-92125000D02*
G75*
G02*
X128640000Y-92125000I1000000J0D01*
G01*
X141495000Y-108475000D02*
X142875000Y-108475000D01*
X141495000Y-109855000D02*
X141495000Y-108475000D01*
X141495000Y-111125000D02*
X141495000Y-129015000D01*
X141495000Y-111125000D02*
X144145000Y-111125000D01*
X141495000Y-129015000D02*
X146795000Y-129015000D01*
X144145000Y-108475000D02*
X146795000Y-108475000D01*
X144145000Y-111125000D02*
X144145000Y-108475000D01*
X146795000Y-108475000D02*
X146795000Y-129015000D01*
X100290000Y-106326000D02*
X100290000Y-119186000D01*
X100290000Y-119186000D02*
X102910000Y-119186000D01*
X102910000Y-106326000D02*
X100290000Y-106326000D01*
X102910000Y-108946000D02*
X100290000Y-108946000D01*
X102910000Y-119186000D02*
X102910000Y-106326000D01*
X65950000Y-110835000D02*
X65950000Y-106335000D01*
X68670000Y-106335000D02*
X68670000Y-110835000D01*
X65950000Y-106335000D02*
G75*
G02*
X68670000Y-106335000I1360000J0D01*
G01*
X68670000Y-110835000D02*
G75*
G02*
X65950000Y-110835000I-1360000J0D01*
G01*
X115470000Y-97110000D02*
X115470000Y-117550000D01*
X115470000Y-117550000D02*
X120770000Y-117550000D01*
X117120000Y-97110000D02*
X115470000Y-97110000D01*
X120770000Y-97110000D02*
X119120000Y-97110000D01*
X120770000Y-117550000D02*
X120770000Y-97110000D01*
X119120000Y-97110000D02*
G75*
G02*
X117120000Y-97110000I-1000000J0D01*
G01*
X129938000Y-108475000D02*
X131318000Y-108475000D01*
X129938000Y-109855000D02*
X129938000Y-108475000D01*
X129938000Y-111125000D02*
X129938000Y-129015000D01*
X129938000Y-111125000D02*
X132588000Y-111125000D01*
X129938000Y-129015000D02*
X135238000Y-129015000D01*
X132588000Y-108475000D02*
X135238000Y-108475000D01*
X132588000Y-111125000D02*
X132588000Y-108475000D01*
X135238000Y-108475000D02*
X135238000Y-129015000D01*
X115470000Y-121235000D02*
X115470000Y-131515000D01*
X115470000Y-131515000D02*
X120770000Y-131515000D01*
X117120000Y-121235000D02*
X115470000Y-121235000D01*
X120770000Y-121235000D02*
X119120000Y-121235000D01*
X120770000Y-131515000D02*
X120770000Y-121235000D01*
X119120000Y-121235000D02*
G75*
G02*
X117120000Y-121235000I-1000000J0D01*
G01*
X72898000Y-56515000D02*
X91948000Y-56515000D01*
X91948000Y-113030000D01*
X72898000Y-113030000D01*
X72898000Y-56515000D01*
X80518001Y-56515000D02*
X80518001Y-56515000D01*
X80518001Y-56515000D01*
X80518001Y-56515000D01*
X80518001Y-56515000D01*
X80518001Y-56515000D01*
X80518001Y-56515001D01*
X80518001Y-56515001D01*
X80518001Y-56515001D01*
X80518001Y-56515001D01*
X80518001Y-56515001D01*
X80518001Y-56515001D01*
X80518001Y-56515001D01*
X80518000Y-56515001D01*
X80518000Y-56515001D01*
X80518000Y-56515001D01*
X80518000Y-56515001D01*
X80518000Y-56515001D01*
X80518000Y-56515001D01*
X80518000Y-56515001D01*
X80518000Y-56515001D01*
X80518000Y-56515001D01*
X80518000Y-56515001D01*
X80518000Y-56515001D01*
X80518000Y-56515001D01*
X80517999Y-56515001D01*
X80517999Y-56515001D01*
X80517999Y-56515001D01*
X80517999Y-56515001D01*
X80517999Y-56515001D01*
X80517999Y-56515001D01*
X80517999Y-56515000D01*
X80517999Y-56515000D01*
X80517999Y-56515000D01*
X80517999Y-56515000D01*
X80517999Y-56515000D01*
X80517999Y-56515000D01*
X80517999Y-56515000D02*
X80517999Y-56515000D01*
X80517999Y-56515000D01*
X80517999Y-56515000D01*
X80517999Y-56515000D01*
X80517999Y-56515000D01*
X80517999Y-56515000D01*
X80517999Y-56514999D01*
X80517999Y-56514999D01*
X80517999Y-56514999D01*
X80517999Y-56514999D01*
X80517999Y-56514999D01*
X80518000Y-56514999D01*
X80518000Y-56514999D01*
X80518000Y-56514999D01*
X80518000Y-56514999D01*
X80518000Y-56514999D01*
X80518000Y-56514999D01*
X80518000Y-56514999D01*
X80518000Y-56514999D01*
X80518000Y-56514999D01*
X80518000Y-56514999D01*
X80518000Y-56514999D01*
X80518000Y-56514999D01*
X80518001Y-56514999D01*
X80518001Y-56514999D01*
X80518001Y-56514999D01*
X80518001Y-56514999D01*
X80518001Y-56514999D01*
X80518001Y-56514999D01*
X80518001Y-56515000D01*
X80518001Y-56515000D01*
X80518001Y-56515000D01*
X80518001Y-56515000D01*
X80518001Y-56515000D01*
X80518001Y-56515000D01*
X80518001Y-56515000D01*
X84963000Y-56515000D02*
G75*
G02*
X79883000Y-56515000I-2540000J0D01*
G01*
X80950000Y-52855000D02*
X84190000Y-52855000D01*
X80950000Y-53003000D02*
X80950000Y-52855000D01*
X80950000Y-55095000D02*
X80950000Y-54947000D01*
X84190000Y-52855000D02*
X84190000Y-53003000D01*
X84190000Y-54947000D02*
X84190000Y-55095000D01*
X84190000Y-55095000D02*
X80950000Y-55095000D01*
X96809759Y-123256000D02*
X97439759Y-123256000D01*
X97124759Y-122941000D02*
X97124759Y-123571000D01*
X100310000Y-121865000D02*
X100310000Y-128325000D01*
X100350000Y-121865000D02*
X100350000Y-128325000D01*
X100390000Y-121866000D02*
X100390000Y-128324000D01*
X100430000Y-121867000D02*
X100430000Y-128323000D01*
X100470000Y-121869000D02*
X100470000Y-128321000D01*
X100510000Y-121871000D02*
X100510000Y-128319000D01*
X100550000Y-121874000D02*
X100550000Y-124055000D01*
X100550000Y-126135000D02*
X100550000Y-128316000D01*
X100590000Y-121877000D02*
X100590000Y-124055000D01*
X100590000Y-126135000D02*
X100590000Y-128313000D01*
X100630000Y-121881000D02*
X100630000Y-124055000D01*
X100630000Y-126135000D02*
X100630000Y-128309000D01*
X100670000Y-121885000D02*
X100670000Y-124055000D01*
X100670000Y-126135000D02*
X100670000Y-128305000D01*
X100710000Y-121890000D02*
X100710000Y-124055000D01*
X100710000Y-126135000D02*
X100710000Y-128300000D01*
X100750000Y-121895000D02*
X100750000Y-124055000D01*
X100750000Y-126135000D02*
X100750000Y-128295000D01*
X100790000Y-121900000D02*
X100790000Y-124055000D01*
X100790000Y-126135000D02*
X100790000Y-128290000D01*
X100830000Y-121907000D02*
X100830000Y-124055000D01*
X100830000Y-126135000D02*
X100830000Y-128283000D01*
X100870000Y-121913000D02*
X100870000Y-124055000D01*
X100870000Y-126135000D02*
X100870000Y-128277000D01*
X100910000Y-121921000D02*
X100910000Y-124055000D01*
X100910000Y-126135000D02*
X100910000Y-128269000D01*
X100950000Y-121928000D02*
X100950000Y-124055000D01*
X100950000Y-126135000D02*
X100950000Y-128262000D01*
X100990000Y-121936000D02*
X100990000Y-124055000D01*
X100990000Y-126135000D02*
X100990000Y-128254000D01*
X101030000Y-121945000D02*
X101030000Y-124055000D01*
X101030000Y-126135000D02*
X101030000Y-128245000D01*
X101070000Y-121955000D02*
X101070000Y-124055000D01*
X101070000Y-126135000D02*
X101070000Y-128235000D01*
X101110000Y-121964000D02*
X101110000Y-124055000D01*
X101110000Y-126135000D02*
X101110000Y-128226000D01*
X101150000Y-121975000D02*
X101150000Y-124055000D01*
X101150000Y-126135000D02*
X101150000Y-128215000D01*
X101190000Y-121986000D02*
X101190000Y-124055000D01*
X101190000Y-126135000D02*
X101190000Y-128204000D01*
X101230000Y-121997000D02*
X101230000Y-124055000D01*
X101230000Y-126135000D02*
X101230000Y-128193000D01*
X101270000Y-122009000D02*
X101270000Y-124055000D01*
X101270000Y-126135000D02*
X101270000Y-128181000D01*
X101310000Y-122022000D02*
X101310000Y-124055000D01*
X101310000Y-126135000D02*
X101310000Y-128168000D01*
X101350000Y-122035000D02*
X101350000Y-124055000D01*
X101350000Y-126135000D02*
X101350000Y-128155000D01*
X101390000Y-122048000D02*
X101390000Y-124055000D01*
X101390000Y-126135000D02*
X101390000Y-128142000D01*
X101430000Y-122063000D02*
X101430000Y-124055000D01*
X101430000Y-126135000D02*
X101430000Y-128127000D01*
X101470000Y-122078000D02*
X101470000Y-124055000D01*
X101470000Y-126135000D02*
X101470000Y-128112000D01*
X101510000Y-122093000D02*
X101510000Y-124055000D01*
X101510000Y-126135000D02*
X101510000Y-128097000D01*
X101550000Y-122109000D02*
X101550000Y-124055000D01*
X101550000Y-126135000D02*
X101550000Y-128081000D01*
X101590000Y-122126000D02*
X101590000Y-124055000D01*
X101590000Y-126135000D02*
X101590000Y-128064000D01*
X101630000Y-122143000D02*
X101630000Y-124055000D01*
X101630000Y-126135000D02*
X101630000Y-128047000D01*
X101670000Y-122161000D02*
X101670000Y-124055000D01*
X101670000Y-126135000D02*
X101670000Y-128029000D01*
X101710000Y-122180000D02*
X101710000Y-124055000D01*
X101710000Y-126135000D02*
X101710000Y-128010000D01*
X101750000Y-122199000D02*
X101750000Y-124055000D01*
X101750000Y-126135000D02*
X101750000Y-127991000D01*
X101790000Y-122219000D02*
X101790000Y-124055000D01*
X101790000Y-126135000D02*
X101790000Y-127971000D01*
X101830000Y-122240000D02*
X101830000Y-124055000D01*
X101830000Y-126135000D02*
X101830000Y-127950000D01*
X101870000Y-122261000D02*
X101870000Y-124055000D01*
X101870000Y-126135000D02*
X101870000Y-127929000D01*
X101910000Y-122283000D02*
X101910000Y-124055000D01*
X101910000Y-126135000D02*
X101910000Y-127907000D01*
X101950000Y-122306000D02*
X101950000Y-124055000D01*
X101950000Y-126135000D02*
X101950000Y-127884000D01*
X101990000Y-122330000D02*
X101990000Y-124055000D01*
X101990000Y-126135000D02*
X101990000Y-127860000D01*
X102030000Y-122354000D02*
X102030000Y-124055000D01*
X102030000Y-126135000D02*
X102030000Y-127836000D01*
X102070000Y-122379000D02*
X102070000Y-124055000D01*
X102070000Y-126135000D02*
X102070000Y-127811000D01*
X102110000Y-122405000D02*
X102110000Y-124055000D01*
X102110000Y-126135000D02*
X102110000Y-127785000D01*
X102150000Y-122432000D02*
X102150000Y-124055000D01*
X102150000Y-126135000D02*
X102150000Y-127758000D01*
X102190000Y-122459000D02*
X102190000Y-124055000D01*
X102190000Y-126135000D02*
X102190000Y-127731000D01*
X102230000Y-122488000D02*
X102230000Y-124055000D01*
X102230000Y-126135000D02*
X102230000Y-127702000D01*
X102270000Y-122518000D02*
X102270000Y-124055000D01*
X102270000Y-126135000D02*
X102270000Y-127672000D01*
X102310000Y-122548000D02*
X102310000Y-124055000D01*
X102310000Y-126135000D02*
X102310000Y-127642000D01*
X102350000Y-122579000D02*
X102350000Y-124055000D01*
X102350000Y-126135000D02*
X102350000Y-127611000D01*
X102390000Y-122612000D02*
X102390000Y-124055000D01*
X102390000Y-126135000D02*
X102390000Y-127578000D01*
X102430000Y-122645000D02*
X102430000Y-124055000D01*
X102430000Y-126135000D02*
X102430000Y-127545000D01*
X102470000Y-122680000D02*
X102470000Y-124055000D01*
X102470000Y-126135000D02*
X102470000Y-127510000D01*
X102510000Y-122716000D02*
X102510000Y-124055000D01*
X102510000Y-126135000D02*
X102510000Y-127474000D01*
X102550000Y-122753000D02*
X102550000Y-124055000D01*
X102550000Y-126135000D02*
X102550000Y-127437000D01*
X102590000Y-122791000D02*
X102590000Y-124055000D01*
X102590000Y-126135000D02*
X102590000Y-127399000D01*
X102630000Y-122831000D02*
X102630000Y-127359000D01*
X102670000Y-122872000D02*
X102670000Y-127318000D01*
X102710000Y-122914000D02*
X102710000Y-127276000D01*
X102750000Y-122958000D02*
X102750000Y-127232000D01*
X102790000Y-123004000D02*
X102790000Y-127186000D01*
X102830000Y-123051000D02*
X102830000Y-127139000D01*
X102870000Y-123100000D02*
X102870000Y-127090000D01*
X102910000Y-123152000D02*
X102910000Y-127038000D01*
X102950000Y-123205000D02*
X102950000Y-126985000D01*
X102990000Y-123261000D02*
X102990000Y-126929000D01*
X103030000Y-123320000D02*
X103030000Y-126870000D01*
X103070000Y-123381000D02*
X103070000Y-126809000D01*
X103110000Y-123446000D02*
X103110000Y-126744000D01*
X103150000Y-123514000D02*
X103150000Y-126676000D01*
X103190000Y-123586000D02*
X103190000Y-126604000D01*
X103230000Y-123663000D02*
X103230000Y-126527000D01*
X103270000Y-123745000D02*
X103270000Y-126445000D01*
X103310000Y-123834000D02*
X103310000Y-126356000D01*
X103350000Y-123930000D02*
X103350000Y-126260000D01*
X103390000Y-124037000D02*
X103390000Y-126153000D01*
X103430000Y-124156000D02*
X103430000Y-126034000D01*
X103470000Y-124294000D02*
X103470000Y-125896000D01*
X103510000Y-124462000D02*
X103510000Y-125728000D01*
X103550000Y-124693000D02*
X103550000Y-125497000D01*
X103580000Y-125095000D02*
G75*
G02*
X97040000Y-125095000I-3270000J0D01*
G01*
X97040000Y-125095000D02*
G75*
G02*
X103580000Y-125095000I3270000J0D01*
G01*
X68885000Y-135763000D02*
X69835000Y-135763000D01*
X74625000Y-135763000D02*
X73675000Y-135763000D01*
X69835000Y-134843000D02*
X73675000Y-134843000D01*
X73675000Y-136683000D01*
X69835000Y-136683000D01*
X69835000Y-134843000D01*
X96226000Y-106326000D02*
X96226000Y-119186000D01*
X96226000Y-119186000D02*
X98846000Y-119186000D01*
X98846000Y-106326000D02*
X96226000Y-106326000D01*
X98846000Y-108946000D02*
X96226000Y-108946000D01*
X98846000Y-119186000D02*
X98846000Y-106326000D01*
X62865000Y-105715000D02*
X62865000Y-106665000D01*
X62865000Y-111455000D02*
X62865000Y-110505000D01*
X63785000Y-106665000D02*
X61945000Y-106665000D01*
X61945000Y-110505000D01*
X63785000Y-110505000D01*
X63785000Y-106665000D01*
X69850000Y-117245000D02*
X69850000Y-117895000D01*
X69850000Y-122785000D02*
X69850000Y-122135000D01*
X70970000Y-118495000D02*
X68730000Y-118495000D01*
X70970000Y-118615000D02*
X68730000Y-118615000D01*
X70970000Y-118735000D02*
X68730000Y-118735000D01*
X70970000Y-117895000D02*
X68730000Y-117895000D01*
X68730000Y-122135000D01*
X70970000Y-122135000D01*
X70970000Y-117895000D01*
M02*
