M48
; DRILL file {KiCad (6.0.11)} date Thu Feb 23 17:05:54 2023
; FORMAT={-:-/ absolute / inch / decimal}
; #@! TF.CreationDate,2023-02-23T17:05:54+09:00
; #@! TF.GenerationSoftware,Kicad,Pcbnew,(6.0.11)
; #@! TF.FileFunction,MixedPlating,1,2
FMAT,2
INCH
; #@! TA.AperFunction,Plated,PTH,ViaDrill
T1C0.0118
; #@! TA.AperFunction,Plated,PTH,ComponentDrill
T2C0.0315
; #@! TA.AperFunction,Plated,PTH,ComponentDrill
T3C0.0394
; #@! TA.AperFunction,Plated,PTH,ComponentDrill
T4C0.0429
; #@! TA.AperFunction,Plated,PTH,ComponentDrill
T5C0.0433
; #@! TA.AperFunction,NonPlated,NPTH,ComponentDrill
T6C0.1260
%
G90
G05
T1
X2.255Y-4.495
X2.2776Y-3.7886
X2.3203Y-4.1359
X2.445Y-4.495
X2.5824Y-4.0326
X2.6604Y-3.3654
X2.89Y-4.495
X2.905Y-4.54
X3.0Y-4.375
X3.0Y-4.495
X3.0Y-4.54
X3.015Y-4.975
X3.12Y-4.0775
X3.15Y-4.38
X3.15Y-4.43
X3.18Y-3.475
X3.1898Y-4.42
X3.2Y-3.16
X3.2Y-4.77
X3.2038Y-3.44
X3.215Y-4.475
X3.2175Y-4.0775
X3.2307Y-3.7343
X3.24Y-4.35
X3.245Y-3.65
X3.255Y-4.77
X3.2578Y-3.826
X3.355Y-4.77
X3.3673Y-3.6354
X3.395Y-3.685
X3.395Y-3.9624
X3.425Y-4.9
X3.465Y-4.08
X3.55Y-3.7554
X3.59Y-4.685
X3.72Y-3.27
X3.725Y-4.685
X3.755Y-3.2
X3.785Y-2.985
X3.815Y-3.125
X3.85Y-3.375
X3.975Y-4.015
X4.105Y-4.66
X4.1357Y-5.1457
X4.175Y-2.275
X4.175Y-2.375
X4.225Y-2.275
X4.225Y-2.475
X4.275Y-2.275
X4.275Y-2.575
X4.2842Y-3.81
X4.3044Y-3.9756
X4.33Y-4.05
X4.3846Y-3.7054
X4.615Y-3.975
X4.64Y-3.775
X4.66Y-3.89
X4.72Y-4.2
X4.8825Y-4.325
X5.475Y-4.325
X5.5Y-2.35
X5.5Y-4.375
X5.51Y-4.61
X5.51Y-4.71
X5.5191Y-4.19
X5.525Y-2.475
X5.53Y-4.27
X5.53Y-4.4
X5.57Y-4.225
T2
X2.175Y-4.975
X2.175Y-5.075
X2.175Y-5.175
X2.175Y-5.275
X2.175Y-5.375
X2.45Y-2.2306
X2.45Y-2.3306
X2.45Y-2.4306
X2.45Y-2.5306
X2.45Y-2.6306
X2.45Y-2.7306
X2.45Y-2.8306
X2.45Y-2.9306
X2.45Y-3.0306
X2.45Y-3.1806
X2.45Y-3.2806
X2.45Y-3.3806
X2.45Y-3.4806
X2.45Y-3.5806
X2.45Y-3.6806
X2.45Y-3.7806
X2.45Y-3.8806
X2.45Y-3.9806
X2.475Y-4.125
X2.475Y-4.425
X2.475Y-4.975
X2.475Y-5.075
X2.475Y-5.175
X2.475Y-5.275
X2.475Y-5.375
X2.6Y-4.575
X2.6Y-4.875
X2.675Y-5.075
X2.675Y-5.21
X2.675Y-5.345
X2.675Y-5.48
X2.675Y-5.64
X2.75Y-4.575
X2.75Y-4.875
X2.87Y-2.25
X2.87Y-2.32
X2.87Y-2.39
X2.87Y-2.46
X2.87Y-2.53
X2.87Y-2.6
X2.87Y-2.67
X2.87Y-2.74
X2.87Y-2.81
X2.87Y-2.88
X2.87Y-2.95
X2.87Y-3.02
X2.87Y-3.09
X2.87Y-3.16
X2.87Y-3.23
X2.87Y-3.3
X2.87Y-3.37
X2.87Y-3.44
X2.87Y-3.51
X2.87Y-3.58
X2.87Y-3.65
X2.87Y-3.72
X2.87Y-3.79
X2.87Y-3.86
X2.87Y-3.93
X2.87Y-4.0
X2.87Y-4.07
X2.87Y-4.14
X2.87Y-4.21
X2.87Y-4.28
X2.87Y-4.35
X2.87Y-4.42
X2.9258Y-4.7
X2.975Y-5.075
X2.975Y-5.21
X2.975Y-5.345
X2.975Y-5.48
X2.975Y-5.64
X3.0242Y-4.7
X3.05Y-4.0058
X3.05Y-4.1042
X3.05Y-4.2058
X3.05Y-4.3042
X3.1908Y-4.59
X3.2016Y-2.125
X3.2892Y-4.59
X3.3Y-2.125
X3.62Y-2.25
X3.62Y-2.32
X3.62Y-2.39
X3.62Y-2.46
X3.62Y-2.53
X3.62Y-2.6
X3.62Y-2.67
X3.62Y-2.74
X3.62Y-2.81
X3.62Y-2.88
X3.62Y-2.95
X3.62Y-3.02
X3.62Y-3.09
X3.62Y-3.16
X3.62Y-3.23
X3.62Y-3.3
X3.62Y-3.37
X3.62Y-3.44
X3.62Y-3.51
X3.62Y-3.58
X3.62Y-3.65
X3.62Y-3.72
X3.62Y-3.79
X3.62Y-3.86
X3.62Y-3.93
X3.62Y-4.0
X3.62Y-4.07
X3.62Y-4.14
X3.62Y-4.21
X3.62Y-4.28
X3.62Y-4.35
X3.62Y-4.42
X3.84Y-4.2392
X3.84Y-4.3392
X3.84Y-4.4392
X3.84Y-4.5392
X3.84Y-4.6392
X3.9Y-4.925
X3.9984Y-4.925
X4.0Y-4.2392
X4.0Y-4.3392
X4.0Y-4.4392
X4.0Y-4.5392
X4.0Y-4.6392
X4.0252Y-2.2746
X4.0252Y-2.3746
X4.0252Y-2.4746
X4.0252Y-2.5746
X4.0252Y-2.6746
X4.0252Y-2.7746
X4.0252Y-2.8746
X4.0252Y-2.9746
X4.0252Y-3.0746
X4.0252Y-3.1746
X4.0252Y-3.2746
X4.0252Y-3.3746
X4.0252Y-3.4746
X4.0252Y-3.5746
X4.275Y-2.125
X4.275Y-4.4758
X4.275Y-4.5742
X4.28Y-4.2208
X4.28Y-4.3192
X4.3734Y-2.125
X4.415Y-5.28
X4.415Y-5.58
X4.5004Y-3.8756
X4.5004Y-3.9756
X4.5004Y-4.0756
X4.5004Y-4.1756
X4.5004Y-4.2756
X4.5004Y-4.3756
X4.5004Y-4.4756
X4.5004Y-4.5756
X4.5004Y-4.8254
X4.5004Y-4.9254
X4.5004Y-5.0254
X4.5004Y-5.1254
X4.6252Y-2.2746
X4.6252Y-2.3746
X4.6252Y-2.4746
X4.6252Y-2.5746
X4.6252Y-2.6746
X4.6252Y-2.7746
X4.6252Y-2.8746
X4.6252Y-2.9746
X4.6252Y-3.0746
X4.6252Y-3.1746
X4.6252Y-3.2746
X4.6252Y-3.3746
X4.6252Y-3.4746
X4.6252Y-3.5746
X4.7252Y-2.2746
X4.7252Y-2.3746
X4.7252Y-2.4746
X4.7252Y-2.5746
X4.7252Y-2.6746
X4.7252Y-2.7746
X4.7252Y-2.8746
X4.7252Y-2.9746
X4.7252Y-3.0746
X4.7252Y-3.1746
X4.7252Y-3.2746
X4.7252Y-3.3746
X4.7252Y-3.4746
X4.7252Y-3.5746
X4.8004Y-3.8756
X4.8004Y-3.9756
X4.8004Y-4.0756
X4.8004Y-4.1756
X4.8004Y-4.2756
X4.8004Y-4.3756
X4.8004Y-4.4756
X4.8004Y-4.5756
X4.8004Y-4.8254
X4.8004Y-4.9254
X4.8004Y-5.0254
X4.8004Y-5.1254
X4.9103Y-3.72
X5.0087Y-3.72
X5.025Y-5.325
X5.325Y-5.325
X5.3252Y-2.2746
X5.3252Y-2.3746
X5.3252Y-2.4746
X5.3252Y-2.5746
X5.3252Y-2.6746
X5.3252Y-2.7746
X5.3252Y-2.8746
X5.3252Y-2.9746
X5.3252Y-3.0746
X5.3252Y-3.1746
X5.3252Y-3.2746
X5.3252Y-3.3746
X5.3252Y-3.4746
X5.3252Y-3.5746
T3
X2.65Y-4.1766
X2.65Y-4.275
X2.65Y-4.3734
X5.17Y-4.325
X5.17Y-4.425
X5.17Y-4.525
X5.17Y-4.625
X5.17Y-4.725
X5.17Y-4.825
X5.17Y-4.925
X5.17Y-5.025
X5.27Y-4.325
X5.27Y-4.425
X5.27Y-4.525
X5.27Y-4.625
X5.27Y-4.725
X5.27Y-4.825
X5.27Y-4.925
X5.27Y-5.025
X5.6248Y-3.4006
X5.6248Y-3.5006
X5.6248Y-3.6006
X5.6248Y-3.7006
X5.6248Y-3.8006
X5.6248Y-3.9006
X5.6248Y-4.0006
X5.6248Y-4.1006
X5.625Y-2.475
X5.625Y-2.575
X5.625Y-2.675
X5.625Y-2.775
X5.625Y-2.875
X5.625Y-2.975
X5.625Y-3.075
X5.625Y-3.175
X5.625Y-4.325
X5.625Y-4.425
X5.625Y-4.525
X5.625Y-4.625
X5.625Y-4.725
X5.625Y-4.825
X5.625Y-4.925
X5.625Y-5.025
X5.7248Y-3.4006
X5.7248Y-3.5006
X5.7248Y-3.6006
X5.7248Y-3.7006
X5.7248Y-3.8006
X5.7248Y-3.9006
X5.7248Y-4.0006
X5.7248Y-4.1006
X5.725Y-2.475
X5.725Y-2.575
X5.725Y-2.675
X5.725Y-2.775
X5.725Y-2.875
X5.725Y-2.975
X5.725Y-3.075
X5.725Y-3.175
X5.725Y-4.325
X5.725Y-4.425
X5.725Y-4.525
X5.725Y-4.625
X5.725Y-4.725
X5.725Y-4.825
X5.725Y-4.925
X5.725Y-5.025
T4
X2.1705Y-2.45
X2.1705Y-2.55
X2.1705Y-2.65
X2.1705Y-2.75
X2.1705Y-2.85
X2.1705Y-2.95
X2.1705Y-3.05
X2.1705Y-3.15
X2.1705Y-3.25
X2.1705Y-3.51
X2.1705Y-3.61
X2.1705Y-3.71
X2.1705Y-3.81
X2.1705Y-3.91
X2.1705Y-4.01
X2.1705Y-4.11
X2.1705Y-4.21
X2.1705Y-4.31
X4.825Y-5.5955
X4.925Y-5.5955
X5.025Y-5.5955
X5.125Y-5.5955
X5.225Y-5.5955
X5.325Y-5.5955
T5
X2.172Y-4.5864
X2.172Y-4.7636
X2.428Y-4.5864
X2.428Y-4.7636
T6
X2.1654Y-2.1654
X2.1654Y-5.7087
X5.7087Y-2.1654
X5.7087Y-5.7087
T3
G00X4.0272Y-5.2461
M15
G01X4.1256Y-5.2461
M16
G05
G00X4.037Y-5.4902
M15
G01X4.1157Y-5.4902
M16
G05
G00X4.2614Y-5.4114
M15
G01X4.2614Y-5.3327
M16
G05
T0
M30
