M48
; DRILL file {KiCad 9.0.7} date 2026-03-03T08:11:47+0900
; FORMAT={-:-/ absolute / metric / decimal}
; #@! TF.CreationDate,2026-03-03T08:11:47+09:00
; #@! TF.GenerationSoftware,Kicad,Pcbnew,9.0.7
; #@! TF.FileFunction,MixedPlating,1,2
FMAT,2
METRIC
; #@! TA.AperFunction,Plated,PTH,ViaDrill
T1C0.300
; #@! TA.AperFunction,Plated,PTH,ComponentDrill
T2C0.600
; #@! TA.AperFunction,Plated,PTH,ComponentDrill
T3C0.700
; #@! TA.AperFunction,Plated,PTH,ComponentDrill
T4C0.800
; #@! TA.AperFunction,Plated,PTH,ComponentDrill
T5C1.000
; #@! TA.AperFunction,Plated,PTH,ComponentDrill
T6C1.090
; #@! TA.AperFunction,Plated,PTH,ComponentDrill
T7C1.100
; #@! TA.AperFunction,NonPlated,NPTH,ComponentDrill
T8C3.200
%
G90
G05
T1
X55.118Y-59.233
X55.169Y-85.954
X55.22Y-123.749
X55.956Y-114.173
X57.851Y-96.231
X58.826Y-131.47
X58.936Y-105.052
X62.103Y-114.173
X62.23Y-54.0
X62.89Y-108.56
X62.941Y-143.358
X65.592Y-102.429
X67.573Y-85.48
X70.587Y-105.994
X70.891Y-109.626
X72.949Y-54.0
X73.406Y-114.173
X73.787Y-115.316
X75.336Y-112.268
X75.54Y-145.593
X76.2Y-111.125
X76.2Y-114.173
X76.2Y-115.316
X76.581Y-126.365
X79.477Y-109.245
X80.01Y-111.252
X80.01Y-112.522
X80.772Y-88.265
X80.874Y-139.294
X81.02Y-112.268
X81.046Y-119.202
X81.28Y-80.264
X81.315Y-121.336
X81.331Y-120.65
X81.376Y-87.376
X81.432Y-91.973
X81.661Y-113.665
X81.724Y-103.568
X82.296Y-110.49
X82.423Y-92.71
X82.677Y-121.158
X82.839Y-97.088
X85.217Y-121.158
X85.53Y-92.34
X86.233Y-93.599
X86.314Y-100.563
X86.995Y-124.46
X88.011Y-103.632
X90.17Y-95.386
X91.186Y-118.999
X93.066Y-125.07
X94.488Y-83.058
X94.615Y-118.999
X95.377Y-81.28
X96.114Y-139.548
X96.139Y-75.819
X96.901Y-79.375
X97.536Y-102.006
X97.79Y-85.725
X100.965Y-101.981
X104.267Y-118.364
X105.048Y-130.701
X106.045Y-57.785
X106.045Y-60.325
X107.315Y-57.785
X107.315Y-62.865
X108.585Y-57.785
X108.585Y-65.405
X109.144Y-96.774
X109.332Y-100.98
X109.982Y-102.87
X111.369Y-94.117
X112.116Y-137.719
X113.035Y-55.925
X116.713Y-123.139
X117.221Y-100.965
X117.399Y-142.24
X117.488Y-116.853
X117.856Y-95.885
X118.059Y-130.251
X118.364Y-98.806
X119.888Y-106.68
X124.016Y-109.855
X125.324Y-101.041
X126.644Y-116.23
X131.572Y-55.88
X133.985Y-99.568
X133.985Y-130.302
X139.065Y-109.855
X139.598Y-55.88
X139.7Y-59.69
X139.7Y-111.125
X139.954Y-117.094
X139.954Y-119.634
X140.185Y-106.426
X140.335Y-62.865
X140.462Y-108.458
X140.462Y-111.76
X141.478Y-107.315
X145.415Y-130.302
X145.491Y-59.334
X145.491Y-138.379
T2
X74.315Y-119.38
X76.315Y-119.38
T3
X62.865Y-104.775
X62.865Y-112.395
X66.04Y-116.205
X66.04Y-123.825
X67.945Y-128.905
X67.945Y-132.334
X67.945Y-135.763
X67.945Y-139.192
X67.945Y-143.256
X75.565Y-128.905
X75.565Y-132.334
X75.565Y-135.763
X75.565Y-139.192
X75.565Y-143.256
X112.141Y-134.112
X112.141Y-141.732
X116.459Y-135.28
X124.079Y-135.28
X127.635Y-135.255
X135.255Y-135.255
T4
X55.245Y-126.365
X55.245Y-128.905
X55.245Y-131.445
X55.245Y-133.985
X55.245Y-136.525
X62.23Y-56.657
X62.23Y-59.197
X62.23Y-61.737
X62.23Y-64.277
X62.23Y-66.817
X62.23Y-69.357
X62.23Y-71.897
X62.23Y-74.437
X62.23Y-76.977
X62.23Y-80.787
X62.23Y-83.327
X62.23Y-85.867
X62.23Y-88.407
X62.23Y-90.947
X62.23Y-93.487
X62.23Y-96.027
X62.23Y-98.567
X62.23Y-101.107
X62.865Y-126.365
X62.865Y-128.905
X62.865Y-131.445
X62.865Y-133.985
X62.865Y-136.525
X69.85Y-116.205
X69.85Y-123.825
X72.898Y-57.15
X72.898Y-58.928
X72.898Y-60.706
X72.898Y-62.484
X72.898Y-64.262
X72.898Y-66.04
X72.898Y-67.818
X72.898Y-69.596
X72.898Y-71.374
X72.898Y-73.152
X72.898Y-74.93
X72.898Y-76.708
X72.898Y-78.486
X72.898Y-80.264
X72.898Y-82.042
X72.898Y-83.82
X72.898Y-85.598
X72.898Y-87.376
X72.898Y-89.154
X72.898Y-90.932
X72.898Y-92.71
X72.898Y-94.488
X72.898Y-96.266
X72.898Y-98.044
X72.898Y-99.822
X72.898Y-101.6
X72.898Y-103.378
X72.898Y-105.156
X72.898Y-106.934
X72.898Y-108.712
X72.898Y-110.49
X72.898Y-112.268
X77.47Y-101.747
X77.47Y-104.247
X77.47Y-106.827
X77.47Y-109.327
X81.046Y-116.586
X81.32Y-53.975
X83.546Y-116.586
X83.82Y-53.975
X91.948Y-57.15
X91.948Y-58.928
X91.948Y-60.706
X91.948Y-62.484
X91.948Y-64.262
X91.948Y-66.04
X91.948Y-67.818
X91.948Y-69.596
X91.948Y-71.374
X91.948Y-73.152
X91.948Y-74.93
X91.948Y-76.708
X91.948Y-78.486
X91.948Y-80.264
X91.948Y-82.042
X91.948Y-83.82
X91.948Y-85.598
X91.948Y-87.376
X91.948Y-89.154
X91.948Y-90.932
X91.948Y-92.71
X91.948Y-94.488
X91.948Y-96.266
X91.948Y-98.044
X91.948Y-99.822
X91.948Y-101.6
X91.948Y-103.378
X91.948Y-105.156
X91.948Y-106.934
X91.948Y-108.712
X91.948Y-110.49
X91.948Y-112.268
X97.536Y-107.676
X97.536Y-110.216
X97.536Y-112.756
X97.536Y-115.296
X97.536Y-117.836
X99.06Y-125.095
X101.56Y-125.095
X101.6Y-107.676
X101.6Y-110.216
X101.6Y-112.756
X101.6Y-115.296
X101.6Y-117.836
X102.24Y-57.775
X102.24Y-60.315
X102.24Y-62.855
X102.24Y-65.395
X102.24Y-67.935
X102.24Y-70.475
X102.24Y-73.015
X102.24Y-75.555
X102.24Y-78.095
X102.24Y-80.635
X102.24Y-83.175
X102.24Y-85.715
X102.24Y-88.255
X102.24Y-90.795
X108.585Y-53.975
X108.585Y-113.685
X108.585Y-116.185
X108.712Y-107.208
X108.712Y-109.708
X111.085Y-53.975
X114.31Y-98.44
X114.31Y-100.98
X114.31Y-103.52
X114.31Y-106.06
X114.31Y-108.6
X114.31Y-111.14
X114.31Y-113.68
X114.31Y-116.22
X114.31Y-122.565
X114.31Y-125.105
X114.31Y-127.645
X114.31Y-130.185
X117.48Y-57.775
X117.48Y-60.315
X117.48Y-62.855
X117.48Y-65.395
X117.48Y-67.935
X117.48Y-70.475
X117.48Y-73.015
X117.48Y-75.555
X117.48Y-78.095
X117.48Y-80.635
X117.48Y-83.175
X117.48Y-85.715
X117.48Y-88.255
X117.48Y-90.795
X120.02Y-57.775
X120.02Y-60.315
X120.02Y-62.855
X120.02Y-65.395
X120.02Y-67.935
X120.02Y-70.475
X120.02Y-73.015
X120.02Y-75.555
X120.02Y-78.095
X120.02Y-80.635
X120.02Y-83.175
X120.02Y-85.715
X120.02Y-88.255
X120.02Y-90.795
X121.93Y-98.44
X121.93Y-100.98
X121.93Y-103.52
X121.93Y-106.06
X121.93Y-108.6
X121.93Y-111.14
X121.93Y-113.68
X121.93Y-116.22
X121.93Y-122.565
X121.93Y-125.105
X121.93Y-127.645
X121.93Y-130.185
X124.722Y-94.488
X127.222Y-94.488
X135.26Y-57.775
X135.26Y-60.315
X135.26Y-62.855
X135.26Y-65.395
X135.26Y-67.935
X135.26Y-70.475
X135.26Y-73.015
X135.26Y-75.555
X135.26Y-78.095
X135.26Y-80.635
X135.26Y-83.175
X135.26Y-85.715
X135.26Y-88.255
X135.26Y-90.795
T5
X67.31Y-106.085
X67.31Y-108.585
X67.31Y-111.085
X131.318Y-109.855
X131.318Y-112.395
X131.318Y-114.935
X131.318Y-117.475
X131.318Y-120.015
X131.318Y-122.555
X131.318Y-125.095
X131.318Y-127.635
X133.858Y-109.855
X133.858Y-112.395
X133.858Y-114.935
X133.858Y-117.475
X133.858Y-120.015
X133.858Y-122.555
X133.858Y-125.095
X133.858Y-127.635
X142.87Y-86.375
X142.87Y-88.915
X142.87Y-91.455
X142.87Y-93.995
X142.87Y-96.535
X142.87Y-99.075
X142.87Y-101.615
X142.87Y-104.155
X142.875Y-62.865
X142.875Y-65.405
X142.875Y-67.945
X142.875Y-70.485
X142.875Y-73.025
X142.875Y-75.565
X142.875Y-78.105
X142.875Y-80.645
X142.875Y-109.855
X142.875Y-112.395
X142.875Y-114.935
X142.875Y-117.475
X142.875Y-120.015
X142.875Y-122.555
X142.875Y-125.095
X142.875Y-127.635
X145.41Y-86.375
X145.41Y-88.915
X145.41Y-91.455
X145.41Y-93.995
X145.41Y-96.535
X145.41Y-99.075
X145.41Y-101.615
X145.41Y-104.155
X145.415Y-62.865
X145.415Y-65.405
X145.415Y-67.945
X145.415Y-70.485
X145.415Y-73.025
X145.415Y-75.565
X145.415Y-78.105
X145.415Y-80.645
X145.415Y-109.855
X145.415Y-112.395
X145.415Y-114.935
X145.415Y-117.475
X145.415Y-120.015
X145.415Y-122.555
X145.415Y-125.095
X145.415Y-127.635
T6
X55.13Y-62.23
X55.13Y-64.77
X55.13Y-67.31
X55.13Y-69.85
X55.13Y-72.39
X55.13Y-74.93
X55.13Y-77.47
X55.13Y-80.01
X55.13Y-82.55
X55.13Y-89.154
X55.13Y-91.694
X55.13Y-94.234
X55.13Y-96.774
X55.13Y-99.314
X55.13Y-101.854
X55.13Y-104.394
X55.13Y-106.934
X55.13Y-109.474
X122.555Y-142.125
X125.095Y-142.125
X127.635Y-142.125
X130.175Y-142.125
X132.715Y-142.125
X135.255Y-142.125
T7
X55.17Y-116.495
X55.17Y-120.995
X61.67Y-116.495
X61.67Y-120.995
T8
X55.0Y-55.0
X55.0Y-145.0
X145.0Y-55.0
X145.0Y-145.0
T5
G00X102.29Y-133.25
M15
G01X104.79Y-133.25
M16
G05
G00X102.54Y-139.45
M15
G01X104.54Y-139.45
M16
G05
G00X108.24Y-137.45
M15
G01X108.24Y-135.45
M16
G05
M30
